<svg width="64" height="65" viewBox="0 0 64 65" fill="none" xmlns="http://www.w3.org/2000/svg">
<path d="M43.1733 5.83301L20.8267 5.83301C11.12 5.83301 5.33334 11.6197 5.33334 21.3263L5.33334 43.6463C5.33334 53.3797 11.12 59.1663 20.8267 59.1663L43.1467 59.1663C52.8533 59.1663 58.64 53.3797 58.64 43.673L58.64 21.3263C58.6667 11.6197 52.88 5.83301 43.1733 5.83301ZM42.8267 30.2863L33.4133 39.6997C33.0133 40.0997 32.5067 40.2863 32 40.2863C31.4933 40.2863 30.9867 40.0997 30.5867 39.6997L21.1733 30.2863C20.4 29.513 20.4 28.233 21.1733 27.4597C21.9467 26.6863 23.2267 26.6863 24 27.4597L32 35.4597L40 27.4597C40.7733 26.6863 42.0533 26.6863 42.8267 27.4597C43.6 28.233 43.6 29.4863 42.8267 30.2863Z" fill="black"/>
</svg>
