<svg width="416" height="802" viewBox="0 0 416 802" fill="none" xmlns="http://www.w3.org/2000/svg">
<path d="M389.413 794.867L351.724 729.076C347.586 721.86 338.158 719.707 331.307 724.422L245.239 783.605C236.17 789.842 223.743 783.864 222.975 772.887L215.715 668.755C215.133 660.45 207.575 654.423 199.337 655.698L96.0472 671.725C85.1694 673.408 76.5713 662.653 80.6349 652.431L119.19 555.365C122.263 547.63 118.063 538.942 110.097 536.516L10.1029 506.182C-0.44039 502.989 -3.50053 489.549 4.61444 482.111L81.6013 411.493C87.7464 405.862 87.7464 396.184 81.6013 390.553L4.61444 319.935C-3.50053 312.497 -0.44039 299.057 10.1029 295.863L110.097 265.53C118.063 263.116 122.263 254.416 119.19 246.681L80.6349 149.616C76.5713 139.393 85.1694 128.638 96.0472 130.321L199.337 146.348C207.575 147.623 215.133 141.596 215.715 133.292L222.975 29.1591C223.743 18.1815 236.17 12.204 245.239 18.4416L331.307 77.624C338.171 82.3393 347.599 80.1982 351.724 72.9706L389.413 7.17926C396.66 -5.46912 416 -0.33313 416 14.2335L416 787.763C416 802.342 396.66 807.466 389.413 794.817V794.867Z" fill="white"/>
</svg>
