<svg width="430" height="265" viewBox="0 0 430 265" fill="none" xmlns="http://www.w3.org/2000/svg">
<path d="M-40.3749 13.0607L2.28266 37.4439C6.96088 40.1211 8.35713 46.2209 5.29984 50.6535L-33.0728 106.337C-37.1171 112.205 -33.2412 120.244 -26.1236 120.741L41.3935 125.438C46.7779 125.815 50.6858 130.704 49.8593 136.035L39.4677 202.86C38.3764 209.898 45.3495 215.46 51.9776 212.831L114.913 187.887C119.928 185.899 125.561 188.617 127.134 193.77L146.802 258.464C148.872 265.285 157.587 267.265 162.409 262.015L208.196 212.206C211.847 208.23 218.123 208.23 221.774 212.206L267.561 262.015C272.384 267.265 281.098 265.285 283.168 258.464L302.836 193.77C304.401 188.617 310.042 185.899 315.057 187.887L377.992 212.831C384.621 215.46 391.594 209.898 390.502 202.86L380.111 136.035C379.284 130.704 383.192 125.815 388.577 125.438L456.094 120.741C463.211 120.244 467.087 112.205 463.043 106.337L424.67 50.6535C421.613 46.2129 423.001 40.113 427.687 37.4439L470.345 13.0607C478.546 8.37167 475.216 -4.14062 465.771 -4.14062L-35.7689 -4.14062C-45.2216 -4.14062 -48.5439 8.37167 -40.343 13.0607H-40.3749Z" fill="white"/>
</svg>
