<svg width="416" height="802" viewBox="0 0 416 802" fill="none" xmlns="http://www.w3.org/2000/svg">
<path d="M26.5875 794.867L64.2755 729.076C68.4135 721.86 77.8418 719.707 84.6931 724.422L170.761 783.605C179.83 789.842 192.257 783.864 193.025 772.887L200.285 668.755C200.867 660.45 208.425 654.423 216.663 655.698L319.953 671.725C330.831 673.408 339.429 662.653 335.365 652.431L296.81 555.365C293.737 547.63 297.937 538.942 305.903 536.516L405.897 506.182C416.44 502.989 419.501 489.549 411.386 482.111L334.399 411.493C328.254 405.862 328.254 396.184 334.399 390.553L411.386 319.935C419.501 312.497 416.44 299.057 405.897 295.863L305.903 265.53C297.937 263.116 293.737 254.416 296.81 246.681L335.365 149.616C339.429 139.393 330.831 128.638 319.953 130.321L216.663 146.348C208.425 147.623 200.867 141.596 200.285 133.292L193.025 29.1591C192.257 18.1815 179.83 12.204 170.761 18.4416L84.6931 77.624C77.8294 82.3393 68.4011 80.1982 64.2755 72.9706L26.5875 7.17926C19.3398 -5.46912 0 -0.33313 0 14.2335L0 787.763C0 802.342 19.3398 807.466 26.5875 794.817V794.867Z" fill="white"/>
</svg>
