<svg width="430" height="270" viewBox="0 0 430 270" fill="none" xmlns="http://www.w3.org/2000/svg">
<path d="M-40.3749 252.487L2.28266 228.051C6.96088 225.368 8.35713 219.255 5.29984 214.812L-33.0728 159.008C-37.1171 153.128 -33.2412 145.07 -26.1236 144.572L41.3935 139.865C46.7779 139.488 50.6858 134.588 49.8593 129.246L39.4677 62.275C38.3764 55.2221 45.3495 49.6472 51.9776 52.282L114.913 77.2806C119.928 79.2727 125.561 76.5495 127.134 71.3844L146.802 6.55049C148.872 -0.285539 157.587 -2.26967 162.409 2.99191L208.196 52.9086C211.847 56.8929 218.123 56.8929 221.774 52.9086L267.561 2.99191C272.384 -2.26967 281.098 -0.285539 283.168 6.55049L302.836 71.3844C304.401 76.5495 310.042 79.2727 315.057 77.2806L377.992 52.282C384.621 49.6472 391.594 55.2221 390.502 62.275L380.111 129.246C379.284 134.588 383.192 139.488 388.577 139.865L456.094 144.572C463.211 145.07 467.087 153.128 463.043 159.008L424.67 214.812C421.613 219.263 423.001 225.376 427.687 228.051L470.345 252.487C478.546 257.186 475.216 269.726 465.771 269.726H-35.7689C-45.2216 269.726 -48.5439 257.186 -40.343 252.487H-40.3749Z" fill="white"/>
</svg>
