<svg width="391" height="150" viewBox="0 0 391 150" fill="none" xmlns="http://www.w3.org/2000/svg">
<path d="M137.039 93.8378C127.043 102.054 115.287 108.865 95.8108 108.865C46.7813 108.865 46.7 65.6216 0 65.6216V61.6757C49.0296 61.6757 49.1108 104.919 95.8108 104.919C112.687 104.919 123.468 99.2703 132.678 92.0541C134.141 92.6487 135.576 93.2432 137.039 93.8378ZM476.752 85.1622C476.995 84.8919 477.158 84.6216 477.266 84.3514C434.332 83.3243 431.731 44.8919 389.447 41.4324C390.178 42.0541 390.991 42.7838 391.993 43.6216C391.099 43.7838 390.368 43.9459 389.69 44.1081C391.234 44.6757 392.778 45.2162 394.322 45.7838C394.241 45.8649 394.187 45.9459 394.106 46.027C409.383 48.6216 418.918 56.5946 428.183 64.9459C429.781 65.4054 431.406 65.8919 432.869 66.1892C432.327 66.6757 431.785 67.1892 431.271 67.7027C441.943 77.2973 453.131 86.5946 473.149 88.1351C474.557 87.2703 475.776 86.2973 476.725 85.1892L476.752 85.1622ZM393.483 62.4054C394.268 62.7568 394.972 63.1351 395.541 63.6216C395.921 63.9459 394.756 65.3514 393.943 66.5135C400.607 67.6216 406.187 69.7297 411.09 72.4865C412.119 71.3784 413.067 70.3784 413.988 69.4324C408.246 66.1351 401.636 63.5946 393.483 62.4324V62.4054ZM362.873 69.027C365.284 67.4054 366.557 66.4324 366.774 66.5676C367.234 66.8378 367.695 67.1351 368.155 67.4054C372.598 66.2973 377.555 65.6487 383.216 65.6487C385.817 65.6487 388.255 65.8108 390.584 66.0541C388.878 65.4324 387.198 64.8108 385.492 64.1892C386.358 63.5135 387.225 62.8378 388.417 61.8919C386.738 61.7838 385.004 61.7027 383.189 61.7027C375.063 61.7027 368.291 62.9189 362.413 64.8919C362.304 65.0811 362.196 65.2432 362.087 65.4324C362.006 65.5946 361.275 65.6757 360.218 65.6757C336.435 74.8378 327.767 97.2162 301.789 103.351C302.087 103.703 302.412 104.081 302.737 104.378C301.058 105.081 299.378 106.351 297.726 106.405C290.439 106.595 283.098 106.757 275.92 106.216C272.209 105.946 268.769 104.135 265.22 103C266.168 102.649 267.116 102.324 268.119 101.946C239.432 92.1622 232.769 61.7027 191.622 61.7027C162.177 61.7027 150.393 77.2973 135.549 89.7568C136.958 90.3514 138.339 90.973 139.721 91.6216C144.624 87.3784 149.229 82.9189 154.267 78.9189L154.348 78.6757C154.348 78.6757 154.565 78.6216 154.673 78.5946C163.883 71.3514 174.692 65.6757 191.622 65.6757C196.281 65.6757 200.452 66.1081 204.272 66.8919C204.759 66.2703 205.247 65.6757 205.68 65.0811C208.85 65.5135 210.746 65.7838 212.615 66.027C211.775 66.8108 210.963 67.6216 210.15 68.4054C224.29 73 233.121 82.5676 243.116 91.2703C243.387 90.6757 243.875 89.7568 244.335 88.6757C246.177 91.1622 248.724 93.0811 248.426 94.4865C248.344 94.8649 248.29 95.1892 248.263 95.5406C250.566 97.3243 252.949 99.027 255.523 100.568C255.685 100.297 255.875 100.027 256.064 99.7297C257.04 100.703 257.717 101.378 258.367 102.081C265.924 106.216 275.134 108.946 287.405 108.946C328.065 108.946 335.053 79.2432 362.873 69.0811V69.027ZM355.749 28.7838C355.017 28.4324 354.124 28.1622 353.148 27.9189C340.607 34.8919 332.263 45.4324 321.157 53.3243C322.024 54.1892 322.972 55.2703 323.893 56.4324C335.812 47.8649 344.453 36.5405 358.105 29.9459C357.32 29.5676 356.534 29.1622 355.749 28.7838ZM26.0046 25.8378C24.4877 25.1622 22.9166 24.5405 21.2642 23.973C21.21 24.0541 21.1288 24.1351 21.0746 24.2162C22.6999 24.6757 24.3793 25.4865 26.0046 25.8649V25.8378ZM40.9302 35.3784C40.5239 35.0541 40.1176 34.7297 39.7112 34.4054C40.0363 34.7838 40.3885 35.1622 40.7406 35.5946C40.7948 35.5135 40.8489 35.4595 40.9031 35.4054L40.9302 35.3784ZM0.0270882 41.1351V45.0811C46.7271 45.0811 46.8083 88.3243 95.8379 88.3243C144.867 88.3243 144.949 45.0811 191.649 45.0811C221.364 45.0811 232.227 62.5946 248.805 75.3514C249.997 73.8649 249.807 72.2432 249.428 70.5946C233.744 57.9459 222.204 41.1081 191.649 41.1081C185.364 41.1081 179.92 41.8378 175.044 43.0541C173.391 44.1351 172.552 44.6487 171.82 44.6216C171.495 44.6216 171.116 44.5135 170.737 44.3514C141.319 54.3784 134.764 84.3514 95.865 84.3514C86.4383 84.3514 78.9078 82.5676 72.4879 79.7568C69.9687 79.4595 67.4766 79.1892 64.9574 78.8919C66.0138 78.4595 67.0432 78.027 68.0726 77.5946C46.0228 65.4595 36.7857 41.1351 0.0270882 41.1351ZM0.0270882 0.27027C1.43567 1.05405 2.76299 1.97297 4.19867 2.72973C5.4989 3.40541 6.96166 3.89189 8.37024 4.45946C8.28898 4.45946 8.2348 4.45946 8.15354 4.45946C45.6977 9 49.5984 44.8649 91.6393 47.1081C94.8898 45.5946 97.6528 44.2973 100.416 43.1081C98.926 43.2162 97.409 43.2703 95.8379 43.2703C49.1379 43.2973 49.0567 0.0540541 0.0270882 0.0540541V0.27027ZM191.622 106.73C222.881 106.73 233.256 126.108 251.432 138.946C253.87 139 256.335 139.216 258.692 138.703C245.094 130.838 236.263 118.405 222.258 110.405C222.096 110.351 221.96 110.297 221.852 110.162C213.996 105.757 204.516 102.757 191.649 102.757C144.19 102.757 142.592 143.27 100.199 145.865C99.2239 146.324 98.2758 146.784 97.2736 147.216C96.6777 147.459 95.3232 146.649 94.0501 145.946C72.1358 145.405 60.7046 135.108 49.165 124.676C49.0025 124.865 48.867 125.054 48.7316 125.27C48.1086 124.622 47.1334 124.054 46.998 123.324C46.9709 123.162 46.998 122.973 47.0251 122.757C35.5938 112.514 23.35 102.757 0.0541763 102.757V106.703C46.7542 106.703 46.8354 149.946 95.865 149.946C144.895 149.946 144.949 106.703 191.676 106.703L191.622 106.73ZM455.433 145.027C454.377 143.432 453.7 141.676 452.724 140.054C429.618 128.189 420.787 102.784 383.189 102.784C334.16 102.784 334.105 146.027 287.405 146.027C278.737 146.027 271.694 144.541 265.627 142.108C265.058 143.351 264.38 144.514 263.649 145.703C270.177 148.351 277.87 150 287.405 150C336.435 150 336.489 106.757 383.189 106.757C421.492 106.757 428.453 135.865 456.761 146.297C456.246 145.919 455.758 145.541 455.433 145.054V145.027ZM191.459 86.1892C191.378 84.973 191.215 83.4595 191.92 82.7027C192.082 82.5405 192.191 82.3784 192.326 82.2432C192.082 82.2432 191.865 82.2432 191.649 82.2432C185.473 82.2432 180.082 82.9189 175.288 84.1351C175.992 84.5135 176.832 84.9459 177.888 85.4324C173.093 86.3243 171.008 87.0541 168.976 86.973C168.624 86.973 168.272 86.7838 167.947 86.5405C155.026 91.7297 146.601 100.811 137.229 108.919C139.585 109.378 142.24 108.162 145.003 107.514C155.296 98.2162 165.454 89.027 183.089 86.7568C182.141 86.3243 181.382 85.1892 180.543 84.4054C181.843 83.8378 183.143 82.8108 184.443 82.8108C185.581 82.8108 186.692 83.973 189.373 85.4865C188.046 85.8378 187.044 86.1622 186.204 86.4324C187.883 86.2973 189.644 86.2162 191.459 86.2162V86.1892ZM353.392 94.1351C352.877 93.5676 352.39 92.7297 352.471 92.5676C353.094 91.5135 354.042 90.5135 355.099 90.027C355.397 89.8919 356.128 90.7838 357.293 91.9459C364.255 88.4324 372.489 86.1622 383.189 86.1622C429.889 86.1622 429.943 129.405 478.973 129.405V125.459C433.221 125.459 432.192 83.973 386.088 82.2973C385.79 82.3784 385.492 82.4324 385.194 82.4595C383.46 82.5946 381.076 83.2162 379.803 82.2973C334.132 84.2432 332.995 125.459 287.378 125.459C284.046 125.459 280.986 125.216 278.087 124.811C278.006 124.811 277.952 124.811 277.87 124.784C253.112 121.189 243.225 103.784 226.267 92.3514C225.834 92.6487 225.401 92.946 224.994 93.2432C224.209 93.8108 222.475 93.3514 221.175 93.3514C221.906 92.4865 222.421 91.2162 223.369 90.7838C223.477 90.7297 223.559 90.7027 223.64 90.6487C216.814 86.4865 208.714 83.4324 198.204 82.4865C198.231 82.7838 198.258 83.0811 198.258 83.4595C197.039 84.3784 195.902 85.3784 194.628 86.2162C197.716 86.3513 200.615 86.6487 203.297 87.1622C203.351 87.0811 203.405 87.027 203.486 86.946C203.568 87.0541 203.649 87.1351 203.73 87.2432C238.728 94 242.981 129.378 287.351 129.378C322.972 129.378 332.751 106.568 353.338 94.0811L353.392 94.1351ZM131.378 115.459C130.917 115.297 130.375 115.027 129.834 114.73C121.22 120.892 111.007 125.459 95.8379 125.459C75.3051 125.459 63.7926 117.108 53.1741 107.73C52.7948 107.486 52.4969 107.27 52.3614 107C39.1424 95.2432 26.9798 82.1892 0.0541763 82.1892V86.1351C21.7518 86.1351 33.3726 95.4595 44.5329 105.459C44.6955 105.568 44.8309 105.703 44.9934 105.811C56.1809 115.919 67.0161 126.541 87.251 128.919C86.7634 128.405 86.2758 127.865 85.7882 127.351C86.6009 126.73 87.6844 125.432 88.1449 125.595C89.6618 126.135 90.962 127.189 92.8853 128.405C92.479 128.703 92.0997 129 91.7205 129.297C93.0749 129.378 94.4293 129.405 95.865 129.405C113.635 129.405 124.958 123.73 134.411 116.486C133.382 116.135 132.38 115.784 131.405 115.432L131.378 115.459ZM49.9506 44.2162C47.946 43.6216 46.3749 43.7838 45.0205 44.3514C57.6978 55.7297 69.9416 67.8108 95.8379 67.8108C144.867 67.8108 144.949 24.5676 191.649 24.5676C212.507 24.5676 224.073 33.2162 234.827 42.7568C235.179 42.6216 235.505 42.5676 235.83 42.5676C238.051 42.6487 240.191 43.5676 242.358 44.1351C241.491 45 240.597 46.3243 239.757 47.1622C247.586 54.1892 255.685 61.0811 267.333 64.8378C268.2 64.3243 268.985 63.973 269.798 63.8649C270.963 63.6757 272.534 65.4865 273.915 66.4054C273.861 66.4324 273.807 66.4595 273.753 66.4865C277.87 67.2973 282.367 67.7838 287.432 67.7838C299.758 67.7838 308.968 65.0541 316.634 60.973C316.011 59.7568 314.575 58.9459 312.868 58.2973C306.015 61.6757 297.916 63.8378 287.432 63.8378C276.949 63.8378 269.121 61.7297 262.349 58.4595C261.103 58.7297 259.83 59.027 258.584 59.3243C259.315 58.7568 260.019 58.1892 260.724 57.6216C237.942 45.6486 228.976 20.5946 191.649 20.5946C186.637 20.5946 182.168 21.0541 178.078 21.8649C178.078 21.9459 178.132 22.027 178.132 22.1351C178.917 27.8649 173.987 24.3784 171.766 25.4595C171.143 25.7568 170.168 25.8919 169.599 25.5676C169.138 25.3243 168.732 25.027 168.299 24.7297C149.337 32.2162 140.019 48.0811 123.549 57.1351C123.468 57.2973 123.441 57.4324 123.359 57.5946C122.222 59.6216 117.129 61.8649 114.285 61.6216C113.906 61.5946 113.608 61.5135 113.256 61.4595C108.217 62.973 102.529 63.8649 95.8379 63.8649C73.0568 63.8649 61.3818 53.5676 49.6797 43.027C49.761 43.4324 49.8693 43.8108 49.9506 44.2162ZM479 146.027C474.368 146.027 470.223 145.595 466.431 144.811C465.537 146.432 463.587 147.514 461.636 147.811C466.702 149.162 472.391 149.973 479 149.973V146.027ZM440.156 28.8378C440.156 28.8378 440.02 28.8649 439.939 28.8649C437.853 28.9459 435.767 28.0541 432.056 27.1892C433.384 26.2162 434.44 25.3243 435.28 24.6216C427.776 17.9189 420.544 10.8649 410.765 6.02703C409.898 6.45946 409.221 6.72973 408.787 6.51351C407.677 6 406.864 5 406.079 3.94595C399.74 1.51351 392.318 0 383.216 0C372.164 0 363.604 2.21622 356.426 5.62162C356.832 6.10811 357.076 6.40541 357.022 6.32432C357.022 7.72973 357.022 8.89189 357.022 9.89189C364.038 6.2973 372.354 3.94595 383.243 3.94595C421.519 3.94595 428.481 33 456.734 43.4865C456.625 42.4865 456.3 41.3243 455.65 40C456.517 40 457.465 39.8919 458.44 39.7838C451.289 37.1351 445.492 33.1892 440.183 28.8108L440.156 28.8378ZM308.047 41.6216C308.345 42.2973 308.372 43.1351 308.317 44.027C311.162 43.0541 313.816 41.9189 316.281 40.6216C313.6 40.8378 310.891 41.0541 308.209 41.2703C308.29 41.3784 308.372 41.4324 308.453 41.5405C308.317 41.5676 308.182 41.5946 308.074 41.6216H308.047ZM0.0270882 24.5405C5.79687 24.5405 10.8624 25.2162 15.3861 26.3784C12.4064 24.4865 9.58921 22.4054 6.31154 20.8919C4.30702 20.7297 2.22123 20.6216 0.0270882 20.6216V24.5676V24.5405ZM104.046 44.027C102.881 45.0541 101.689 46.1081 100.497 47.1351C106.05 46.8108 110.926 45.8649 115.314 44.5135C115.423 44.2162 115.558 43.8919 115.694 43.5946C116.317 42.1081 117.536 40.7568 118.673 39.0811C121.003 39.6216 123.034 40.0811 124.931 40.5135C147.82 28.3514 156.624 4.02703 191.622 4.02703C228.624 4.02703 236.344 31.1622 262.349 42.4324C262.864 42.2703 263.378 42.1351 263.893 42.0541C268.2 41.3784 272.886 42.4054 277.383 42.6487C277.518 42.6487 277.627 42.6487 277.762 42.6487C240.435 37.1622 237.049 0.027027 191.595 0.027027C146.141 0.027027 142.592 39.1351 102.285 42.9459C102.827 43.2432 103.504 43.7027 104.046 43.973V44.027ZM344.318 13.2432C335.677 19.9189 328.552 27.8649 319.478 33.9189C321.184 34.2703 322.864 34.6757 324.381 35.1622C324.489 35.1892 324.597 35.2432 324.706 35.2973C331.586 30.2432 337.41 24.2703 343.83 18.9459C343.884 17.0541 344.047 15.1622 344.318 13.2703V13.2432ZM287.405 47.2703C290.385 47.2703 293.148 47.1081 295.803 46.8108C295.126 46.1622 294.448 45.5135 293.771 44.8378C298.539 43.7568 303.306 42.7027 308.074 41.6216C308.02 41.5135 307.992 41.4054 307.938 41.2973C308.02 41.2973 308.128 41.2973 308.209 41.2973C307.884 40.8649 307.532 40.5135 307.18 40.1622C301.573 42.1351 295.153 43.3243 287.432 43.3243C287.053 43.3243 286.728 43.3243 286.349 43.2973C285.563 44.5676 284.832 45.8919 284.101 47.1892C285.184 47.2432 286.268 47.2703 287.405 47.2703ZM422.684 75.2973C422.359 75.4865 422.061 75.7027 421.736 75.8919C420.76 76.4595 419.325 76.5676 417.483 76.5405C433.356 88 443.731 104.811 469.329 108.216C469.14 108.108 468.923 107.973 468.734 107.865C470.521 107.27 472.363 106.216 474.124 106.189C475.749 106.189 477.375 106.243 478.973 106.27V104.892C449.745 104.892 438.774 87.9459 422.657 75.2703L422.684 75.2973ZM26.9798 30.8919C28.2259 31.5405 29.4177 32.2432 30.5825 32.973C29.4448 32.2703 28.28 31.2432 26.9798 30.8919ZM477.537 47.2162C477.808 46.9189 478.079 46.6216 478.377 46.2703C478.594 46.3514 478.783 46.4054 479 46.4865V43.2703C474.151 43.2703 469.844 42.7838 465.889 41.9459C466.485 43.2162 466.756 44.7568 466.837 46.2162C470.115 46.7838 473.691 47.1081 477.537 47.1892V47.2162ZM471.903 63.4595C468.815 63.1351 465.943 62.6216 463.289 61.9189C457.329 60.973 451.451 59.6757 445.573 58.4595C452.941 63.1892 461.664 66.7297 473.474 67.5676C474.666 65.6486 474.232 64.2973 471.93 63.4595H471.903ZM379.072 20.7027C378.124 21.2432 377.04 21.8649 375.794 22.5405C374.169 23.4324 371.27 24.2432 371.108 25.2432C371.108 25.3784 371.054 25.5135 371.027 25.6487C374.711 24.9459 378.747 24.5405 383.189 24.5405C391.641 24.5405 398.548 25.973 404.508 28.2973C404.887 28.1351 405.212 28.0541 405.51 28.0541C406.702 28.1081 408.489 29.2973 408.869 30.2432C418.783 35.1892 426.07 42.5946 433.979 49.5405C434.413 49.5135 434.846 49.4595 435.28 49.5135C436.905 49.6757 438.368 51.1351 440.968 52.6757C440.264 53.0541 439.614 53.4595 439.045 53.8108C439.289 54 439.505 54.1892 439.749 54.3784C439.776 54.3514 439.83 54.3243 439.858 54.2973C440.426 53.8649 441.077 53.5135 441.808 53.1892C441.564 52.7297 441.375 52.3514 441.402 52C441.402 51.4865 441.293 50.8919 441.212 50.2973C425.42 37.6216 413.934 20.6216 383.189 20.6216C381.781 20.6216 380.399 20.6757 379.045 20.7297L379.072 20.7027ZM251.243 77.1622C258.313 82.1892 266.548 86.1892 277.654 87.7027C280.552 86.5135 283.207 85.4054 285.807 84.3514C272.453 84.0541 262.999 80.1622 255.035 74.8108C253.654 75.2162 252.435 76.0541 251.243 77.1892V77.1622ZM283.938 88.2432C285.076 88.2973 286.214 88.3513 287.405 88.3513C307.613 88.3513 319.505 81 329.771 72.3514C328.038 72 326.304 71.6487 324.57 71.2703C316.227 77.8649 306.638 83.1622 292.39 84.1892C289.6 85.5676 286.782 86.9189 283.938 88.2432ZM383.216 41.1351C382.674 41.1351 382.16 41.1622 381.618 41.1892C382.566 41.5135 383.487 41.8649 384.435 42.2162C384.381 42.1892 384.354 42.1351 384.3 42.0811C384.544 41.8378 384.842 41.5135 385.112 41.1892C384.462 41.1892 383.839 41.1351 383.189 41.1351H383.216ZM381.13 41.1892C355.505 41.8649 343.613 54.6487 330.665 66.1351C331.342 67.3784 331.993 68.6216 332.643 69.8649C341.013 62.5135 348.679 54.6487 359.541 49.8108C360.679 45.9459 363.55 44.3514 369.076 46.3784C369.699 46.2703 370.349 46.2162 370.972 46.1892C374.196 45.5676 377.717 45.1892 381.537 45.1081C381.889 44.2973 381.808 43.0541 381.13 41.1622V41.1892Z" fill="#1774FF"/>
</svg>
