<svg width="180" height="150" viewBox="0 0 180 150" fill="none" xmlns="http://www.w3.org/2000/svg">
<path d="M-161.961 93.8378C-171.957 102.054 -183.713 108.865 -203.189 108.865C-252.219 108.865 -252.3 65.6216 -299 65.6216V61.6757C-249.97 61.6757 -249.889 104.919 -203.189 104.919C-186.313 104.919 -175.532 99.2703 -166.322 92.0541C-164.859 92.6487 -163.424 93.2432 -161.961 93.8378ZM177.752 85.1622C177.995 84.8919 178.158 84.6216 178.266 84.3514C135.332 83.3243 132.731 44.8919 90.4465 41.4324C91.1779 42.0541 91.9905 42.7838 92.9928 43.6216C92.0988 43.7838 91.3675 43.9459 90.6903 44.1081C92.2343 44.6757 93.7783 45.2162 95.3224 45.7838C95.2411 45.8649 95.1869 45.9459 95.1057 46.027C110.383 48.6216 119.918 56.5946 129.183 64.9459C130.781 65.4054 132.406 65.8919 133.869 66.1892C133.327 66.6757 132.785 67.1892 132.271 67.7027C142.943 77.2973 154.131 86.5946 174.149 88.1351C175.557 87.2703 176.776 86.2973 177.725 85.1892L177.752 85.1622ZM94.4826 62.4054C95.2682 62.7568 95.9725 63.1351 96.5413 63.6216C96.9206 63.9459 95.7558 65.3514 94.9431 66.5135C101.607 67.6216 107.187 69.7297 112.09 72.4865C113.119 71.3784 114.067 70.3784 114.988 69.4324C109.246 66.1351 102.636 63.5946 94.4826 62.4324V62.4054ZM63.873 69.027C66.2839 67.4054 67.557 66.4324 67.7737 66.5676C68.2342 66.8378 68.6947 67.1351 69.1552 67.4054C73.5976 66.2973 78.5548 65.6487 84.2162 65.6487C86.8167 65.6487 89.2546 65.8108 91.5842 66.0541C89.8777 65.4324 88.1982 64.8108 86.4916 64.1892C87.3585 63.5135 88.2253 62.8378 89.4172 61.8919C87.7377 61.7838 86.004 61.7027 84.1891 61.7027C76.0627 61.7027 69.2906 62.9189 63.4125 64.8919C63.3042 65.0811 63.1958 65.2432 63.0875 65.4324C63.0062 65.5946 62.2748 65.6757 61.2184 65.6757C37.435 74.8378 28.7668 97.2162 2.78925 103.351C3.08722 103.703 3.41226 104.081 3.7373 104.378C2.05783 105.081 0.378387 106.351 -1.27399 106.405C-8.5607 106.595 -15.9016 106.757 -23.08 106.216C-26.791 105.946 -30.2312 104.135 -33.7798 103C-32.8317 102.649 -31.8836 102.324 -30.8813 101.946C-59.5677 92.1622 -66.2314 61.7027 -107.378 61.7027C-136.823 61.7027 -148.607 77.2973 -163.451 89.7568C-162.042 90.3514 -160.661 90.973 -159.279 91.6216C-154.376 87.3784 -149.771 82.9189 -144.733 78.9189L-144.652 78.6757C-144.652 78.6757 -144.435 78.6216 -144.327 78.5946C-135.117 71.3514 -124.308 65.6757 -107.378 65.6757C-102.719 65.6757 -98.5476 66.1081 -94.7281 66.8919C-94.2406 66.2703 -93.753 65.6757 -93.3196 65.0811C-90.1503 65.5135 -88.2541 65.7838 -86.385 66.027C-87.2247 66.8108 -88.0374 67.6216 -88.85 68.4054C-74.71 73 -65.8793 82.5676 -55.8837 91.2703C-55.6129 90.6757 -55.1253 89.7568 -54.6648 88.6757C-52.8228 91.1622 -50.2765 93.0811 -50.5745 94.4865C-50.6557 94.8649 -50.7099 95.1892 -50.737 95.5406C-48.4345 97.3243 -46.0507 99.027 -43.4774 100.568C-43.3148 100.297 -43.1252 100.027 -42.9356 99.7297C-41.9604 100.703 -41.2832 101.378 -40.6331 102.081C-33.0755 106.216 -23.8655 108.946 -11.5946 108.946C29.0647 108.946 36.0535 79.2432 63.873 69.0811V69.027ZM56.7488 28.7838C56.0175 28.4324 55.1235 28.1622 54.1484 27.9189C41.6066 34.8919 33.2634 45.4324 22.1573 53.3243C23.0241 54.1892 23.9722 55.2703 24.8932 56.4324C36.812 47.8649 45.4531 36.5405 59.1055 29.9459C58.3199 29.5676 57.5344 29.1622 56.7488 28.7838ZM-272.995 25.8378C-274.512 25.1622 -276.083 24.5405 -277.736 23.973C-277.79 24.0541 -277.871 24.1351 -277.925 24.2162C-276.3 24.6757 -274.621 25.4865 -272.995 25.8649V25.8378ZM-258.07 35.3784C-258.476 35.0541 -258.882 34.7297 -259.289 34.4054C-258.964 34.7838 -258.612 35.1622 -258.259 35.5946C-258.205 35.5135 -258.151 35.4595 -258.097 35.4054L-258.07 35.3784ZM-298.973 41.1351V45.0811C-252.273 45.0811 -252.192 88.3243 -203.162 88.3243C-154.133 88.3243 -154.051 45.0811 -107.351 45.0811C-77.6355 45.0811 -66.7732 62.5946 -50.1952 75.3514C-49.0033 73.8649 -49.193 72.2432 -49.5722 70.5946C-65.2562 57.9459 -76.7958 41.1081 -107.351 41.1081C-113.636 41.1081 -119.08 41.8378 -123.956 43.0541C-125.609 44.1351 -126.448 44.6487 -127.18 44.6216C-127.505 44.6216 -127.884 44.5135 -128.263 44.3514C-157.681 54.3784 -164.236 84.3514 -203.135 84.3514C-212.562 84.3514 -220.092 82.5676 -226.512 79.7568C-229.031 79.4595 -231.523 79.1892 -234.043 78.8919C-232.986 78.4595 -231.957 78.027 -230.927 77.5946C-252.977 65.4595 -262.214 41.1351 -298.973 41.1351ZM-298.973 0.27027C-297.564 1.05405 -296.237 1.97297 -294.801 2.72973C-293.501 3.40541 -292.038 3.89189 -290.63 4.45946C-290.711 4.45946 -290.765 4.45946 -290.846 4.45946C-253.302 9 -249.402 44.8649 -207.361 47.1081C-204.11 45.5946 -201.347 44.2973 -198.584 43.1081C-200.074 43.2162 -201.591 43.2703 -203.162 43.2703C-249.862 43.2973 -249.943 0.0540541 -298.973 0.0540541V0.27027ZM-107.378 106.73C-76.1186 106.73 -65.7438 126.108 -47.5677 138.946C-45.1297 139 -42.6647 139.216 -40.308 138.703C-53.9063 130.838 -62.737 118.405 -76.7416 110.405C-76.9041 110.351 -77.0396 110.297 -77.1479 110.162C-85.0035 105.757 -94.4844 102.757 -107.351 102.757C-154.81 102.757 -156.408 143.27 -198.801 145.865C-199.776 146.324 -200.724 146.784 -201.726 147.216C-202.322 147.459 -203.677 146.649 -204.95 145.946C-226.864 145.405 -238.295 135.108 -249.835 124.676C-249.998 124.865 -250.133 125.054 -250.268 125.27C-250.891 124.622 -251.867 124.054 -252.002 123.324C-252.029 123.162 -252.002 122.973 -251.975 122.757C-263.406 112.514 -275.65 102.757 -298.946 102.757V106.703C-252.246 106.703 -252.165 149.946 -203.135 149.946C-154.105 149.946 -154.051 106.703 -107.324 106.703L-107.378 106.73ZM156.433 145.027C155.377 143.432 154.7 141.676 153.724 140.054C130.618 128.189 121.787 102.784 84.1891 102.784C35.1595 102.784 35.1054 146.027 -11.5946 146.027C-20.2628 146.027 -27.3057 144.541 -33.3735 142.108C-33.9423 143.351 -34.6195 144.514 -35.3509 145.703C-28.8226 148.351 -21.1296 150 -11.5946 150C37.435 150 37.4891 106.757 84.1891 106.757C122.492 106.757 129.453 135.865 157.761 146.297C157.246 145.919 156.758 145.541 156.433 145.054V145.027ZM-107.541 86.1892C-107.622 84.973 -107.785 83.4595 -107.08 82.7027C-106.918 82.5405 -106.809 82.3784 -106.674 82.2432C-106.918 82.2432 -107.135 82.2432 -107.351 82.2432C-113.527 82.2432 -118.918 82.9189 -123.712 84.1351C-123.008 84.5135 -122.168 84.9459 -121.112 85.4324C-125.907 86.3243 -127.992 87.0541 -130.024 86.973C-130.376 86.973 -130.728 86.7838 -131.053 86.5405C-143.974 91.7297 -152.399 100.811 -161.771 108.919C-159.415 109.378 -156.76 108.162 -153.997 107.514C-143.704 98.2162 -133.546 89.027 -115.911 86.7568C-116.859 86.3243 -117.618 85.1892 -118.457 84.4054C-117.157 83.8378 -115.857 82.8108 -114.557 82.8108C-113.419 82.8108 -112.308 83.973 -109.627 85.4865C-110.954 85.8378 -111.956 86.1622 -112.796 86.4324C-111.117 86.2973 -109.356 86.2162 -107.541 86.2162V86.1892ZM54.3922 94.1351C53.8775 93.5676 53.3899 92.7297 53.4712 92.5676C54.0942 91.5135 55.0423 90.5135 56.0987 90.027C56.3967 89.8919 57.1281 90.7838 58.2928 91.9459C65.2545 88.4324 73.4893 86.1622 84.1891 86.1622C130.889 86.1622 130.943 129.405 179.973 129.405V125.459C134.221 125.459 133.192 83.973 87.0876 82.2973C86.7896 82.3784 86.4916 82.4324 86.1937 82.4595C84.46 82.5946 82.0762 83.2162 80.8031 82.2973C35.1324 84.2432 33.9948 125.459 -11.6217 125.459C-14.9535 125.459 -18.0145 125.216 -20.9129 124.811C-20.9942 124.811 -21.0483 124.811 -21.1296 124.784C-45.8882 121.189 -55.7754 103.784 -72.7326 92.3514C-73.166 92.6487 -73.5994 92.946 -74.0057 93.2432C-74.7913 93.8108 -76.5249 93.3514 -77.8251 93.3514C-77.0938 92.4865 -76.5791 91.2162 -75.631 90.7838C-75.5227 90.7297 -75.4414 90.7027 -75.3601 90.6487C-82.1863 86.4865 -90.2857 83.4324 -100.796 82.4865C-100.769 82.7838 -100.742 83.0811 -100.742 83.4595C-101.961 84.3784 -103.098 85.3784 -104.372 86.2162C-101.284 86.3513 -98.3851 86.6487 -95.7033 87.1622C-95.6492 87.0811 -95.595 87.027 -95.5137 86.946C-95.4324 87.0541 -95.3512 87.1351 -95.2699 87.2432C-60.272 94 -56.0192 129.378 -11.6488 129.378C23.9722 129.378 33.7509 106.568 54.338 94.0811L54.3922 94.1351ZM-167.622 115.459C-168.083 115.297 -168.625 115.027 -169.166 114.73C-177.78 120.892 -187.993 125.459 -203.162 125.459C-223.695 125.459 -235.207 117.108 -245.826 107.73C-246.205 107.486 -246.503 107.27 -246.639 107C-259.858 95.2432 -272.02 82.1892 -298.946 82.1892V86.1351C-277.248 86.1351 -265.627 95.4595 -254.467 105.459C-254.305 105.568 -254.169 105.703 -254.007 105.811C-242.819 115.919 -231.984 126.541 -211.749 128.919C-212.237 128.405 -212.724 127.865 -213.212 127.351C-212.399 126.73 -211.316 125.432 -210.855 125.595C-209.338 126.135 -208.038 127.189 -206.115 128.405C-206.521 128.703 -206.9 129 -207.279 129.297C-205.925 129.378 -204.571 129.405 -203.135 129.405C-185.365 129.405 -174.042 123.73 -164.589 116.486C-165.618 116.135 -166.62 115.784 -167.595 115.432L-167.622 115.459ZM-249.049 44.2162C-251.054 43.6216 -252.625 43.7838 -253.979 44.3514C-241.302 55.7297 -229.058 67.8108 -203.162 67.8108C-154.133 67.8108 -154.051 24.5676 -107.351 24.5676C-86.4934 24.5676 -74.9267 33.2162 -64.1727 42.7568C-63.8206 42.6216 -63.4955 42.5676 -63.1704 42.5676C-60.9492 42.6487 -58.8092 43.5676 -56.6422 44.1351C-57.509 45 -58.4029 46.3243 -59.2427 47.1622C-51.4142 54.1892 -43.3148 61.0811 -31.6669 64.8378C-30.8001 64.3243 -30.0146 63.973 -29.2019 63.8649C-28.0371 63.6757 -26.466 65.4865 -25.0845 66.4054C-25.1387 66.4324 -25.1928 66.4595 -25.247 66.4865C-21.1296 67.2973 -16.633 67.7838 -11.5675 67.7838C0.757599 67.7838 9.96759 65.0541 17.6335 60.973C17.0105 59.7568 15.5748 58.9459 13.8683 58.2973C7.01498 61.6757 -1.08438 63.8378 -11.5675 63.8378C-22.0506 63.8378 -29.8791 61.7297 -36.6512 58.4595C-37.8972 58.7297 -39.1703 59.027 -40.4164 59.3243C-39.685 58.7568 -38.9807 58.1892 -38.2764 57.6216C-61.0576 45.6486 -70.0238 20.5946 -107.351 20.5946C-112.363 20.5946 -116.832 21.0541 -120.922 21.8649C-120.922 21.9459 -120.868 22.027 -120.868 22.1351C-120.083 27.8649 -125.013 24.3784 -127.234 25.4595C-127.857 25.7568 -128.832 25.8919 -129.401 25.5676C-129.862 25.3243 -130.268 25.027 -130.701 24.7297C-149.663 32.2162 -158.981 48.0811 -175.451 57.1351C-175.532 57.2973 -175.559 57.4324 -175.641 57.5946C-176.778 59.6216 -181.871 61.8649 -184.715 61.6216C-185.094 61.5946 -185.392 61.5135 -185.744 61.4595C-190.783 62.973 -196.471 63.8649 -203.162 63.8649C-225.943 63.8649 -237.618 53.5676 -249.32 43.027C-249.239 43.4324 -249.131 43.8108 -249.049 44.2162ZM180 146.027C175.368 146.027 171.223 145.595 167.431 144.811C166.537 146.432 164.587 147.514 162.636 147.811C167.702 149.162 173.391 149.973 180 149.973V146.027ZM141.156 28.8378C141.156 28.8378 141.02 28.8649 140.939 28.8649C138.853 28.9459 136.767 28.0541 133.056 27.1892C134.384 26.2162 135.44 25.3243 136.28 24.6216C128.776 17.9189 121.544 10.8649 111.765 6.02703C110.898 6.45946 110.221 6.72973 109.787 6.51351C108.677 6 107.864 5 107.079 3.94595C100.74 1.51351 93.3179 0 84.2162 0C73.1643 0 64.6044 2.21622 57.4261 5.62162C57.8324 6.10811 58.0761 6.40541 58.0219 6.32432C58.0219 7.72973 58.0219 8.89189 58.0219 9.89189C65.0378 6.2973 73.3539 3.94595 84.2433 3.94595C122.519 3.94595 129.481 33 157.734 43.4865C157.625 42.4865 157.3 41.3243 156.65 40C157.517 40 158.465 39.8919 159.44 39.7838C152.289 37.1351 146.492 33.1892 141.183 28.8108L141.156 28.8378ZM9.0466 41.6216C9.34457 42.2973 9.37164 43.1351 9.31747 44.027C12.1617 43.0541 14.8164 41.9189 17.2814 40.6216C14.5997 40.8378 11.8908 41.0541 9.20911 41.2703C9.29037 41.3784 9.37164 41.4324 9.45291 41.5405C9.31747 41.5676 9.18204 41.5946 9.0737 41.6216H9.0466ZM-298.973 24.5405C-293.203 24.5405 -288.138 25.2162 -283.614 26.3784C-286.594 24.4865 -289.411 22.4054 -292.688 20.8919C-294.693 20.7297 -296.779 20.6216 -298.973 20.6216V24.5676V24.5405ZM-194.954 44.027C-196.119 45.0541 -197.311 46.1081 -198.503 47.1351C-192.95 46.8108 -188.074 45.8649 -183.686 44.5135C-183.577 44.2162 -183.442 43.8919 -183.306 43.5946C-182.683 42.1081 -181.464 40.7568 -180.327 39.0811C-177.997 39.6216 -175.966 40.0811 -174.069 40.5135C-151.18 28.3514 -142.376 4.02703 -107.378 4.02703C-70.3759 4.02703 -62.6558 31.1622 -36.6512 42.4324C-36.1365 42.2703 -35.6218 42.1351 -35.1071 42.0541C-30.8001 41.3784 -26.1139 42.4054 -21.6172 42.6487C-21.4818 42.6487 -21.3734 42.6487 -21.238 42.6487C-58.5655 37.1622 -61.9515 0.027027 -107.405 0.027027C-152.859 0.027027 -156.408 39.1351 -196.715 42.9459C-196.173 43.2432 -195.496 43.7027 -194.954 43.973V44.027ZM45.3176 13.2432C36.6765 19.9189 29.5523 27.8649 20.4778 33.9189C22.1844 34.2703 23.8638 34.6757 25.3807 35.1622C25.4891 35.1892 25.5975 35.2432 25.7058 35.2973C32.5862 30.2432 38.4102 24.2703 44.83 18.9459C44.8842 17.0541 45.0468 15.1622 45.3176 13.2703V13.2432ZM-11.5946 47.2703C-8.6149 47.2703 -5.85187 47.1081 -3.19724 46.8108C-3.87445 46.1622 -4.55164 45.5135 -5.22885 44.8378C-0.461334 43.7568 4.30618 42.7027 9.0737 41.6216C9.01953 41.5135 8.9924 41.4054 8.93823 41.2973C9.0195 41.2973 9.12784 41.2973 9.20911 41.2973C8.88406 40.8649 8.53192 40.5135 8.17978 40.1622C2.57254 42.1351 -3.84738 43.3243 -11.5675 43.3243C-11.9467 43.3243 -12.2718 43.3243 -12.651 43.2973C-13.4366 44.5676 -14.1679 45.8919 -14.8993 47.1892C-13.8158 47.2432 -12.7323 47.2703 -11.5946 47.2703ZM123.684 75.2973C123.359 75.4865 123.061 75.7027 122.736 75.8919C121.76 76.4595 120.325 76.5676 118.483 76.5405C134.356 88 144.731 104.811 170.329 108.216C170.14 108.108 169.923 107.973 169.734 107.865C171.521 107.27 173.363 106.216 175.124 106.189C176.749 106.189 178.375 106.243 179.973 106.27V104.892C150.745 104.892 139.774 87.9459 123.657 75.2703L123.684 75.2973ZM-272.02 30.8919C-270.774 31.5405 -269.582 32.2432 -268.417 32.973C-269.555 32.2703 -270.72 31.2432 -272.02 30.8919ZM178.537 47.2162C178.808 46.9189 179.079 46.6216 179.377 46.2703C179.594 46.3514 179.783 46.4054 180 46.4865V43.2703C175.151 43.2703 170.844 42.7838 166.889 41.9459C167.485 43.2162 167.756 44.7568 167.837 46.2162C171.115 46.7838 174.691 47.1081 178.537 47.1892V47.2162ZM172.903 63.4595C169.815 63.1351 166.943 62.6216 164.289 61.9189C158.329 60.973 152.451 59.6757 146.573 58.4595C153.941 63.1892 162.664 66.7297 174.474 67.5676C175.666 65.6486 175.232 64.2973 172.93 63.4595H172.903ZM80.0717 20.7027C79.1236 21.2432 78.0401 21.8649 76.7941 22.5405C75.1688 23.4324 72.2704 24.2432 72.1078 25.2432C72.1078 25.3784 72.0537 25.5135 72.0266 25.6487C75.7106 24.9459 79.7467 24.5405 84.1891 24.5405C92.6406 24.5405 99.5482 25.973 105.508 28.2973C105.887 28.1351 106.212 28.0541 106.51 28.0541C107.702 28.1081 109.489 29.2973 109.869 30.2432C119.783 35.1892 127.07 42.5946 134.979 49.5405C135.413 49.5135 135.846 49.4595 136.28 49.5135C137.905 49.6757 139.368 51.1351 141.968 52.6757C141.264 53.0541 140.614 53.4595 140.045 53.8108C140.289 54 140.505 54.1892 140.749 54.3784C140.776 54.3514 140.83 54.3243 140.858 54.2973C141.426 53.8649 142.077 53.5135 142.808 53.1892C142.564 52.7297 142.375 52.3514 142.402 52C142.402 51.4865 142.293 50.8919 142.212 50.2973C126.42 37.6216 114.934 20.6216 84.1891 20.6216C82.7805 20.6216 81.399 20.6757 80.0446 20.7297L80.0717 20.7027ZM-47.7573 77.1622C-40.6873 82.1892 -32.4525 86.1892 -21.3463 87.7027C-18.4479 86.5135 -15.7932 85.4054 -13.1928 84.3514C-26.5472 84.0541 -36.001 80.1622 -43.9649 74.8108C-45.3464 75.2162 -46.5654 76.0541 -47.7573 77.1892V77.1622ZM-15.0619 88.2432C-13.9242 88.2973 -12.7865 88.3513 -11.5946 88.3513C8.61316 88.3513 20.5049 81 30.7713 72.3514C29.0377 72 27.304 71.6487 25.5704 71.2703C17.2272 77.8649 7.63803 83.1622 -6.61035 84.1892C-9.40042 85.5676 -12.2176 86.9189 -15.0619 88.2432ZM84.2162 41.1351C83.6745 41.1351 83.1598 41.1622 82.618 41.1892C83.5661 41.5135 84.4871 41.8649 85.4352 42.2162C85.381 42.1892 85.3539 42.1351 85.2997 42.0811C85.5435 41.8378 85.8415 41.5135 86.1124 41.1892C85.4623 41.1892 84.8392 41.1351 84.1891 41.1351H84.2162ZM82.1304 41.1892C56.505 41.8649 44.6133 54.6487 31.6652 66.1351C32.3424 67.3784 32.9925 68.6216 33.6426 69.8649C42.0129 62.5135 49.6788 54.6487 60.5412 49.8108C61.6789 45.9459 64.5503 44.3514 70.0762 46.3784C70.6992 46.2703 71.3494 46.2162 71.9724 46.1892C75.1959 45.5676 78.7173 45.1892 82.5367 45.1081C82.8889 44.2973 82.8076 43.0541 82.1304 41.1622V41.1892Z" fill="#1774FF"/>
</svg>
