<svg width="32" height="32" viewBox="0 0 32 32" fill="none" xmlns="http://www.w3.org/2000/svg">
<path d="M21.5867 2.66663L10.4134 2.66663C5.56002 2.66663 2.66669 5.55996 2.66669 10.4133L2.66669 21.5733C2.66669 26.44 5.56002 29.3333 10.4134 29.3333L21.5734 29.3333C26.4267 29.3333 29.32 26.44 29.32 21.5866L29.32 10.4133C29.3334 5.55996 26.44 2.66663 21.5867 2.66663ZM23 16.44C23 16.9866 22.5467 17.44 22 17.44C21.4534 17.44 21 16.9866 21 16.44V12.4133L10.7067 22.7066C10.5067 22.9066 10.2534 23 10 23C9.74669 23 9.49335 22.9066 9.29335 22.7066C8.90669 22.32 8.90669 21.68 9.29335 21.2933L19.5867 11H15.56C15.0134 11 14.56 10.5466 14.56 9.99996C14.56 9.45329 15.0134 8.99996 15.56 8.99996L22 8.99996C22.5467 8.99996 23 9.45329 23 9.99996V16.44Z" fill="#0267FF"/>
</svg>
