<svg width="128" height="218" viewBox="0 0 128 218" fill="none" xmlns="http://www.w3.org/2000/svg">
<path d="M26.6253 45.0962C26.8082 44.9125 26.965 44.6762 27.2001 44.5712C27.5921 44.3875 28.2714 44.0987 28.4543 44.23C28.8985 44.545 29.3166 44.8862 29.7346 45.2274C32.6349 41.605 35.7704 38.2189 39.141 35.0165C38.8013 35.0165 38.4878 35.0165 38.1481 34.9902C38.2526 34.859 38.3833 34.5965 38.4878 34.6228C38.8536 34.6228 39.2716 34.5965 39.6636 34.5178C46.5355 28.1129 54.2696 22.6531 62.7092 18.322C62.3957 18.217 62.056 17.9545 61.9253 17.692C61.7947 17.4557 62.0821 16.852 62.3434 16.6158C64.6689 14.4896 67.0466 12.3896 69.3982 10.2635C69.9208 9.79097 70.4172 9.23973 70.7569 8.636C70.8091 8.55725 70.8353 8.45226 70.8614 8.34726C72.2462 7.53353 73.3698 6.56231 74.2843 5.51234C65.6879 8.39976 57.588 12.3109 50.089 17.1408C42.5116 22.0231 35.6659 27.7717 29.5778 34.229C30.0482 34.229 30.4924 34.1503 30.9627 34.1503C31.3023 34.1503 31.642 34.5965 31.9817 34.859C31.6159 35.0952 31.2762 35.4365 30.8843 35.5152C30.022 35.6465 29.1075 35.6202 28.2191 35.6465C27.8795 36.0402 27.5398 36.434 27.2001 36.8277C27.5659 36.8539 27.984 36.8277 28.4543 36.7752C29.4472 36.8277 30.7275 36.8277 31.9817 36.9589C32.243 36.9589 32.452 37.3789 32.6872 37.6152C32.3736 37.7202 31.9033 38.0089 31.7465 37.9039C29.9436 37.0114 28.6111 37.5627 27.2785 38.6651C26.8343 39.0326 26.0766 39.5051 25.6585 39.4001C25.4756 39.3476 25.3188 39.2689 25.1359 39.1901C23.7511 40.8438 22.4447 42.55 21.1644 44.2825C21.7653 44.5975 22.4185 44.8862 22.9934 45.2274C23.0456 45.2274 22.915 45.4637 22.7321 45.7787C23.0979 45.5949 23.4898 45.3849 23.8295 45.4374C24.2214 45.4899 24.9269 46.1724 24.8485 46.3299C24.5872 46.8549 24.0647 47.2749 23.4114 47.9836C23.0195 47.1961 22.7582 46.6974 22.4969 46.1987C22.4185 46.3299 22.3402 46.4874 22.2618 46.6449C21.6085 46.1199 20.5111 45.2537 20.5111 45.2537C17.0099 50.1098 13.9005 55.2547 11.2354 60.662C11.4183 60.6095 11.6012 60.5308 11.758 60.5833C12.777 60.7933 12.3328 61.6857 12.3589 62.3157C12.3589 62.5782 12.1238 62.8669 11.7841 63.5757C11.3922 62.6307 11.1309 62.0007 10.8696 61.397C10.5822 61.9745 10.3209 62.5782 10.0596 63.1557C9.66767 64.0219 9.27574 64.8619 8.8838 65.7544C8.59639 66.4106 8.3351 67.0406 8.07381 67.6968C7.70801 68.563 7.36833 69.4555 7.02866 70.348C6.7935 70.9517 6.55834 71.5554 6.34931 72.1592C5.93125 73.3404 5.53931 74.4954 5.14738 75.7028C5.04287 76.0441 4.91222 76.3853 4.80771 76.7003C4.85996 76.7265 4.96448 76.7265 5.01674 76.7528C5.95737 77.2778 6.42769 78.984 7.13317 79.0102C8.30897 79.0102 9.58928 78.5377 10.6606 79.194C10.9741 79.3777 11.2877 79.5615 11.5751 79.7189C15.2331 67.5131 21.1121 56.2521 28.7417 46.4349C27.984 45.9887 27.2785 45.5424 26.573 45.0962H26.6253ZM47.7896 20.6057C48.5213 20.7894 49.2529 20.9469 49.9583 21.1306C51.0819 21.3931 52.7019 21.0781 52.6757 22.6531C51.4738 22.5744 50.2719 22.6006 49.0961 22.4169C48.5213 22.3119 48.1032 21.7869 47.5545 21.5506C47.1364 21.3669 46.64 21.2881 46.1958 21.1831C46.7184 20.9994 47.2148 20.8419 47.7896 20.6319V20.6057ZM40.9178 26.5117C41.5187 25.8818 41.4926 26.3017 41.8845 26.8792C42.8513 28.3492 42.6684 29.8716 42.6161 31.4203C42.6161 31.7353 42.2503 32.0503 42.0936 32.3128C41.6755 32.1816 41.2574 32.2078 41.179 32.0241C40.552 30.8166 39.7942 29.6354 39.4807 28.3492C39.3762 27.8767 40.3952 27.1155 40.9439 26.538L40.9178 26.5117ZM9.95509 72.2117C9.66767 71.9754 9.32799 71.7129 9.01445 71.4242C9.40638 71.3192 9.79831 71.1092 10.1641 71.188C10.5561 71.2404 10.9219 71.5554 11.3138 71.7654C10.948 71.8967 10.556 72.0017 9.98122 72.2117H9.95509ZM16.6963 62.2632C16.6441 62.5782 16.3567 62.8669 16.1999 63.1557C16.0954 62.9194 16.017 62.6307 15.8602 62.4469C14.9718 61.397 15.6512 60.3995 15.8863 59.3495C15.5467 59.7958 15.1025 60.1108 14.4231 60.1633C13.2212 60.2683 13.0383 59.6645 13.1167 58.9558C13.0122 56.9871 13.6654 55.6746 14.5538 55.5959C14.998 55.5696 16.226 57.2496 16.3567 58.1158C16.5134 58.0371 16.7486 58.2471 16.7486 58.3521C16.7486 59.0608 16.7486 59.7958 16.7486 60.5045C16.7486 61.082 16.8008 61.6595 16.6963 62.237V62.2632ZM1.67225 89.9824C1.75063 89.5362 1.98579 88.1975 2.03805 87.9612C2.5345 88.2762 3.10933 88.5649 3.63191 88.8799C2.97869 89.2474 2.32547 89.5887 1.69837 89.9824H1.67225ZM63.5192 36.0927C63.676 36.5127 63.8066 36.9589 63.9634 37.3789C63.4408 37.3789 62.7615 37.6152 62.4479 37.4052C62.0299 37.1427 61.455 36.9589 60.9586 36.7489C60.4099 37.1164 59.8612 37.5102 59.3125 37.8777C59.4431 38.3764 59.1034 39.3214 58.9728 40.0301C58.9728 40.0301 59.1818 40.1351 59.2602 40.1876C60.0179 40.3188 60.7757 40.3976 61.5073 40.5813C61.7947 40.6338 62.0299 40.7913 62.265 40.9488C64.2508 39.5839 66.315 38.2976 68.4053 37.1164C66.9421 36.4077 65.3221 36.1715 63.5976 36.0665C63.3886 34.6753 64.3292 34.6228 65.6879 34.859C67.3601 35.1477 67.3079 35.069 68.4314 33.6515C68.6404 33.389 69.7117 33.2578 70.1037 33.4153C71.9588 34.2553 71.9849 34.334 72.7688 32.8378C73.0824 32.2341 73.6311 31.3153 74.0491 32.1028C74.3888 32.7591 74.833 33.2053 75.3556 33.5728C76.9494 32.8641 78.5955 32.1816 80.2417 31.5516C80.0065 31.2891 79.8758 31.0266 79.902 30.7641C79.9542 30.4229 80.4246 30.0816 80.9994 29.3729C81.4958 29.8979 81.94 30.3704 82.3842 30.8166C83.6123 30.3966 84.8665 30.0029 86.1206 29.6616C86.591 29.0842 87.0874 28.5067 87.5839 27.9029C88.7074 28.1917 89.4913 28.4017 90.249 28.5854C94.5341 27.6142 98.9499 26.958 103.47 26.6692C103.47 26.6167 103.522 26.5642 103.549 26.5117C105.587 27.2467 107.363 23.6506 109.793 26.1967C110.238 26.6692 114.183 26.1442 114.366 25.6455C116.378 20.5269 118.808 25.2518 120.95 25.173C120.924 25.1468 120.898 25.0943 120.872 25.068L121.029 25.173C121.76 26.0655 123.354 26.9842 122.884 27.798C129.259 28.9267 135.374 30.8166 141.148 33.3365C141.409 33.389 141.697 33.4415 141.958 33.4678C141.958 33.5465 141.958 33.599 141.958 33.6778C143.865 34.544 145.747 35.4365 147.576 36.434C147.262 34.7015 145.041 33.7565 144.649 32.0766C144.545 31.6566 144.858 31.1579 144.963 30.6854C145.355 30.8166 145.851 30.8691 146.243 31.0266C139.058 27.483 131.297 24.9368 123.145 23.5456C123.197 23.5981 123.276 23.6243 123.328 23.6768C122.988 23.7818 122.492 24.0706 122.309 23.9918C121.891 23.7818 121.499 23.4931 121.055 23.2043C116.953 22.6006 112.772 22.2856 108.513 22.2856C91.6861 22.2856 75.9827 27.168 62.7092 35.594C62.9966 35.7515 63.2579 35.8827 63.5453 36.0402L63.5192 36.0927ZM134.459 27.1155C135.06 27.1155 136.053 26.8005 135.922 27.9817C135.896 28.3229 135.269 28.7954 134.877 28.8217C134.354 28.8742 133.806 28.5329 132.212 28.0604C133.623 27.4305 134.041 27.1417 134.459 27.1155ZM111.492 23.9131C111.962 23.9131 112.459 24.0443 112.929 24.1493C112.641 24.2806 112.354 24.5168 112.04 24.543C111.57 24.5955 111.074 24.4905 110.029 24.438C110.865 24.1231 111.178 23.9131 111.492 23.9393V23.9131ZM102.66 23.5981C102.843 23.7293 103.183 23.9131 103.157 24.0181C103.104 24.5955 102.921 25.1468 102.739 26.013C102.085 25.5143 101.511 25.173 101.563 25.0943C101.876 24.5693 102.294 24.0706 102.66 23.5718V23.5981ZM92.3654 26.5905C92.7574 26.643 93.1232 26.958 93.5151 27.168C93.1493 27.2992 92.7574 27.4042 92.1825 27.6142C91.8951 27.378 91.5554 27.1155 91.2419 26.8267C91.6338 26.7217 92.0258 26.5117 92.3916 26.5905H92.3654ZM159.569 19.1619C160.431 17.9807 159.856 17.377 159.098 16.852C159.151 16.852 159.255 16.852 159.281 16.9045C160.091 17.5082 160.797 18.2432 161.555 18.9257C161.189 19.2407 160.588 19.8707 160.509 19.8182C160.196 19.6344 159.83 19.4769 159.438 19.3457C159.464 19.2932 159.49 19.2407 159.517 19.1882L159.569 19.1619ZM123.224 13.3871C122.936 13.7809 122.701 14.0433 122.649 14.3321C122.623 14.4896 122.962 14.7521 123.119 14.9358C123.38 14.6996 123.694 14.5158 123.851 14.2271C123.903 14.1221 123.642 13.8071 123.354 13.3609C123.537 13.3346 123.72 13.2559 123.929 13.2559C124.112 13.2559 124.243 13.2559 124.426 13.2821C124.608 13.4134 124.713 13.5446 124.817 13.6759C124.896 13.6234 124.948 13.5709 125.026 13.4921C126.124 13.9383 126.882 14.9621 126.882 16.1433C126.882 16.327 126.882 16.4583 126.855 16.642C126.62 18.0595 125.392 19.1094 123.955 19.1094C123.798 19.1094 123.642 19.0832 123.485 19.057C121.891 18.7682 120.794 17.272 121.055 15.6708C121.238 14.4896 122.152 13.6496 123.224 13.3609V13.3871ZM98.767 12.4684C98.767 12.4684 98.976 12.4421 99.0805 12.4421C100.518 12.4421 101.798 13.5971 101.955 15.1196C101.955 15.2508 101.981 15.3296 101.981 15.4346C101.981 16.8783 100.831 18.1645 99.368 18.322C99.2373 18.3482 99.1589 18.3482 99.0805 18.3482C98.9238 18.3482 98.7931 18.2957 98.6625 18.2695C98.7931 18.0857 98.9238 17.902 98.9499 17.692C99.0283 17.1408 98.976 16.537 99.0022 15.9595C99.0022 15.2508 99.0283 14.5158 99.0022 13.8071C99.0022 13.7021 98.7931 13.4921 98.7147 13.5184C98.5057 13.5709 98.1399 13.7809 98.166 13.8334C98.4535 15.1983 96.938 16.5108 98.0877 17.8757C98.166 17.9807 98.2183 18.0857 98.2706 18.217C97.147 17.902 96.2586 16.957 96.1541 15.697C95.9712 14.0958 97.147 12.6521 98.767 12.4946V12.4684ZM114.444 15.0408C114.392 16.642 113.086 17.8757 111.518 17.8757C109.819 17.8495 108.539 16.4845 108.591 14.8571C108.591 14.5158 108.67 14.1746 108.8 13.8596C108.957 13.9646 109.166 14.0958 109.375 14.2796C109.61 13.8858 109.924 13.5971 109.872 13.4134C109.819 13.2559 109.532 13.0721 109.323 13.0196C109.846 12.4159 110.629 12.0222 111.492 12.0222C113.19 12.0747 114.444 13.3871 114.444 14.9358V15.0671V15.0408ZM78.3865 6.06358C79.1181 6.64106 79.7975 7.29729 80.6075 8.05852C80.0849 8.50476 79.7452 8.7935 79.7452 8.7935C79.0397 8.11102 78.3865 7.42854 77.7072 6.71981C77.9423 6.48356 78.3604 6.03733 78.3865 6.06358ZM83.8736 18.1382C83.4816 16.5633 84.4745 14.9883 86.0161 14.5683C86.2252 14.5158 86.4603 14.4896 86.6693 14.4896C88.0019 14.4896 89.2038 15.4083 89.5696 16.7733C89.6219 16.9833 89.648 17.2195 89.648 17.4295C89.648 18.7682 88.7335 20.0019 87.3748 20.3169C87.1397 20.3694 86.9306 20.3957 86.6955 20.3957C85.3629 20.3957 84.1871 19.4769 83.8736 18.1382ZM58.9467 40.1613C58.9467 40.1613 59.1557 40.1876 59.2602 40.2138C59.9657 40.5813 60.645 40.9751 61.4028 41.2901C61.5334 41.3426 61.6902 41.2901 61.8731 41.2638C59.7305 42.76 57.6663 44.3612 55.6805 46.0412C55.6805 45.8837 55.6805 45.7262 55.7328 45.5162C55.2364 45.4637 54.7399 45.2537 54.2696 45.3587C53.747 45.4637 53.3028 45.8049 52.728 46.0937C53.3812 46.6187 53.6948 47.1174 53.8515 47.6161C41.8061 58.4571 32.9746 72.8154 28.9769 89.0637C28.6111 89.1162 28.2453 89.1687 27.8795 89.1949C27.0695 89.2474 26.2072 88.7749 25.3711 88.5125C25.8153 88.0137 26.155 87.305 26.7559 87.0425C29.1337 86.045 27.6966 85.6513 26.4685 85.1526C26.2334 85.0476 25.9982 84.9688 25.763 84.8638C31.0933 66.3318 42.4332 50.3461 57.5096 39.1901C58.006 39.4789 58.5025 39.7676 58.9989 40.0301C58.9989 40.0563 58.9989 40.1088 58.9989 40.1351L58.9467 40.1613ZM149.039 191.488C149.039 191.488 148.934 191.436 148.882 191.409C148.725 191.331 148.569 191.252 148.412 191.2C148.699 191.226 148.96 191.304 149.222 191.409C149.143 191.436 149.091 191.462 149.013 191.514L149.039 191.488ZM185.671 164.032C185.671 164.032 185.776 164.032 185.828 164.032C186.063 164.268 186.272 164.557 186.508 164.767C186.272 164.819 186.037 164.872 185.776 164.872C185.227 164.872 184.652 164.714 184.13 164.373C183.973 164.268 183.816 164.137 183.686 163.979C184.13 163.979 184.548 164.005 184.992 164.032C185.201 164.032 185.41 164.005 185.619 163.979C185.619 163.979 185.671 164.005 185.671 164.032ZM0.261288 116.442C0.156773 114.972 0.0783865 113.449 0.0522577 111.953C1.77676 112.268 3.50126 112.609 5.2519 112.793C5.93125 112.872 6.68898 112.741 7.42059 112.583C7.44672 113.397 7.49898 114.21 7.55123 115.024C7.18543 115.392 6.84576 115.969 6.50608 116.809C6.32318 117.308 2.37772 117.833 1.93353 117.36C1.3587 116.73 0.809994 116.494 0.287417 116.442H0.261288ZM200.251 130.38C200.068 130.38 199.859 130.354 199.703 130.327C198.109 130.039 197.09 128.464 197.403 126.863C197.691 125.471 198.945 124.5 200.304 124.5C200.513 124.5 200.696 124.5 200.852 124.553C202.237 124.815 203.204 126.101 203.204 127.466C203.204 127.676 203.204 127.86 203.152 128.018C202.89 129.409 201.636 130.38 200.251 130.38ZM171.353 178.626C171.823 179.177 172.032 179.86 172.032 180.516C172.032 180.884 171.98 181.199 171.849 181.514C171.666 181.986 171.405 182.432 170.987 182.747C170.412 183.22 169.785 183.456 169.106 183.456C168.27 183.456 167.46 183.088 166.859 182.406C166.624 182.143 166.441 181.802 166.362 181.487C165.944 180.385 166.232 179.099 167.225 178.259C167.747 177.786 168.426 177.576 169.106 177.576C169.942 177.576 170.752 177.891 171.353 178.574V178.626ZM188.702 162.378C188.624 162.798 188.467 163.244 188.206 163.585C187.997 163.874 187.762 164.084 187.501 164.294C186.926 164.137 186.377 164.11 185.828 164.058C185.698 163.979 185.672 163.979 185.619 163.979C184.966 163.218 184.104 163.297 183.268 163.428C183.085 163.113 182.98 162.745 182.928 162.404C182.823 161.695 182.954 160.96 183.398 160.304C183.947 159.464 184.862 159.018 185.828 159.018C186.377 159.018 186.952 159.175 187.448 159.517C188.284 160.068 188.755 160.987 188.755 161.958C188.755 162.115 188.755 162.247 188.729 162.404L188.702 162.378ZM211.173 107.753C210.807 108.121 210.259 108.383 209.658 108.619C209.658 106.519 209.553 104.446 209.423 102.398C209.971 101.27 210.494 100.141 211.043 99.0122C213.734 100.508 214.753 98.1984 216.321 97.096C216.451 98.4084 216.556 99.7209 216.66 101.033C216.66 101.27 216.686 101.506 216.713 101.742C216.791 103.186 216.869 104.656 216.895 106.126C216.425 106.257 215.903 106.414 215.171 106.572C215.04 106.309 214.91 106.073 214.805 105.837C214.596 105.417 213.107 105.443 212.218 105.259C211.879 106.099 211.826 107.123 211.147 107.779L211.173 107.753ZM170.726 167.628C170.308 167.995 169.524 168.468 169.106 168.363C168.217 168.179 167.46 167.628 166.65 167.234C167.146 166.866 167.564 166.263 168.139 166.131C169.236 165.869 170.438 165.869 171.902 165.738C172.346 165.738 172.842 165.764 173.391 165.79C173.835 165.291 174.227 164.819 174.619 164.347C174.514 164.399 174.436 164.425 174.332 164.452C173.443 164.583 172.503 164.557 171.614 164.609C171.092 164.609 170.543 164.767 170.046 164.662C169.707 164.609 169.367 164.504 169.027 164.425C168.609 164.872 168.191 165.318 167.773 165.764C166.545 167.076 165.239 168.336 163.906 169.596C158.863 174.242 153.193 178.285 147.105 181.566C144.806 182.8 142.402 183.928 139.998 184.952C134.041 187.446 127.744 189.257 121.186 190.307C120.767 191.173 119.801 191.331 118.625 191.252C118.155 191.226 117.789 191.042 117.684 190.78C117.057 190.858 116.404 190.911 115.777 190.963C115.751 191.042 115.698 191.094 115.672 191.173C115.62 191.094 115.568 191.042 115.516 190.963C113.19 191.173 110.865 191.278 108.487 191.278C102.843 191.278 97.3299 190.727 92.0258 189.598C90.9022 189.388 89.7787 189.126 88.6813 188.837C84.5529 187.84 80.5552 186.501 76.7143 184.847C75.6691 184.427 74.624 183.955 73.5788 183.482C72.8211 183.088 72.0633 182.721 71.3056 182.327C71.3578 182.485 71.384 182.642 71.4624 182.773C71.6714 183.272 72.5598 183.561 73.2391 184.007C72.612 184.768 72.1678 185.871 71.4101 186.081C70.3388 186.37 70.0514 185.32 70.0514 184.427C70.0253 182.983 69.5811 181.802 67.935 181.146C67.2295 180.857 67.125 180.516 67.3601 180.175C61.8731 176.972 56.778 173.14 52.2054 168.783C52.4144 169.57 51.2386 170.725 50.0106 171.381C50.1935 171.381 50.4025 171.565 50.7422 171.723C50.4548 171.985 50.2719 172.274 50.0628 172.274C49.9061 172.274 49.697 172.143 49.5664 172.011C55.5238 177.629 62.265 182.432 69.6333 186.186C70.4433 186.606 71.2533 186.947 72.0895 187.341C72.1417 187.341 72.2201 187.341 72.2724 187.341C72.7166 187.656 73.2391 187.918 73.7878 188.155C77.4981 189.835 81.3652 191.226 85.3368 192.328C85.2061 192.197 85.0755 192.092 84.9448 191.961C84.9448 191.961 85.3106 191.593 85.7026 191.173C86.0684 191.724 86.3819 192.197 86.6693 192.669C87.3487 192.853 88.0019 193.011 88.6813 193.194C89.7787 193.457 90.9022 193.693 92.0258 193.903C97.1731 194.848 102.399 195.478 107.808 195.504C108.356 195.163 108.905 194.769 109.532 194.638C111.858 194.113 114.209 193.772 116.378 193.378C117.658 193.588 118.703 193.693 117.998 194.979C129.364 193.719 140.103 190.255 149.692 184.978C151.573 183.928 153.481 182.826 155.258 181.592C158.498 179.492 161.581 177.182 164.481 174.662C163.828 174.137 163.227 173.665 162.678 173.219C162.913 173.035 163.305 172.615 163.384 172.668C164.115 173.009 164.821 173.376 165.5 173.77C168.035 171.513 170.438 169.124 172.685 166.578C172.006 166.761 171.353 167.155 170.726 167.68V167.628ZM55.4715 173.796C55.4193 174.085 55.158 174.347 54.8706 174.82C54.0344 174.085 53.3812 173.508 52.7541 172.93C53.3028 172.563 53.8777 171.854 54.3741 171.88C55.4976 171.985 55.6283 172.93 55.4976 173.796H55.4715ZM157.949 178.967C156.904 179.125 155.806 178.967 154.996 180.017C154.892 180.122 154.134 179.886 154.003 179.624C153.873 179.335 154.003 178.757 154.212 178.442C154.657 177.707 155.205 176.972 155.937 178.206C156.459 177.839 156.982 177.445 157.661 176.946C158.132 177.366 158.498 177.655 158.837 177.97C158.55 178.337 158.288 178.967 157.949 179.02V178.967ZM197.011 142.507C196.698 142.507 196.358 142.455 196.045 142.35C194.503 141.825 193.719 140.118 194.242 138.622C194.66 137.415 195.783 136.627 197.011 136.627C197.299 136.627 197.639 136.654 197.952 136.785C199.154 137.205 199.938 138.334 199.938 139.541C199.938 139.856 199.886 140.197 199.755 140.512C199.337 141.72 198.213 142.507 197.011 142.507ZM216.948 107.569C216.948 108.016 216.974 108.462 216.974 108.908C216.974 110.746 216.895 112.557 216.791 114.368C214.596 113.948 213.185 113.213 215.85 109.879C216.373 109.223 215.929 108.042 215.38 106.939C216.033 107.202 216.53 107.386 216.948 107.569ZM192.151 154.057C191.707 154.057 191.237 153.978 190.819 153.768C189.382 153.033 188.781 151.248 189.512 149.831C189.565 149.752 189.617 149.699 189.669 149.621C189.669 149.673 189.721 149.752 189.748 149.804C190.009 149.437 190.27 149.069 190.531 148.702C191.002 148.387 191.55 148.203 192.099 148.203C192.543 148.203 193.014 148.334 193.432 148.518C194.189 148.886 194.712 149.542 194.921 150.303C194.425 150.198 193.85 150.198 193.353 150.067C192.648 149.909 191.916 149.726 191.185 149.542C190.61 149.752 190.087 149.909 189.591 150.093C190.061 150.224 190.558 150.277 190.95 150.461C191.498 150.723 191.942 151.248 192.491 151.327C193.301 151.458 194.137 151.484 194.999 151.537C194.947 151.852 194.869 152.167 194.738 152.429C194.242 153.427 193.197 154.031 192.151 154.031V154.057ZM190.401 120.169C190.166 120.09 189.957 119.985 189.774 119.854C189.277 123.555 188.546 127.178 187.579 130.721C188.049 131.482 188.284 132.244 187.997 132.795C187.736 133.294 187.213 133.687 186.638 133.871C186.063 135.656 185.436 137.389 184.757 139.121C185.358 139.541 185.698 140.302 185.489 141.09C185.41 141.431 185.071 141.72 185.044 142.061C184.914 143.163 184.862 144.24 184.757 145.342C184.182 144.581 183.607 143.846 183.059 143.085C180.393 148.886 177.101 154.346 173.234 159.359C173.574 159.858 173.887 160.147 173.809 160.304C173.6 160.698 173.234 161.118 172.79 161.275C172.581 161.354 172.241 161.17 171.902 161.013C171.536 161.485 170.229 163.034 169.968 163.349C171.431 163.192 172.921 163.113 174.41 163.087C174.697 163.087 174.959 163.375 175.22 163.612C175.56 163.218 175.873 162.798 176.187 162.378C184.783 151.458 190.767 138.439 193.301 124.211C192.752 124.369 192.204 124.5 191.655 124.658C191.603 124.29 191.368 123.844 191.524 123.555C191.995 122.689 192.752 122.374 193.615 122.269C193.641 122.033 193.693 121.77 193.719 121.534C193.353 121.613 192.988 121.691 192.622 121.744C192.439 121.167 191.786 120.615 190.401 120.169ZM181.622 150.277C181.23 150.041 180.812 149.883 180.576 149.594C180.498 149.516 180.864 149.148 181.047 148.912C181.543 149.174 182.013 149.411 182.51 149.673C182.275 149.831 182.04 149.988 181.622 150.277ZM99.7076 199.573C101.223 199.73 102.373 200.99 102.373 202.46C102.373 202.592 102.347 202.67 102.347 202.775C102.216 204.298 100.936 205.453 99.4464 205.453C99.368 205.453 99.2373 205.453 99.1589 205.427C97.6435 205.269 96.5199 204.009 96.5199 202.487V202.224C96.6767 200.702 97.957 199.573 99.4464 199.573H99.7076ZM115.489 195.163C114.261 195.268 113.033 195.321 111.805 195.373C112.824 195.032 114.392 194.953 115.489 195.163ZM87.1397 197.526C87.3487 197.526 87.5839 197.526 87.7929 197.578C88.1064 197.657 88.4461 197.788 88.7074 197.972C89.5435 198.497 90.04 199.416 90.04 200.439C90.04 200.675 90.0138 200.912 89.9616 201.148C89.7787 201.909 89.3345 202.539 88.7335 202.933C88.2632 203.222 87.6884 203.405 87.1397 203.405C86.9045 203.405 86.6955 203.379 86.4603 203.353C84.8926 202.959 83.9258 201.384 84.2655 199.836C84.579 198.444 85.8071 197.552 87.1658 197.552L87.1397 197.526ZM20.485 172.536C20.9031 173.114 21.3211 173.691 21.7392 174.269C22.9672 173.245 24.5088 172.904 26.2334 172.51C27.1479 172.3 27.984 171.88 28.8201 171.434C18.0289 157.574 10.7128 140.827 8.25671 122.584C7.23769 123.24 6.32318 123.739 5.69609 123.581C3.97158 123.135 2.32547 122.479 0.731607 121.77C0.88838 123.03 1.04515 124.264 1.25418 125.498C1.25418 125.576 1.25418 125.629 1.28031 125.708C2.09031 126.154 2.9003 126.679 3.78868 126.889C3.94545 126.915 3.94545 127.65 4.02384 128.044C3.73642 127.991 3.44901 127.965 3.13546 127.913C2.61288 127.834 2.11644 127.729 1.59386 127.624C2.82191 134.659 4.70319 141.483 7.21156 147.993C7.81252 147.521 8.54413 147.127 8.85768 147.258C9.71993 147.626 10.3731 148.229 10.4515 149.437C10.5038 150.014 10.3993 150.356 10.2164 150.566C11.0525 150.329 11.4706 150.172 11.8886 150.146C12.0977 150.146 12.3067 150.382 12.5157 150.513C12.3328 150.802 12.2022 151.327 11.967 151.353C11.5489 151.432 11.1048 151.248 10.6606 151.196C10.138 151.143 9.61541 151.143 9.09283 151.117C9.30187 151.012 9.48477 150.907 9.64154 150.802C9.53703 150.802 9.43251 150.802 9.32799 150.802C8.93606 150.802 8.62252 150.776 8.28284 150.723C8.85768 152.114 9.48477 153.506 10.1119 154.897C10.1902 155.081 10.2686 155.238 10.347 155.396C10.9219 156.603 11.4967 157.784 12.1238 158.965C12.2544 159.202 12.3589 159.438 12.4896 159.674C13.0905 160.803 13.7176 161.932 14.3447 163.034C14.4754 163.27 14.606 163.48 14.7367 163.717C15.4944 165.003 16.2783 166.289 17.0621 167.549C17.4279 167.549 17.9766 167.943 17.9766 168.179C17.9766 168.284 17.8721 168.415 17.7154 168.546C18.3947 169.57 19.0479 170.541 19.7273 171.513C19.9624 171.171 20.1976 170.83 20.4328 170.489C20.5895 170.699 20.7724 170.909 20.8508 171.145C21.086 171.854 20.8508 172.248 20.4066 172.458L20.485 172.536ZM17.8721 159.018C17.5063 159.097 17.0883 158.808 16.2783 158.519C16.9054 158.152 17.1666 157.889 17.4279 157.889C17.8199 157.889 18.2118 158.02 18.6037 158.099C18.3686 158.414 18.1595 158.965 17.8721 159.018ZM157.479 185.53C158.027 185.188 158.654 185.057 159.281 185.11C159.255 185.162 159.203 185.241 159.177 185.293C159.125 185.477 159.36 185.766 159.464 186.002C159.699 185.766 159.935 185.53 160.17 185.293C160.718 185.503 161.189 185.897 161.528 186.448C161.842 186.921 161.999 187.498 161.999 188.05C161.999 188.995 161.528 189.966 160.666 190.517C160.17 190.832 159.595 190.963 159.072 190.963C158.106 190.963 157.165 190.491 156.59 189.625C155.728 188.26 156.12 186.422 157.479 185.53ZM112.014 205.82C110.42 205.847 109.062 204.613 109.01 202.985C109.01 201.305 110.238 199.993 111.805 199.94C113.478 199.94 114.784 201.174 114.836 202.775C114.836 204.429 113.608 205.768 112.014 205.82ZM150.999 193.536C151.051 193.719 151.051 193.929 151.051 194.113C151.051 195.216 150.398 196.266 149.379 196.791C148.96 196.974 148.542 197.053 148.15 197.053C147.027 197.053 146.008 196.423 145.485 195.373C145.067 194.481 145.12 193.536 145.564 192.748C145.538 192.879 145.511 193.011 145.564 193.116C146.034 194.271 146.922 194.848 148.124 194.559C148.255 194.533 148.386 194.559 149.117 194.507C149.248 194.428 150.084 194.244 150.371 193.798C150.711 193.798 150.894 193.693 150.999 193.562V193.536ZM127.221 201.069C127.247 201.253 127.247 201.384 127.247 201.568C127.247 202.959 126.255 204.245 124.817 204.482C124.635 204.508 124.504 204.508 124.321 204.508C122.936 204.508 121.708 203.51 121.421 202.067C121.159 200.465 122.205 198.943 123.798 198.654C123.981 198.628 124.112 198.628 124.295 198.628C125.68 198.628 126.96 199.626 127.195 201.069H127.221ZM153.82 40.3451C152.227 39.2689 150.58 38.2714 148.882 37.3002C149.927 37.1952 150.633 38.7701 151.991 38.5339C152.88 38.3764 153.977 38.8489 153.82 40.3451ZM139.293 197.762C139.371 198.051 139.423 198.366 139.423 198.628C139.423 199.914 138.64 201.069 137.359 201.463C137.098 201.542 136.811 201.594 136.497 201.594C135.269 201.594 134.067 200.807 133.701 199.547C133.231 197.972 134.093 196.344 135.609 195.872C137.15 195.373 138.796 196.239 139.293 197.762ZM180.132 169.78C180.733 170.331 180.994 171.066 180.994 171.801C180.994 172.431 180.759 173.035 180.367 173.56C180.158 173.508 179.923 173.455 179.714 173.376C178.512 173.061 177.284 172.746 176.056 172.484C175.821 172.431 175.507 172.536 175.22 172.589C174.985 171.644 175.194 170.62 175.873 169.859C176.317 169.36 176.918 169.071 177.519 168.94C177.702 168.914 177.885 168.888 178.042 168.888C178.721 168.888 179.427 169.15 180.002 169.649C180.054 169.701 180.08 169.728 180.132 169.806V169.78ZM66.4195 26.4855C66.4195 27.1417 66.1843 27.7717 65.7663 28.2967C65.5834 27.378 65.2698 26.3542 65.6095 25.7243C65.7663 25.4355 65.8969 25.173 65.9753 24.963C65.9753 24.9893 66.0276 25.0418 66.0537 25.068C66.315 25.5143 66.4456 26.013 66.4456 26.4855H66.4195ZM52.9632 30.2916C53.8515 30.2916 54.7399 30.7116 55.3147 31.4991C55.7067 32.0241 55.8634 32.6278 55.8634 33.2578C55.8634 34.1503 55.4454 35.0427 54.6877 35.594C54.5048 35.7252 54.2957 35.804 54.0867 35.909C53.956 35.8565 53.8254 35.8302 53.6948 35.7777C53.3028 35.6727 52.8586 35.699 52.4144 35.6727C52.4928 35.8302 52.5712 35.9877 52.6235 36.1452C51.8135 36.0665 51.0819 35.6727 50.5593 34.964C50.4287 34.7803 50.3241 34.5965 50.2458 34.4128C50.5332 33.8615 50.507 33.389 50.0106 32.9166C50.0367 32.5491 50.1674 32.1816 50.3241 31.8403C50.3764 31.9453 50.4287 32.0503 50.507 32.1553C50.6116 31.9716 50.7161 31.8141 50.9512 31.4203C50.899 31.3416 50.8467 31.2628 50.7945 31.2104C50.9251 31.0791 51.0296 30.9741 51.1864 30.8691C51.709 30.4754 52.3361 30.2654 52.937 30.2654L52.9632 30.2916ZM64.8779 29.0579C64.4337 29.2942 63.9634 29.4254 63.4669 29.4254C62.4218 29.4254 61.4289 28.9004 60.9063 27.9029C60.5144 27.1942 60.4621 26.4067 60.6712 25.698C62.1866 25.5143 63.7805 25.698 64.2508 26.2492C64.7995 26.9055 65.2176 27.693 65.6618 28.4542C65.4527 28.6904 65.1914 28.9267 64.904 29.0842L64.8779 29.0579ZM35.0388 169.308C34.5685 169.255 33.9936 169.019 33.6278 169.15C33.4449 169.229 33.262 169.308 33.0791 169.386C33.053 169.334 33.0007 169.308 32.9746 169.281C32.3475 168.494 32.1907 167.523 32.4259 166.63C32.6349 166.84 32.8439 167.076 33.1314 167.365C33.1575 166.473 33.3143 165.895 33.1575 165.764C33.0791 165.711 33.0007 165.659 32.9485 165.606C33.0791 165.449 33.2359 165.265 33.4188 165.134C33.9414 164.714 34.5946 164.478 35.2478 164.478C36.1101 164.478 36.9462 164.872 37.5471 165.606C37.9652 166.131 38.2004 166.788 38.2004 167.444C38.2004 168.31 37.8084 169.15 37.0768 169.754C36.5542 170.174 35.901 170.384 35.2478 170.384C35.0126 170.384 34.7514 170.331 34.5162 170.279C34.7252 170.095 34.8559 169.623 35.0388 169.334V169.308ZM74.8069 18.2432C75.643 18.2432 76.4007 18.6107 76.9494 19.2407C76.8972 19.1882 76.8449 19.1619 76.7926 19.1357C76.1133 18.8207 75.3817 18.532 74.6501 18.2695C74.7023 18.2695 74.7546 18.2695 74.8069 18.2695V18.2432ZM12.8815 122.216C12.7509 121.245 13.1167 120.327 13.7438 119.723C14.4231 119.487 14.815 119.25 14.998 119.014C15.1286 118.988 15.2592 118.935 15.3899 118.909C15.5467 118.883 15.6773 118.883 15.8079 118.883C17.245 118.883 18.4992 119.959 18.7082 121.429C18.7344 121.56 18.7344 121.691 18.7344 121.823C18.7344 123.266 17.6631 124.553 16.1999 124.736C16.0431 124.763 15.9386 124.763 15.7818 124.763C14.3709 124.763 13.0905 123.686 12.8815 122.243V122.216ZM15.4944 134.869C15.0763 133.294 15.9908 131.692 17.5586 131.246C17.8199 131.194 18.055 131.167 18.3163 131.167C19.5966 131.167 20.7724 132.007 21.1382 133.294C21.1905 133.556 21.2166 133.792 21.2166 134.055C21.2166 135.367 20.3805 136.549 19.1002 136.89C18.8389 136.969 18.5776 137.021 18.3163 137.021C17.036 137.021 15.8602 136.155 15.4944 134.869ZM18.7344 86.8325C18.7344 86.8325 18.865 86.885 18.9434 86.9112C18.7082 86.9637 18.4731 87.0425 18.2379 87.0425C17.9766 87.0425 17.7154 87.0162 17.4802 86.9112C16.9837 86.78 16.5396 86.5175 16.1999 86.1763C16.1737 85.5725 16.1215 84.9426 16.1215 84.3388C16.1215 83.8926 16.2783 83.4463 16.3828 83.0001C17.1928 83.1576 18.055 83.2364 18.8128 83.5251C18.9695 83.5776 18.8911 84.4963 18.5776 84.7851C17.6892 85.5988 17.5063 86.465 18.7605 86.8325H18.7344ZM35.0649 53.601C34.4117 53.601 33.7585 53.391 33.2359 52.971C32.034 51.9997 31.7988 50.2935 32.661 49.0336C33.3665 48.8498 34.072 48.7448 34.5162 48.3511C34.673 48.2199 34.7252 48.0099 34.7775 47.7736C34.882 47.7736 34.9604 47.7474 35.0649 47.7474C35.7181 47.7474 36.3452 47.9574 36.8678 48.3774C37.5994 48.9811 37.9913 49.8211 37.9913 50.7135C37.9913 51.3435 37.7823 51.9998 37.3642 52.5247C36.7894 53.2335 35.9272 53.6272 35.0649 53.6272V53.601ZM72.612 19.2407C73.814 19.8182 75.0159 20.3694 76.2962 20.7894C76.662 20.8944 77.1584 20.6582 77.6288 20.5007C77.681 20.7369 77.7333 20.9731 77.7333 21.2094C77.7333 22.3906 77.0278 23.4931 75.8781 23.9393C75.5123 24.0968 75.1727 24.1493 74.8069 24.1493C73.6311 24.1493 72.5336 23.4406 72.0633 22.2594C71.6714 21.1831 71.9327 20.0544 72.6382 19.2669L72.612 19.2407ZM41.3097 43.4162C40.1861 42.2613 40.2123 40.3976 41.3881 39.2689C41.9368 38.7176 42.6945 38.4289 43.4261 38.4289C44.1577 38.4289 44.9677 38.7176 45.5164 39.3214C46.0651 39.8726 46.3526 40.6338 46.3526 41.3688C46.3526 42.1038 46.0651 42.9175 45.4642 43.4687C44.9155 44.02 44.1577 44.3087 43.4261 44.3087C42.6945 44.3087 41.8845 44.02 41.3097 43.4162ZM70.9921 14.5421C70.5479 14.7258 70.1037 14.8833 69.6856 15.0671C69.8162 14.5946 69.973 14.1221 70.0775 13.6496C70.3911 13.9383 70.7046 14.2271 70.9921 14.5421ZM176.082 174.006C175.925 173.875 175.821 173.744 175.69 173.586C175.847 173.665 176.004 173.744 176.187 173.796C176.84 174.032 177.937 174.111 178.094 174.479C178.12 174.557 178.173 174.636 178.199 174.715C178.146 174.715 178.068 174.715 178.016 174.715C177.336 174.715 176.631 174.479 176.056 173.98L176.082 174.006ZM101.458 0.183745C99.7599 0.288742 98.0877 0.419988 96.4154 0.629982C96.2064 0.629982 95.9712 0.68248 95.7622 0.70873C93.9332 0.918724 92.1041 1.18122 90.3013 1.49621C90.249 1.49621 90.1706 1.49621 90.1184 1.52246C88.1848 1.8637 86.2513 2.25743 84.3439 2.67742C84.2394 2.96616 84.0303 3.3074 83.8213 3.3599C81.1823 4.12113 81.1562 4.12113 81.6787 6.8773C81.8355 7.66478 82.2274 8.39976 82.3581 9.18724C82.4103 9.58097 82.0707 10.3947 81.9923 10.3685C80.0326 10.0535 78.2559 12.4684 76.1133 10.6047C74.6762 9.34473 74.1798 11.8122 72.9778 11.8909C73.1869 12.4159 73.422 12.9409 73.6311 13.4659C79.6407 11.2347 85.9116 9.58097 92.3916 8.55725C92.3393 8.05852 92.3916 7.63853 93.2277 7.53353C93.4367 7.53353 93.698 7.69103 93.9332 7.79603C93.8548 7.97977 93.7764 8.16352 93.698 8.34726C94.9783 8.16352 96.2325 8.00602 97.5389 7.84852C97.3038 7.71728 97.0686 7.55978 96.8596 7.42854C97.0425 7.24479 97.1993 7.00855 97.4344 6.90355C97.8264 6.71981 98.5057 6.43106 98.6886 6.56231C99.1589 6.90355 99.6292 7.24479 100.073 7.61228C101.275 7.50728 102.451 7.40229 103.653 7.34979C103.418 7.29729 103.209 7.24479 103.026 7.16604C102.556 7.00855 102.111 6.77231 101.667 6.58856C101.772 6.37857 101.85 6.16857 101.955 5.95858C102.268 5.90608 102.608 5.77483 102.869 5.82733C104.097 6.08982 105.299 6.43106 106.527 6.71981C107.154 6.8773 107.781 7.0348 108.409 7.19229C108.461 7.19229 108.487 7.19229 108.539 7.19229C115.62 7.19229 122.518 7.92727 129.181 9.31848C129.573 9.21348 129.991 9.10849 130.383 9.00349C130.383 9.10849 130.435 9.21348 130.435 9.31848C131.167 9.31848 131.924 9.21348 132.63 9.37098C133.022 9.44973 133.309 10.001 133.649 10.316C135.086 10.7359 136.549 11.1559 138.013 11.6022C137.673 11.3397 137.307 11.1034 136.967 10.8409C137.594 10.316 138.195 9.76472 139.136 8.97724C139.58 9.68597 140.129 10.1847 140.103 10.6309C140.051 11.1297 139.763 11.6022 139.476 12.1009C141.383 12.7046 143.238 13.3871 145.093 14.1221C145.459 13.9646 145.851 13.8071 146.217 13.6496C146.191 13.9383 146.217 14.2533 146.191 14.5421C147.55 15.0933 148.882 15.6708 150.189 16.2745C151.809 15.7495 153.324 14.6208 154.996 14.3846C155.493 14.3058 156.12 14.8046 156.747 15.3558C157.191 15.4608 157.609 15.6445 158.001 16.012C158.079 16.0908 158.184 16.1433 158.262 16.222C159.308 13.8858 159.621 13.5446 161.424 14.6471C161.502 14.5683 161.581 14.4633 161.659 14.3583C162.051 14.6208 162.443 14.9096 162.809 15.1721C162.652 15.1721 162.469 15.1983 162.312 15.1983C162.809 15.5133 163.148 15.6183 163.462 15.6183C164.69 16.4845 165.892 17.3245 167.12 18.1907C166.728 18.9257 166.545 19.4507 166.519 19.8969C166.597 20.0019 166.571 20.0544 166.519 20.1069C166.571 20.8157 167.12 21.3406 168.348 21.7081C168.583 21.7869 168.766 22.8631 168.557 23.0206C168.139 23.3356 167.172 23.5981 166.885 23.3881C165.683 22.4956 164.559 22.2331 163.488 22.3119C163.07 22.6793 163.044 23.0468 163.41 23.5193C164.899 24.4905 166.336 25.488 167.773 26.5117C168.244 26.3542 168.426 26.5117 168.531 27.063C169.628 27.8767 170.7 28.7167 171.771 29.5829C172.424 28.7954 173.313 28.0867 174.201 27.2992C175.429 29.4779 177.127 28.1392 178.93 27.8767C179.531 27.7979 180.968 29.3992 181.047 30.3179C181.099 30.8429 179.165 32.0241 178.146 32.0241C176.579 32.0503 174.985 31.4203 173.522 30.8954C173.469 30.8954 173.391 30.8429 173.339 30.8166C174.514 31.8141 175.664 32.8116 176.814 33.8615C177.754 33.5728 178.721 33.284 179.688 33.0478C179.74 33.0478 180.132 33.7565 180.08 33.809C179.453 34.2028 178.8 34.5965 178.042 35.0165C178.826 35.7515 179.61 36.5127 180.367 37.2739C180.629 36.8539 180.838 36.5652 181.021 36.3027C181.909 37.1689 182.85 37.9827 183.607 38.9276C183.686 39.0326 183.215 39.4789 182.823 39.8726C184.182 41.3426 185.515 42.865 186.795 44.44C187.762 44.1775 188.729 43.9412 189.695 43.7312C189.826 43.705 190.035 43.9937 190.401 44.3087C189.512 44.8337 188.702 45.4112 187.84 45.7787C188.154 46.1987 188.493 46.5924 188.807 47.0124C188.99 46.5662 189.591 46.1987 189.983 45.8049C190.688 46.3299 191.394 46.8549 192.308 47.5374C191.446 46.3562 190.923 45.6474 190.427 44.965C191.028 44.7025 191.655 44.4662 192.256 44.2037C192.308 44.3087 192.387 44.3875 192.465 44.4925C192.961 44.2562 193.353 44.0462 193.432 44.125C194.111 44.5975 194.738 45.1487 195.391 45.6474C195.052 45.7524 194.555 46.0412 194.372 45.9624C193.85 45.6999 193.353 45.3324 192.779 44.9125C193.04 45.2799 193.301 45.6737 193.458 46.0674C193.562 46.3562 193.118 46.7762 192.57 47.6949C192.779 47.8524 192.961 47.9836 193.197 48.1674C192.047 48.4036 191.211 48.7711 191.028 48.6136C190.741 48.3774 190.27 48.3249 189.8 48.2724C195.809 56.3571 200.617 65.3869 204.04 75.0728C204.641 74.1541 205.242 73.2354 205.738 72.4742C207.254 71.8179 208.273 71.3979 209.292 70.9517C208.482 72.1329 207.855 73.4716 206.81 74.4166C206.209 74.9678 205.085 75.0203 204.118 75.2303C204.772 77.094 205.373 78.984 205.921 80.9264C206.392 81.1627 206.888 81.4252 207.358 81.6614C207.019 81.9501 206.705 82.2389 206.366 82.5014C207.411 86.36 208.221 90.2974 208.796 94.3398C209.684 93.6836 210.52 93.0011 211.278 92.1611C211.722 91.6886 212.898 91.5836 213.734 91.3211C213.499 91.9511 213.368 92.6073 213.028 93.1848C212.715 93.7098 212.009 94.1298 211.8 94.6548C211.565 95.2848 211.722 95.9672 211.696 96.6235C212.349 96.5185 213.081 96.5447 213.655 96.3085C214.544 95.9672 215.38 95.5735 216.242 95.206C215.589 89.9299 214.544 84.7588 213.159 79.7189C212.114 75.9653 210.912 72.3954 209.527 68.9043C209.475 68.7468 209.396 68.5893 209.344 68.4318C208.9 67.3031 208.43 66.1743 207.933 65.0456C207.698 65.2556 207.463 65.4394 207.228 65.6231C207.097 65.3869 206.81 65.0719 206.888 64.9669C207.097 64.7044 207.332 64.4419 207.567 64.2057C203.857 55.9634 199.154 48.2461 193.615 41.2376C193.589 41.2113 193.562 41.1588 193.51 41.1326C192.752 40.1613 191.969 39.2164 191.159 38.2714C191.106 38.1926 191.054 38.1402 190.976 38.0614C188.65 35.3315 186.168 32.7066 183.581 30.2129C183.346 30.0029 183.137 29.7666 182.902 29.5567C182.118 28.8217 181.334 28.0867 180.524 27.3517C180.289 27.1417 180.08 26.958 179.845 26.7742C178.329 25.4355 176.762 24.1493 175.168 22.8893C174.906 22.6793 174.619 22.4694 174.358 22.2594C173.6 21.6819 172.842 21.1306 172.085 20.5794C171.614 20.2382 169.21 18.532 168.453 18.0332C167.878 17.6395 167.277 17.272 166.676 16.9045C165.552 16.1695 164.403 15.4871 163.253 14.8046C162.574 14.4108 161.868 13.9908 161.163 13.5971C160.509 13.2296 159.83 12.8621 159.177 12.5209C158.445 12.1272 155.702 10.7359 155.075 10.4472C153.794 9.84347 152.488 9.23973 151.181 8.6885C150.685 8.47851 150.162 8.26851 149.666 8.05852C148.699 7.66478 147.759 7.27104 146.766 6.90355C146.191 6.69356 145.616 6.48356 145.015 6.27357C143.996 5.90608 142.951 5.56484 141.932 5.2236C141.462 5.0661 140.991 4.90861 140.521 4.77736C139.058 4.33113 137.594 3.91114 136.105 3.5174C135.661 3.4124 135.217 3.3074 134.746 3.17616C133.597 2.88742 132.473 2.62492 131.324 2.38868C130.801 2.28368 130.305 2.17869 129.782 2.07369C128.475 1.8112 127.143 1.57495 125.81 1.36496C125.549 1.31246 125.262 1.25996 125 1.23371C123.406 0.997471 121.813 0.787477 120.193 0.629982C119.748 0.577483 119.278 0.551234 118.834 0.498736C117.606 0.393739 116.352 0.288742 115.098 0.209994C114.627 0.183745 114.131 0.157495 113.66 0.131246C112.014 0.0524985 110.342 0 108.67 0C106.658 0 104.646 0.0524985 102.66 0.183745C102.321 0.183745 101.955 0.236243 101.615 0.262492L101.458 0.183745ZM88.42 8.24226C88.1326 7.61228 87.8451 7.29729 87.8451 6.95605C87.8451 5.80108 88.7335 6.14232 89.3345 6.14232C89.7003 6.14232 90.04 6.43106 90.4058 6.56231C89.8048 7.06105 89.2038 7.58603 88.42 8.24226ZM149.039 11.1297C149.77 11.3659 150.371 11.9434 151.417 12.6259C150.607 12.8884 150.267 13.1246 150.058 13.0459C149.248 12.7309 148.49 12.3371 147.706 11.9697C148.15 11.6547 148.751 11.0247 149.039 11.1297ZM0.0522577 111.769C0.0522577 110.824 0 109.853 0 108.908C0 107.307 0.0522577 105.732 0.130644 104.157C0.156773 103.501 0.209031 102.845 0.23516 102.188C0.287417 101.375 0.339675 100.561 0.418061 99.7471C0.600963 97.7522 0.809994 95.7572 1.07128 93.7623C2.06418 93.3686 2.82191 92.9223 2.42998 91.6624C2.3516 91.4261 2.74353 91.0586 2.9003 90.7699C4.80771 92.6073 5.8006 90.2187 7.26382 90.0087C8.43961 89.8512 8.30897 89.3524 7.05479 88.5125C6.6106 88.2237 6.21866 87.6462 6.24479 87.2262C6.24479 86.9112 7.00253 86.5963 7.49898 86.36C7.99542 86.1238 9.30187 86.5963 8.62252 85.3888C7.76026 83.8663 9.43251 84.2076 10.4254 84.0501C9.95509 85.9138 9.53703 87.83 9.17122 89.7462C8.96219 89.8249 8.77929 90.0349 8.75316 90.4549C8.75316 90.6386 8.80542 90.8749 8.93606 91.0849C7.91704 96.886 7.3422 102.818 7.3422 108.908C7.3422 109.302 7.3422 109.722 7.3422 110.116C6.50608 110.116 5.4348 110.404 3.18772 110.719C3.03095 110.772 1.56773 111.244 0.0522577 111.769ZM72.403 195.714C72.5075 195.452 72.6382 195.242 72.7949 195.032C73.213 195.399 73.6049 195.793 74.0491 196.134C74.3627 196.397 74.8591 196.423 75.3033 196.554C75.1465 196.266 75.0159 195.977 74.8591 195.688C74.4933 195.006 74.2582 194.481 74.1014 194.061C74.4411 193.929 74.8069 193.851 75.1727 193.851C75.5385 193.851 75.852 193.903 76.2178 194.034C77.3675 194.454 78.0991 195.609 78.0991 196.764C78.0991 197.132 78.0468 197.473 77.8901 197.841C77.6288 198.523 77.1584 199.048 76.5575 199.389C76.1394 199.626 75.6691 199.757 75.1727 199.757C74.8069 199.757 74.4672 199.704 74.1014 199.573C72.5859 199.022 71.8543 197.316 72.4291 195.741L72.403 195.714ZM205.921 156.839C206.731 155.212 207.489 153.558 208.195 151.878C208.299 151.668 208.377 151.432 208.482 151.222C209.214 149.489 209.893 147.757 210.52 145.998C210.572 145.893 210.598 145.762 210.651 145.657C214.047 136.129 216.164 125.97 216.791 115.418C215.197 115.89 213.603 116.389 211.983 116.862C211.121 116.678 210.285 116.468 209.423 116.337C209.423 116.625 209.37 116.94 209.344 117.229C209.579 117.308 209.841 117.387 210.076 117.439C209.815 117.518 209.553 117.597 209.292 117.675C207.907 134.002 202.681 149.227 194.503 162.43C194.111 163.087 193.693 163.69 193.275 164.32C193.353 164.347 193.406 164.399 193.484 164.425C193.353 164.478 193.249 164.53 193.118 164.557C192.857 164.95 192.622 165.37 192.334 165.764C188.493 171.46 184.078 176.762 179.192 181.566C178.016 182.721 176.84 183.85 175.586 184.952C174.75 185.687 173.887 186.422 173.025 187.131C173.339 187.498 173.678 187.866 174.096 188.102C174.149 188.128 174.096 188.391 174.123 188.863C173.757 188.968 173.13 189.362 172.895 189.178C172.503 188.863 172.137 188.496 171.771 188.155C154.421 202.172 132.395 210.598 108.435 210.598C102.817 210.598 97.3038 210.125 91.9735 209.233C90.85 209.049 89.7264 208.839 88.629 208.629C84.2132 207.737 79.902 206.555 75.6952 205.112C74.4672 204.718 73.2653 204.272 72.0633 203.799C70.4172 203.169 68.7972 202.46 67.1772 201.725C67.334 201.909 67.4647 202.093 67.543 202.277C67.6476 202.539 67.4124 202.933 67.3079 203.248C66.9943 202.933 66.5763 202.67 66.4195 202.277C66.315 202.067 66.4195 201.778 66.4979 201.384C65.0085 200.702 63.5192 199.967 62.056 199.232C61.9515 199.232 61.8208 199.232 61.7163 199.258C61.7163 199.258 61.6641 199.127 61.6379 199.022C58.1628 197.184 54.8183 195.163 51.6045 192.958C51.0296 193.562 50.507 194.192 49.7754 194.638C49.2006 194.979 48.1816 194.874 47.3716 194.953C47.4238 194.349 47.1625 193.509 47.5806 193.194C48.2338 192.669 49.0177 192.197 49.8799 191.751C49.2006 191.278 48.5474 190.779 47.8942 190.281C47.7896 190.412 47.6851 190.491 47.6329 190.491C47.0842 190.386 46.64 190.071 46.1435 189.835C46.3003 189.703 46.4832 189.52 46.6661 189.362C40.4736 184.532 34.8297 179.02 29.8914 172.904C28.402 174.19 26.8866 175.502 24.2998 175.529C24.0124 175.529 23.6989 176.027 23.3853 176.5C25.7108 179.44 28.193 182.275 30.8059 184.952C30.8582 185.005 30.9104 185.057 30.9627 185.11C33.5756 187.787 36.3191 190.333 39.1933 192.722C39.1671 192.328 39.1149 191.961 39.0887 191.567C39.7158 192.066 40.8132 192.512 40.8655 193.037C40.8916 193.378 40.8655 193.719 40.8394 194.061C42.0936 195.084 43.3739 196.056 44.6803 197.027C45.2813 196.659 45.7516 196.397 46.2219 196.161C46.2742 196.134 46.9796 196.686 46.9535 196.738C46.5877 197.106 46.1958 197.473 45.7777 197.814C46.8751 198.602 47.9725 199.363 49.0961 200.098C52.4667 202.329 55.968 204.35 59.5999 206.188C59.5999 206.188 59.8089 206.004 59.9134 205.899C59.9918 206.083 60.0963 206.293 60.1486 206.45C61.5857 207.159 63.0489 207.868 64.5121 208.524C64.6689 208.603 64.8256 208.682 64.9824 208.734C66.4979 209.416 68.0395 210.046 69.6072 210.65C70.7308 211.096 71.8282 211.516 72.9517 211.884C78.0207 213.669 83.2726 215.086 88.6813 216.058C89.8048 216.268 90.9022 216.478 92.0258 216.661C97.4083 217.501 102.895 217.895 108.487 217.895C110.368 217.895 112.223 217.842 114.052 217.737C115.698 217.659 117.345 217.527 118.991 217.37C119.174 217.37 119.33 217.37 119.513 217.317C123.145 216.95 126.699 216.399 130.2 215.664C130.644 215.48 131.062 215.323 131.506 215.349C133.832 214.876 136.053 214.299 138.274 213.669C138.822 213.511 139.345 213.354 139.894 213.196C140.808 212.908 141.723 212.619 142.637 212.33C143.212 212.146 143.787 211.936 144.336 211.726C145.903 211.175 147.445 210.598 148.987 209.968C149.561 209.731 150.136 209.521 150.711 209.285C151.495 208.944 152.279 208.603 153.037 208.235C153.716 207.92 154.369 207.632 155.022 207.317C155.754 206.975 156.486 206.608 157.217 206.24C157.975 205.847 160.718 204.403 161.319 204.062C162.574 203.353 163.802 202.618 165.03 201.883C165.578 201.542 166.101 201.2 166.65 200.859C167.486 200.334 168.296 199.783 169.106 199.232C169.628 198.891 170.125 198.523 170.647 198.182C171.666 197.473 172.659 196.738 173.626 196.003C173.887 195.793 174.175 195.609 174.436 195.399C175.664 194.454 176.866 193.483 178.042 192.486C178.408 192.171 178.773 191.856 179.139 191.541C180.028 190.78 180.89 190.018 181.752 189.231C182.092 188.916 182.458 188.575 182.797 188.26C183.947 187.183 185.097 186.055 186.194 184.926C187.292 183.823 188.311 182.695 189.33 181.54C192.674 177.839 195.705 173.901 198.475 169.78C198.971 169.045 199.415 168.31 199.886 167.575C198.736 166.919 197.586 166.289 196.437 165.606C196.123 165.423 196.045 164.977 195.862 164.662C196.28 164.688 196.75 164.662 197.142 164.767C197.743 164.924 198.292 165.16 198.867 165.344C199.546 165.554 200.278 165.711 200.983 165.895C201.688 164.74 202.368 163.585 203.021 162.404C203.936 160.777 204.798 159.123 205.634 157.443C205.738 157.233 205.843 157.049 205.921 156.839ZM37.73 184.795C37.3381 184.663 36.8155 184.322 36.711 183.955C36.5804 183.482 36.7894 182.878 36.8678 182.327C37.4426 182.773 37.9913 183.246 38.6968 183.771C38.2004 184.296 37.8868 184.821 37.7562 184.768L37.73 184.795ZM52.3361 195.531C52.3361 195.531 52.0486 195.189 51.8919 195.006C52.3361 194.717 52.7541 194.428 53.2244 194.166C53.2767 194.166 53.5119 194.428 53.7993 194.717C53.2244 195.032 52.7803 195.321 52.3099 195.531H52.3361ZM94.7954 216.924C93.9593 216.058 93.2277 215.349 92.5222 214.614C93.0187 214.141 93.4367 213.406 94.0116 213.249C95.4486 212.855 94.5864 215.06 95.6838 215.191C95.4486 215.638 95.2135 216.084 94.7954 216.898V216.924ZM186.351 179.282C186.743 180.857 184.182 182.17 186.246 183.587C186.246 183.587 186.037 184.138 185.933 184.138C185.567 184.112 184.914 184.033 184.862 183.823C184.679 183.141 184.679 182.38 184.679 182.144C184.6 181.041 184.391 180.332 184.626 179.86C185.462 178.101 185.175 175.87 186.612 174.4C187.501 176.132 186.037 177.865 186.377 179.282H186.351ZM65.2176 188.916C65.3743 189.021 65.5311 189.126 65.6879 189.231C65.6618 189.441 65.6095 189.677 65.5573 189.913C65.296 189.625 65.0869 189.231 64.7473 189.047C64.5121 188.916 64.1724 188.732 63.8327 188.575C64.3031 188.575 64.7473 188.706 65.1914 188.916H65.2176ZM41.571 174.662C42.1197 174.059 42.9035 173.77 43.6613 173.77C44.419 173.77 45.1245 174.059 45.6993 174.61C46.3003 175.187 46.6138 175.949 46.6138 176.71C46.6138 177.471 46.3526 178.18 45.7777 178.757C45.1768 179.361 44.419 179.65 43.6613 179.65C42.9558 179.65 42.2242 179.387 41.6494 178.862C40.4736 177.734 40.4474 175.87 41.571 174.689V174.662ZM49.488 171.828C49.488 171.828 49.5403 171.933 49.5664 171.959C49.4619 171.854 49.3574 171.749 49.2529 171.644C49.3835 171.591 49.488 171.565 49.6187 171.513C49.5403 171.618 49.488 171.723 49.488 171.801V171.828ZM66.6024 192.249C66.5501 192.486 66.4718 192.696 66.3411 192.932C65.8185 193.903 64.7995 194.481 63.7805 194.481C63.3102 194.481 62.8398 194.349 62.3957 194.113C62.1866 194.008 62.0037 193.877 61.847 193.719C62.3434 193.457 62.8921 193.142 63.5715 192.748C62.9966 192.459 62.7615 192.249 62.6308 192.302C62.1605 192.486 61.6902 192.696 61.2199 192.906C60.9847 192.459 60.8541 191.961 60.8802 191.436C61.3766 191.436 61.9515 191.541 62.6569 191.672C63.885 191.934 65.3744 192.118 66.7069 191.619C66.7069 191.777 66.6808 191.934 66.6547 192.066C66.5763 192.171 66.6024 192.197 66.6285 192.223L66.6024 192.249ZM49.0961 169.281C48.9393 169.386 48.7825 169.491 48.6519 169.465C47.868 169.255 47.1625 168.809 46.4309 168.441C46.8751 168.205 47.3454 167.969 48.0509 167.575C48.5474 167.916 48.9916 168.231 49.4358 168.546C49.6709 167.916 49.8538 167.286 50.089 166.656C41.5187 157.915 34.882 147.258 30.8582 135.394C30.7536 135.735 30.5969 136.129 30.414 136.811C29.4995 135.525 29.003 134.816 28.4804 134.081C28.8724 133.845 29.2643 133.504 29.6824 133.372C29.8914 133.32 30.0482 133.294 30.2049 133.294C27.8272 125.576 26.5208 117.413 26.5208 108.908C26.5208 104.21 26.9388 99.5896 27.6966 95.101C27.6182 95.101 27.5398 95.101 27.4614 95.101C27.0695 95.101 26.6514 95.1798 26.2856 95.1273C25.7108 95.0485 25.1621 94.8648 24.5872 94.7335C24.9792 94.2348 25.2666 93.6836 25.763 93.2636C26.1027 92.9748 26.6514 92.8436 27.0956 92.6336C27.4875 92.4498 27.8795 92.2398 28.2714 92.0299C28.3237 91.8461 28.3498 91.6624 28.402 91.4524C28.0624 91.2161 27.6966 90.9799 27.3308 90.9274C26.2334 90.7961 25.3188 90.4286 24.4566 89.9824C23.0979 96.0722 22.3663 102.398 22.3663 108.908C22.3663 132.979 32.2169 154.818 48.0771 170.515C48.4951 170.121 48.8609 169.728 49.0961 169.281ZM32.6349 145.316C32.2952 145.027 31.9817 144.66 31.7727 144.266C31.7204 144.135 32.0078 143.82 32.1385 143.531C32.5304 143.925 32.8962 144.345 33.2881 144.738C33.053 144.948 32.661 145.368 32.6088 145.316H32.6349ZM35.3262 150.959C34.8559 150.776 34.4378 150.461 33.8368 150.093C34.2026 149.699 34.4639 149.306 34.5423 149.358C34.9865 149.647 35.3523 150.014 35.7704 150.356C35.6136 150.566 35.4046 150.986 35.3262 150.959ZM40.97 159.543C40.7087 160.12 40.4736 160.672 40.2123 161.249C40.0033 160.96 39.7681 160.645 39.5591 160.357C40.0294 160.094 40.4997 159.832 40.9439 159.543L40.9961 159.412C40.9961 159.412 40.9961 159.517 40.9439 159.543H40.97ZM53.2244 187.735C52.6235 187.735 52.0225 187.551 51.5261 187.183C50.7422 186.58 50.3241 185.661 50.3241 184.795C50.3241 184.191 50.507 183.587 50.8728 183.062C51.4738 182.301 52.3361 181.855 53.2244 181.855C53.8515 181.855 54.4264 182.065 54.9751 182.458C56.2815 183.403 56.5689 185.241 55.6283 186.553C55.0273 187.341 54.1651 187.761 53.2506 187.761L53.2244 187.735ZM19.257 81.5039C19.257 81.5039 19.3876 81.5039 19.4399 81.4514C20.0931 81.7664 20.5895 82.2651 20.8508 82.8951C20.3544 82.6851 19.8318 82.5014 19.3353 82.2651C19.1786 82.1864 19.1524 81.5039 19.2308 81.4777L19.257 81.5039ZM194.555 65.0194C194.764 65.4656 194.869 65.9118 194.869 66.3843C194.869 66.7256 194.79 67.0668 194.66 67.4081C194.163 67.4606 193.667 67.5131 193.17 67.6443C193.066 67.6705 192.935 68.353 192.752 69.193C192.491 69.2718 192.23 69.298 191.942 69.298C191.707 69.298 191.498 69.2718 191.289 69.2193C190.923 68.6418 190.531 68.0643 190.087 67.4081C189.878 67.618 189.695 67.8018 189.512 67.9593C189.46 67.8805 189.382 67.8018 189.33 67.6968C188.598 66.2793 189.147 64.4681 190.61 63.7594C191.054 63.5494 191.498 63.4444 191.969 63.4444C193.04 63.4444 194.033 64.0481 194.529 65.0456L194.555 65.0194ZM183.921 53.1547C184.417 52.7872 185.018 52.6297 185.567 52.6297C186.011 52.6297 186.455 52.7347 186.847 52.9185C186.664 53.0235 186.534 53.1547 186.508 53.2597C186.481 53.4435 186.847 53.811 187.082 53.8372C187.213 53.8372 187.396 53.7585 187.736 53.601C187.814 53.706 187.919 53.7847 187.997 53.8897C188.363 54.4147 188.52 54.9922 188.52 55.5696C188.52 56.4884 188.075 57.4071 187.239 57.9583C186.717 58.3258 186.142 58.4833 185.567 58.4833C184.652 58.4833 183.738 58.0371 183.189 57.1971C182.275 55.8584 182.588 54.0209 183.921 53.1022V53.1547ZM164.977 46.2249C165.239 45.5949 165.448 44.9387 165.709 44.2825C168.479 46.7499 171.065 49.4011 173.495 52.2097C172.215 52.9185 170.909 53.601 169.55 54.0209C169.21 53.6535 168.871 53.286 168.531 52.9185C168.322 51.9473 168.165 50.9235 168.008 49.9523C167.747 48.2461 166.624 48.4299 165.474 48.9811C165.291 49.0598 165.16 49.1911 165.004 49.3486C163.593 47.9836 162.156 46.6712 160.64 45.4374C161.241 45.5424 161.842 45.6212 162.443 45.7524C162.129 45.6212 161.842 45.4899 161.738 45.3062C161.267 44.4925 160.875 43.6525 160.509 42.7863C160.509 42.7338 160.509 42.655 160.509 42.5763C160.718 42.655 160.875 42.7338 160.98 42.6813C161.189 42.6025 161.372 42.4975 161.581 42.3925C162.129 43.2063 162.678 44.02 163.122 44.86C163.227 45.07 162.913 45.4374 162.73 45.7787C163.488 45.9099 164.22 46.0674 164.951 46.1987L164.977 46.2249ZM177.833 42.8125C178.617 42.8125 179.401 43.1275 179.975 43.7575C180.498 44.3087 180.733 45.0437 180.733 45.7524C180.733 46.5399 180.42 47.3536 179.766 47.9574C179.218 48.4561 178.486 48.6923 177.781 48.6923C176.997 48.6923 176.213 48.3774 175.638 47.7474C175.063 47.0911 174.828 46.2774 174.906 45.4637C175.69 45.0962 176.448 44.7287 177.232 44.4137C177.18 44.4137 177.101 44.3612 177.075 44.335C177.127 43.8887 177.154 43.4162 177.154 42.9438C177.389 42.8913 177.598 42.8125 177.833 42.8125ZM199.65 76.9365C199.781 77.2515 199.833 77.5928 199.833 77.9078C199.833 78.0127 199.807 78.1177 199.781 78.1965C199.468 78.039 199.128 77.8815 198.762 77.6978C198.109 78.2752 197.743 78.6165 197.377 78.9577C197.952 79.2202 198.501 79.5877 199.102 79.7715C198.762 80.1652 198.37 80.4802 197.848 80.6639C197.534 80.7952 197.194 80.8477 196.881 80.8477C195.679 80.8477 194.555 80.0864 194.137 78.879C193.615 77.3303 194.399 75.6503 195.94 75.1253C196.254 74.9941 196.593 74.9416 196.881 74.9416C198.083 74.9416 199.232 75.7028 199.65 76.9365ZM199.285 116.284C200.46 116.31 201.636 116.494 202.76 116.73C203.047 116.783 203.387 117.045 203.648 117.308C203.152 117.675 202.551 117.885 201.898 117.885H201.715C200.617 117.807 199.729 117.15 199.285 116.258V116.284ZM203.126 90.0087C203.126 91.3736 202.159 92.6073 200.774 92.8961C200.591 92.9223 200.382 92.9486 200.173 92.9486C199.572 92.9486 199.023 92.7386 198.553 92.4236C198.266 92.0561 197.926 91.6624 197.586 91.2949C197.482 91.0849 197.377 90.8749 197.325 90.6124C197.273 90.3762 197.247 90.1662 197.273 89.9299C197.691 89.5624 198.109 89.2212 198.501 88.8274C198.527 88.8012 198.161 88.4862 197.848 88.25C198.266 87.6987 198.867 87.2787 199.598 87.1212C199.807 87.095 199.99 87.0687 200.199 87.0687C201.558 87.0687 202.76 88.0137 203.073 89.4049C203.099 89.6149 203.126 89.7987 203.126 90.0087ZM146.4 31.2104C148.072 32.0503 149.718 32.9428 151.338 33.8615C151.417 34.2815 151.469 34.7015 151.547 35.1215C150.711 34.964 149.588 35.0165 149.091 34.5703C148.098 33.6515 147.523 32.3916 146.609 31.3678C146.557 31.3153 146.452 31.2628 146.374 31.2104H146.4ZM171.797 56.6196C172.947 55.8321 173.966 54.8872 175.037 53.9947C183.66 64.5206 189.852 77.1203 192.752 90.9011C192.36 90.8486 191.995 90.7699 191.603 90.7436C190.923 90.6649 190.27 90.6386 189.591 90.6124C190.061 90.9274 190.584 91.1899 191.002 91.5574C191.42 91.9249 192.125 92.4498 192.021 92.7911C191.733 93.9198 192.439 93.9986 193.301 93.9723C193.484 95.0485 193.667 96.1247 193.798 97.2272C193.301 97.0435 192.805 96.8597 192.256 96.676C192.021 96.9385 191.812 97.1747 191.577 97.4372C192.073 97.5685 192.543 97.8047 193.04 97.8047C193.275 97.8047 193.536 97.5422 193.798 97.3584C193.928 98.3297 194.059 99.3271 194.163 100.325C192.256 100.902 190.95 101.243 190.061 101.191C189.826 98.7759 189.486 96.4135 189.068 94.0773C189.147 94.0773 189.199 94.1035 189.277 94.1298C189.46 94.156 189.774 93.8673 190.009 93.7098C189.643 93.5523 189.277 93.3948 188.911 93.2373C188.624 91.7149 188.284 90.2187 187.919 88.7225C188.415 88.6437 188.885 88.5125 188.911 88.3812C189.356 86.8063 189.931 85.1788 189.748 83.6301C189.669 82.8426 188.101 82.2126 187.187 81.5302C187.265 82.3964 187.474 83.2626 187.344 84.1026C187.265 84.5488 187.135 84.9688 186.978 85.415C185.28 79.719 183.006 74.3116 180.184 69.193C180.733 69.1405 181.256 69.0093 181.804 68.9305C181.256 68.5105 180.759 67.9068 180.132 67.7493C179.871 67.6705 179.557 67.6706 179.296 67.6181C178.303 65.9118 177.258 64.2581 176.161 62.6307C176.474 61.712 176.735 60.7932 177.049 59.8745C177.049 59.8483 176.657 59.717 176.631 59.7433C176.161 60.2683 175.716 60.8195 175.246 61.3445C174.123 59.7695 172.973 58.2208 171.745 56.7246L171.797 56.6196ZM190.767 118.699C190.479 118.699 190.166 118.778 189.878 118.883C189.957 118.148 190.061 117.439 190.14 116.704C191.55 116.625 192.935 116.547 194.346 116.468C194.268 117.229 194.19 117.99 194.111 118.752C193.014 118.725 191.89 118.699 190.793 118.699H190.767ZM190.375 104.656C190.375 104.157 190.296 103.632 190.27 103.133C190.845 103.475 190.871 103.973 190.375 104.656ZM190.427 112.006C190.453 110.982 190.505 109.958 190.505 108.908C190.505 108.751 190.505 108.619 190.505 108.462C191.446 109.302 192.491 110.037 191.733 110.929C191.394 111.323 190.95 111.691 190.427 112.006ZM25.2666 72.2117C25.2666 72.6054 25.1882 72.9729 25.0314 73.3666C24.5611 74.4954 23.4637 75.1516 22.314 75.1516C21.9221 75.1516 21.5563 75.0991 21.1905 74.9416C19.675 74.2854 18.9957 72.5792 19.6228 71.0567C20.0931 69.9542 21.1905 69.2718 22.314 69.2718C22.706 69.2718 23.0718 69.3242 23.4637 69.508C24.5872 69.9805 25.2666 71.0567 25.2666 72.2117ZM27.9317 58.0896C28.4282 58.0896 28.9769 58.2208 29.4472 58.5096C30.3878 59.0608 30.8843 60.032 30.8843 61.0295C30.8843 61.5545 30.7275 62.0795 30.4662 62.5519C30.3878 62.6832 30.2833 62.8144 30.1788 62.9194C30.1004 62.8407 30.022 62.7882 29.9175 62.7094C29.8391 62.9194 29.6562 63.2082 29.6824 63.3657C29.1859 63.7332 28.5849 63.9432 27.9579 63.9432C27.4614 63.9432 26.9127 63.8119 26.4424 63.5232C25.0576 62.6832 24.6134 60.9245 25.4495 59.5333C25.9721 58.5883 26.9127 58.0896 27.9317 58.0896ZM137.15 20.7107C137.594 20.7107 138.065 20.7107 138.535 20.7107C137.986 21.5244 137.098 22.0231 136.105 22.0231C135.844 22.0231 135.556 21.9969 135.243 21.8919C134.982 21.8131 134.746 21.6819 134.511 21.5244C134.59 21.4719 134.668 21.4194 134.746 21.3931C135.347 21.0781 135.948 20.7632 136.549 20.4744C136.732 20.6057 136.967 20.7107 137.15 20.7369V20.7107ZM12.0193 109.302V108.908C12.0193 107.281 13.3257 105.968 14.9457 105.968C15.9647 105.968 16.827 106.467 17.3495 107.254C17.2712 107.359 17.1666 107.464 17.0883 107.569C17.245 107.569 17.4018 107.622 17.5847 107.648C17.7676 108.042 17.8721 108.462 17.8721 108.908V109.302C17.8721 110.903 16.5657 112.242 14.9457 112.242C13.3257 112.242 12.0193 110.929 12.0193 109.302ZM25.1621 144.791C25.3188 145.185 25.3972 145.552 25.3972 145.946C25.3972 147.075 24.7179 148.229 23.6205 148.676C23.2285 148.833 22.8627 148.912 22.4708 148.912C21.3211 148.912 20.2237 148.229 19.7534 147.101C19.1263 145.631 19.8318 143.898 21.3211 143.242C21.7131 143.085 22.0789 143.006 22.4708 143.006C23.5943 143.006 24.7179 143.688 25.1621 144.791ZM18.6821 96.4135C18.6821 96.4135 18.6821 96.676 18.656 96.8072C18.447 98.2509 17.2189 99.3534 15.7557 99.3534C15.625 99.3534 15.4944 99.3271 15.3638 99.3271C13.7699 99.0909 12.6202 97.6472 12.8293 96.0197C13.0383 94.5498 14.2925 93.4736 15.7557 93.4736C15.8863 93.4736 16.017 93.4736 16.1476 93.4998C17.6108 93.6836 18.6821 94.9435 18.6821 96.4397V96.4135ZM148.15 21.6556C147.941 21.1831 147.968 20.8944 148.046 20.6582C148.386 20.6844 148.699 20.7632 149.013 20.8944C149.326 21.0256 149.588 21.2356 149.823 21.4456C148.96 21.6031 148.203 21.7606 148.177 21.6556H148.15ZM157.217 27.1155C158.994 28.4279 159.621 30.3441 160.091 32.1816C159.673 32.3916 159.229 32.4966 158.759 32.4966C158.236 32.4966 157.688 32.3653 157.191 32.0503C155.806 31.1841 155.414 29.3467 156.303 27.9817C156.538 27.588 156.878 27.2992 157.217 27.0892V27.1155ZM138.587 17.5607C136.523 17.7445 134.825 18.6107 133.335 19.9494C133.153 19.3982 133.126 18.7945 133.335 18.1907C133.754 16.9045 134.903 16.117 136.131 16.117C136.419 16.117 136.68 16.1433 136.993 16.2483C137.725 16.4583 138.274 16.957 138.613 17.5607H138.587ZM30.6491 155.606C30.9365 156.078 31.0672 156.603 31.0672 157.128C31.0672 157.653 30.9104 158.178 30.6491 158.65C30.5707 158.572 30.4662 158.493 30.3878 158.414C29.9436 158.965 29.6562 159.333 29.3427 159.7C29.0291 159.937 28.5849 160.042 28.1669 160.042C27.174 160.042 26.2072 159.543 25.6585 158.624C24.9008 157.364 25.2143 155.763 26.2856 154.871C26.3901 154.923 26.4946 154.976 26.5992 155.028C26.6253 155.028 26.7821 154.766 26.8866 154.503C27.3046 154.293 27.7227 154.188 28.1669 154.188C29.1598 154.188 30.1527 154.687 30.6753 155.606H30.6491ZM144.963 24.3068C146.008 24.1756 147.105 24.2281 148.098 24.0443C148.307 24.1756 148.516 24.3068 148.699 24.2806C149.013 24.2806 149.3 24.0181 149.588 23.8606C149.509 23.8081 149.431 23.7293 149.379 23.6506C149.927 23.4668 150.371 23.4143 150.685 23.4931C150.685 23.9656 150.607 24.3855 150.424 24.753C149.927 25.8555 148.856 26.4592 147.759 26.4592C147.34 26.4592 146.922 26.3805 146.531 26.1967C145.694 25.803 145.146 25.0943 144.937 24.2543L144.963 24.3068Z" fill="#0267FF"/>
</svg>
