<svg width="65" height="64" viewBox="0 0 65 64" fill="none" xmlns="http://www.w3.org/2000/svg">
<g clip-path="url(#clip0_148_853)">
<g clip-path="url(#clip1_148_853)">
<path d="M11.9049 17.9254C12.2235 17.4468 12.5358 16.9785 12.8482 16.5122C13.0585 16.1966 12.8794 15.9242 12.7545 15.6437C10.8388 11.3752 11.4947 7.49245 14.7014 4.11313C15.7779 2.97844 16.7899 3.0754 17.5853 4.41434C18.6535 6.2154 19.3365 8.14026 19.3177 10.3931C19.7925 10.1208 20.1839 9.89387 20.5775 9.67106C21.275 9.27289 21.9684 8.85821 22.743 8.62302C23.4093 8.41877 24.0715 8.72823 24.3797 9.33065C24.6858 9.93101 24.5254 10.6304 23.957 11.0471C23.73 11.2142 23.4656 11.3318 23.2115 11.4618C16.4088 14.9587 12.3505 20.4424 11.3365 27.9768C9.80602 39.3505 18.0205 49.9836 29.5353 51.5144C41.2563 53.07 51.147 45.3169 53.4229 35.0015C55.4843 25.6537 50.793 15.916 42.1642 11.6124C41.8164 11.4391 41.4562 11.2865 41.123 11.0884C40.3984 10.6531 40.1527 9.91038 40.4859 9.23988C40.8149 8.57763 41.5957 8.27436 42.3474 8.60651C43.199 8.98199 44.0153 9.44 44.8482 9.8588C45.0481 9.95989 45.2022 10.1703 45.5249 10.1229C45.5728 8.03298 46.1808 6.09162 47.2365 4.28436C47.4447 3.92745 47.6446 3.54991 48.0424 3.36836C48.7045 3.06715 49.325 3.16824 49.8289 3.68813C53.0668 7.03238 54.2037 10.8346 52.2693 15.1898C51.9445 15.9222 51.9674 16.4194 52.4859 16.9744C52.6941 17.1972 52.8419 17.4757 53.0168 17.7294C53.325 17.6634 53.3375 17.389 53.4437 17.2054C54.4328 15.4931 55.7925 14.1356 57.4729 13.0916C58.5744 12.4088 59.5218 12.7203 59.9174 13.9396C61.3292 18.2782 60.6337 22.2166 56.8586 25.369C56.3922 25.7569 56.211 27.3042 56.5962 27.7292C56.8253 27.9809 56.9731 27.6962 57.1105 27.5951C58.7243 26.4253 60.5504 25.825 62.5077 25.5403C63.8654 25.3422 64.667 26.0292 64.4713 27.364C63.7821 32.0637 61.4354 35.0304 56.9294 36.2868C56.084 36.522 55.3802 37.4587 55.4323 38.3045C55.4614 38.7728 55.7779 38.4861 55.9424 38.4551C57.9643 38.0796 59.9278 38.3293 61.8435 38.9956C63.1033 39.433 63.4177 40.2975 62.6826 41.4115C60.2756 45.057 56.767 47.1056 51.9903 46.1937C51.1532 46.0349 50.0226 46.6146 49.7227 47.3656C49.5603 47.7699 49.9414 47.6915 50.1184 47.741C51.8799 48.2259 53.4062 49.1295 54.7784 50.3054C54.9742 50.4726 55.1699 50.6458 55.3448 50.8357C56.1173 51.6753 56.0465 52.5893 55.0824 53.1814C51.3177 55.4961 47.3948 55.82 43.5968 53.2928C42.6389 52.6546 41.5846 52.6463 40.4338 53.268C41.9747 54.4667 43.0387 55.9892 43.8175 57.7263C44.7586 59.8265 44.2027 60.7034 41.8602 60.7467C38.1371 60.8148 35.0325 59.6161 32.9169 56.4225C32.6837 56.0717 32.5546 56.0862 32.3276 56.4287C30.0017 59.9318 26.591 61.0438 22.5535 60.757C21.3209 60.6703 20.7316 59.8431 21.1168 58.6877C21.754 56.7691 22.7972 55.0959 24.3214 53.7425C24.7607 53.3526 24.6962 53.2474 24.1777 53.0039C23.2636 52.5769 22.5827 52.6512 21.7186 53.2742C18.0163 55.9397 14.1746 55.7355 10.262 53.4537C9.17301 52.8183 9.07098 51.8548 9.95802 50.9574C11.3844 49.5173 13.0606 48.459 15.0325 47.9185C15.6092 47.7596 15.5218 47.6296 15.2095 47.2356C14.5681 46.4269 13.8768 46.1834 12.8003 46.3815C8.02778 47.2665 4.6941 45.0095 2.40987 41.5993C1.71856 40.5677 2.04547 39.6476 3.24485 39.2288C5.13137 38.5707 7.06786 38.2529 9.06057 38.6367C9.68941 38.7584 9.68108 38.5789 9.56448 38.0549C9.35625 37.11 8.88983 36.6458 7.8841 36.3735C3.41351 35.1604 1.20633 32.0307 0.529597 27.56C0.348442 26.3655 1.00851 25.6764 2.24537 25.7754C4.19227 25.9322 6.00175 26.5367 7.63423 27.6198C7.8487 27.7622 8.06526 27.9025 8.28389 28.0428C8.30055 28.0531 8.33178 28.0386 8.40258 28.0304C8.47129 27.5951 8.51502 27.1391 8.61705 26.6976C8.72949 26.2149 8.59206 25.9054 8.19436 25.5795C6.30784 24.028 4.87109 22.1692 4.48795 19.6914C4.18186 17.7233 4.37343 15.7881 5.07306 13.9189C5.43954 12.9431 6.34115 12.6625 7.30107 13.2299C8.95438 14.2078 10.3099 15.5034 11.3323 17.1291C11.4926 17.3849 11.578 17.6944 11.907 17.9234L11.9049 17.9254Z" fill="#0267FF"/>
<path d="M32.18 17.92L20.98 38.4H43.38L32.18 17.92Z" fill="#0267FF"/>
</g>
</g>
<defs>
<clipPath id="clip0_148_853">
<rect width="64" height="64" fill="#0267FF" transform="translate(0.5)"/>
</clipPath>
<clipPath id="clip1_148_853">
<rect width="64" height="64" fill="#0267FF" transform="translate(0.5)"/>
</clipPath>
</defs>
</svg>
