<svg width="48" height="48" viewBox="0 0 48 48" fill="none" xmlns="http://www.w3.org/2000/svg">
<path d="M32.38 4L15.62 4C8.34 4 4 8.34 4 15.62L4 32.36C4 39.66 8.34 44 15.62 44H32.36C39.64 44 43.98 39.66 43.98 32.38V15.62C44 8.34 39.66 4 32.38 4ZM16.94 21.96C17.52 21.38 18.48 21.38 19.06 21.96L22.5 25.4L22.5 13.02C22.5 12.2 23.18 11.52 24 11.52C24.82 11.52 25.5 12.2 25.5 13.02L25.5 25.4L28.94 21.96C29.52 21.38 30.48 21.38 31.06 21.96C31.64 22.54 31.64 23.5 31.06 24.08L25.06 30.08C24.92 30.22 24.76 30.32 24.58 30.4C24.4 30.48 24.2 30.52 24 30.52C23.8 30.52 23.62 30.48 23.42 30.4C23.24 30.32 23.08 30.22 22.94 30.08L16.94 24.08C16.36 23.5 16.36 22.56 16.94 21.96ZM36.48 34.44C32.46 35.78 28.24 36.46 24 36.46C19.76 36.46 15.54 35.78 11.52 34.44C10.74 34.18 10.32 33.32 10.58 32.54C10.84 31.76 11.68 31.32 12.48 31.6C19.92 34.08 28.1 34.08 35.54 31.6C36.32 31.34 37.18 31.76 37.44 32.54C37.68 33.34 37.26 34.18 36.48 34.44Z" fill="black"/>
</svg>
