<svg width="157" height="90" viewBox="0 0 157 90" fill="none" xmlns="http://www.w3.org/2000/svg">
<path d="M156.377 54.2199V47.7984L154.358 45.7953C154.242 46.1684 154.028 46.5416 153.601 46.9343C153.174 47.3467 153.64 50.9012 154.087 51.0779C156.28 51.942 156.435 52.9042 156.028 53.8861L156.358 54.2199H156.377ZM155.523 49.7622C155.407 49.4872 155.193 49.2319 155.174 48.957C155.135 48.525 155.212 48.0733 155.271 47.1307C155.542 47.8966 155.737 48.1715 155.717 48.4464C155.717 48.8785 155.581 49.3105 155.523 49.7622ZM101.155 89.9607C101.252 89.8429 101.368 89.7054 101.485 89.5287L101.912 89.9607H101.155ZM143.993 3.35806C144.362 2.37617 144.634 1.23718 145.876 1.41392C146.148 1.4532 146.42 1.51211 146.691 1.57102C146.555 1.78704 146.381 1.98342 146.264 2.21907C145.876 2.96531 145.507 3.71154 145.119 4.47742L152.709 12.0183C152.806 11.3703 152.903 10.8008 153.039 10.2313C153.194 9.60288 153.504 9.03338 153.737 8.44425C154.028 9.22976 154.533 10.0349 154.533 10.8008C154.533 11.5667 154.145 12.3522 153.815 13.0984L156.396 15.671V9.2494L153.97 6.83395C153.31 6.57866 152.262 6.99105 151.408 7.08924C151.99 6.73576 152.573 6.38228 153.136 6.00916L147.138 0.0589134H143.974C143.838 0.432031 143.702 0.785512 143.489 1.08008C143.217 1.4532 142.305 1.08008 141.548 0.942614L143.993 3.3777V3.35806ZM148.885 3.51516C148.924 3.77046 149.059 4.08466 148.982 4.30068C148.788 4.96836 148.497 5.59677 148.264 6.24482C148.069 6.04844 147.895 5.8717 147.526 5.51822C148.031 4.79162 148.458 4.16321 148.885 3.5348V3.51516ZM87.7813 0.0392756H89.0042L90.0329 1.06044C89.373 0.824787 88.7324 0.589134 88.1307 0.216016C88.0143 0.137465 87.8978 0.0785512 87.7813 0.0196378V0.0392756ZM63.1886 0.0392756H69.6522L76.174 6.53938C75.6305 7.87475 75.087 9.21012 74.5436 10.5455C74.8735 10.7615 75.3394 11.115 75.3588 11.0954C75.9411 9.87781 76.4652 8.62099 76.9892 7.34453L105.192 35.4069C105.192 35.6819 105.251 35.9568 105.251 36.2121C105.192 37.9206 105.192 38.0188 105.833 38.117C106.881 38.2544 106.784 37.6064 106.803 37.0172L127.863 57.9708C127.572 58.3242 127.242 58.6777 127.087 59.0901C126.66 60.1702 126.252 61.2699 125.845 62.3696L111.287 47.8966C111.287 47.8966 111.365 47.9358 111.384 47.9358C111.656 48.1911 111.753 48.2893 111.831 48.3679C112.762 47.3271 113.713 46.3059 114.606 45.2455C114.684 45.1669 114.49 44.676 114.354 44.6367C114.024 44.5385 113.655 44.6367 113.306 44.6367C113.364 46.1292 111.772 45.9721 111.093 46.7379C110.938 46.9147 110.705 47.0129 110.472 47.0914L79.959 16.7314C81.1236 16.2405 80.4054 15.2978 80.2502 14.4927L78.5032 13.8446C78.2703 14.0803 78.018 14.3159 77.7657 14.5712L70.9915 7.83548C71.1079 7.73729 71.2244 7.6391 71.3991 7.54091C70.6809 6.71612 70.0598 5.8717 69.3028 5.28257C69.2446 5.24329 69.0699 5.43967 68.8564 5.7146L63.1692 0.0589134L63.1886 0.0392756ZM33.5103 4.5756C33.685 4.73271 34.015 4.96836 33.9956 5.06655C33.8209 5.75387 33.7238 6.5983 32.8116 6.50011C32.8116 6.4412 32.8116 6.36264 32.8116 6.32337C33.0445 5.73423 33.2774 5.16474 33.5103 4.5756ZM152.417 30.9492C152.631 30.6742 152.864 30.3797 153.116 30.0851C153.194 30.4386 153.388 30.7921 153.33 31.1259C153.291 31.3223 153.213 31.499 153.097 31.6758L156.377 34.9356V28.5141L149.719 21.8765C149.215 22.3674 148.729 22.8388 148.244 23.2708C148.225 23.2708 147.953 23.0155 147.895 22.8191C147.701 22.2496 148.011 21.2874 148.458 20.6197L146.187 18.3613C146.09 19.0487 146.012 19.7753 145.896 20.4626C145.896 20.5411 145.818 20.6197 145.799 20.6786C145.274 20.2269 144.712 19.7753 144.11 19.3629C143.857 19.1861 143.586 19.0683 143.333 18.9112C143.392 18.4595 143.43 18.0275 143.45 17.5758C143.45 16.9867 143.528 16.2994 143.508 15.6906L135.492 7.71765C135.492 7.71765 135.433 7.77657 135.414 7.7962C135.278 7.87475 134.871 7.52127 134.249 7.16779C134.385 7.0696 134.521 6.97142 134.638 6.87323L127.747 0.0196378H121.283L140.286 18.9308C140.247 18.6755 140.5 18.4202 140.655 18.106C141.121 18.6166 141.742 19.0094 141.722 19.3236C141.703 19.5396 141.509 19.7163 141.276 19.9127L152.417 30.9884C152.417 30.9884 152.417 30.9492 152.398 30.9295L152.417 30.9492ZM151.466 29.2996C150.981 28.8872 150.438 28.5337 150.011 28.0231C149.778 27.7482 149.797 27.1591 149.622 26.7663C149.292 26.0201 148.924 25.3131 148.555 24.6062C148.768 24.5276 149.059 24.3116 149.215 24.4294C150.185 25.1756 151.117 26.0004 152.087 26.8252C151.816 27.8857 151.641 28.6123 151.447 29.3192L151.466 29.2996ZM35.9172 7.56055C35.7231 7.34453 35.3543 6.97142 35.3737 6.93214C35.6843 6.4412 35.7425 5.61641 36.3442 5.45931L37.1012 6.20554C36.7518 6.69649 36.3054 7.10888 35.9172 7.56055ZM30.89 0.0392756L32.0352 1.17827C31.8799 1.17827 31.6664 1.41392 31.5499 1.59066C31.5111 1.64957 31.7052 2.06197 31.8216 2.08161C34.2285 2.63146 32.6951 2.96531 31.8022 3.47589C31.4917 3.65263 31.3752 4.20249 31.1423 4.5756C30.8511 5.06655 30.5017 5.40039 30.1135 5.67532L26.9303 2.51364C26.8138 1.96378 26.6973 1.41392 26.5809 0.844425C26.5226 0.569496 26.4838 0.294567 26.445 0H30.89V0.0392756ZM33.8015 9.34759L31.5499 7.10888C31.7052 7.10888 31.8605 7.12852 31.9963 7.10888C32.2681 7.10888 32.5204 6.77504 32.7922 6.57866C33.4909 7.46236 33.9179 8.34606 33.7821 9.32795L33.8015 9.34759ZM92.3816 65.3349C92.3816 65.3349 92.3816 65.4135 92.401 65.4724C92.4398 65.4528 92.4592 65.4135 92.4786 65.3938C92.5562 66.2383 92.6145 67.1023 92.6921 67.9468L90.0135 65.276C90.7705 65.2171 91.7604 65.6099 92.3621 65.3349H92.3816ZM138.442 73.249C138.442 73.249 138.966 73.5632 139.238 73.7399C138.927 74.0934 138.636 74.4469 138.326 74.8003L140.072 76.5481C140.344 76.2339 140.616 75.9197 140.888 75.6251C141.373 76.3517 142.305 77.1176 142.246 77.7853C142.227 78.0799 142.149 78.3155 142.033 78.5119L144.634 81.1041C146.051 80.6917 146.885 78.8654 148.322 78.5119C148.38 78.5119 148.438 78.5119 148.497 78.5119L146.206 76.2339C145.837 76.5874 145.876 77.3729 145.469 77.6675C145.158 77.8835 144.906 78.1584 144.614 78.4137C144.498 78.0799 144.207 77.6871 144.285 77.4122C144.653 76.0179 143.295 76.2732 142.751 75.7626C142.479 75.4877 142.208 75.2127 141.936 74.9378C142.266 74.8003 142.576 74.604 142.906 74.5451C143.392 74.4469 143.916 74.5451 144.459 74.5254L142.615 72.6991C142.615 72.6991 142.518 72.8562 142.479 72.9544C142.13 72.5616 141.761 72.3063 141.761 72.0511C141.761 71.9921 141.761 71.9332 141.8 71.8743L137.083 67.1809C136.132 66.6114 135.22 65.8259 134.288 65.1386C134.405 65.0207 134.521 64.8833 134.638 64.7654L128.407 58.5599C128.485 58.7759 128.562 58.9919 128.64 59.1883C128.426 60.9164 127.922 62.4285 127.281 63.8425L137.491 74.0148C137.801 73.7399 138.093 73.5043 138.403 73.2686L138.442 73.249ZM137.374 69.3214C137.607 69.7927 137.937 70.264 138.015 70.755C138.073 71.187 137.801 71.6583 137.666 72.1296C137.355 71.6976 137.064 71.2852 136.792 70.8924C137.044 70.2051 137.219 69.7731 137.374 69.3214ZM121.283 89.9607H114.897C115.227 89.3323 115.46 89.0181 115.402 88.861C114.936 87.6827 114.412 86.5241 113.907 85.3655C113.558 85.7582 112.879 86.3474 112.956 86.5437C113.364 87.5256 113.907 88.4682 114.606 89.7251L105.289 80.456C105.289 80.456 105.386 80.3775 105.445 80.3382C104.843 79.4349 104.319 77.9424 103.639 77.7657C103.212 77.6478 102.766 77.5693 102.32 77.4907L94.769 69.9891C95.196 68.2217 95.4096 66.1597 96.1083 64.9029L121.342 90L121.283 89.9607ZM92.498 65.3938C93.4297 64.6672 93.7209 63.6854 93.8179 62.6249L84.6757 53.513C84.5398 53.6897 84.3845 53.8665 84.2681 54.0236C83.9769 53.4344 83.6081 52.9042 83.4334 52.2758L81.7836 50.6262C81.3954 50.6655 81.1819 50.3709 81.2013 50.0567L76.1158 44.9902C75.7082 45.3633 75.3588 45.6579 75.087 45.599C74.0583 45.3829 73.476 45.7757 72.8549 46.5219C72.6996 46.6987 72.1367 46.7576 72.059 46.6201C71.8843 46.3845 71.7873 45.8346 71.9232 45.6186C71.9814 45.54 72.059 45.4418 72.1173 45.3633C71.7873 45.0098 71.4961 44.6956 71.2438 44.4207C71.7291 44.0672 72.1755 43.4977 72.719 43.4192C73.6895 43.2621 73.5148 44.0476 73.4954 44.5778C74.1359 44.5385 74.8153 44.6171 75.3976 44.2439L71.4573 40.3164C70.5645 41.1412 69.0116 40.8073 68.6623 39.5701C68.604 39.3541 68.7981 38.9614 68.9728 38.7257C69.0893 38.549 69.264 38.4312 69.4193 38.2937L38.4211 7.54091C38.3241 7.69801 38.227 7.85512 38.1106 8.05149C37.6253 8.81737 37.8776 9.17085 38.3629 9.64215C38.8287 10.0938 39.4693 10.5062 39.644 11.0757C39.8187 11.6452 39.4887 12.3914 39.3722 13.0788C39.1393 12.6664 39.0034 12.038 38.6735 11.8612C37.9165 11.4488 37.0042 11.3703 36.2472 10.9382C35.7813 10.683 35.3931 10.5651 35.0632 10.624L72.1561 47.5235C72.5831 47.6216 72.8937 47.8573 73.3401 48.1322C73.2237 48.2304 73.146 48.3286 73.049 48.4072L88.3442 63.6264C89.373 62.7035 90.3241 61.6234 91.314 60.6219C91.6634 62.1929 92.0128 63.7835 92.3621 65.3546C92.401 65.3546 92.4398 65.3349 92.4592 65.3153C92.4592 65.3546 92.4592 65.3742 92.4592 65.4135L92.498 65.3938ZM40.828 16.1815C40.4592 15.5139 40.1098 14.8658 39.741 14.1981C39.9934 14.041 40.4204 13.6875 40.4592 13.7268C40.828 14.1981 41.1191 14.7283 41.4685 15.2782C41.158 15.7299 41.0027 15.9459 40.828 16.1815ZM77.4939 51.667C76.6787 50.9993 75.9023 50.2531 75.087 49.5265C75.4558 48.7214 75.7082 48.1715 75.9411 47.6216C76.3487 47.9948 76.8146 48.309 77.1445 48.7606C77.3192 48.9963 77.2416 49.4676 77.358 49.7818C77.5715 50.3906 77.8433 50.9797 78.115 51.5885C77.9015 51.6278 77.6104 51.7849 77.4939 51.667ZM145.177 60.2487C145.993 59.2079 146.206 58.2261 145.837 57.1263C145.837 57.1656 145.837 57.2049 145.837 57.2442C145.41 57.1263 144.809 57.1656 144.595 56.8907C144.246 56.4783 144.129 55.8499 143.896 55.2215C144.013 55.2018 144.168 55.1233 144.323 55.0644L124.176 35.0338C124.078 35.3088 123.865 35.5837 123.729 35.8586C123.613 35.5248 123.516 35.1909 123.341 34.6411C123.399 34.5625 123.477 34.4643 123.554 34.3858L92.9445 3.9472C92.6921 5.02727 92.498 5.95025 92.2845 6.85359C91.741 6.10735 91.2558 4.96836 90.6152 4.73271C89.5088 4.32031 88.1889 4.81126 87.1602 4.22213C86.5003 3.84901 85.7627 2.16016 85.8403 1.21754C85.8985 0.648047 86.0538 0.255291 86.3061 0.0392756H82.56L143.955 61.1128C144.362 61.0932 144.75 60.8182 145.197 60.2487H145.177ZM99.4663 16.3583C99.3304 16.1815 99.1945 16.0048 98.884 15.5924C99.1751 15.3568 99.4663 15.0622 99.8157 14.8854C99.9515 14.8069 100.262 15.0033 100.476 15.0622C100.146 15.4942 99.7963 15.9262 99.4663 16.3779V16.3583ZM120.235 36.9583C119.731 36.5067 119.071 36.1532 119.09 35.8586C119.109 35.4855 119.711 35.1516 120.061 34.7982C120.235 35.2695 120.488 35.7211 120.585 36.2121C120.623 36.4085 120.371 36.6834 120.235 36.978V36.9583ZM142.576 55.084C142.091 54.9269 141.781 54.8484 141.489 54.7502C141.819 54.3378 142.13 53.8861 142.518 53.5326C142.557 53.4933 143.139 53.945 143.1 54.0628C143.003 54.436 142.751 54.7698 142.576 55.084ZM70.5645 39.4916C70.4092 39.4916 70.2733 39.472 70.1568 39.4523C70.1957 39.3738 70.2539 39.2952 70.2927 39.2167L70.5645 39.4916ZM25.4745 0.0392756C25.5716 0.490945 25.688 0.942614 25.8045 1.39428L24.4458 0.0392756H25.4745ZM101.912 0.0392756H108.376L125.767 17.3402C125.961 18.6755 126.175 19.9913 126.408 21.3266C126.408 21.4248 126.563 21.523 126.66 21.6605C126.776 21.5623 127.029 21.4445 127.029 21.3266C126.99 20.3644 126.951 19.4218 126.893 18.4595L143.76 35.2498C143.469 35.5837 143.236 35.8782 143.236 35.8782C143.741 36.6638 144.265 37.4296 144.809 38.1562C144.809 38.1759 145.371 37.6064 145.352 37.5671C145.1 37.0565 144.828 36.5263 144.537 36.0157L151.156 42.614C150.457 44.0672 149.758 45.54 149.156 47.0325L143.683 41.5928C143.683 41.5928 143.586 41.0037 143.45 40.9644C143.314 40.9252 143.159 40.9252 143.023 40.9252L136.249 34.1894C136.385 33.8948 136.462 33.5413 136.404 33.345C136.365 33.1682 136.19 32.9915 136.016 32.8344C136.19 32.4416 136.695 32.0882 136.695 31.715C136.695 31.067 137.297 29.9673 136.152 29.8691C135.608 29.8102 134.851 30.5171 134.424 31.0473C134.211 31.3223 134.308 31.8329 134.346 32.3042L101.912 0.0392756ZM0.396484 85.3066L5.07435 89.9607H0.396484V85.3066ZM2.16282 14.532C1.9493 14.8069 1.91048 15.2782 1.79402 15.6513C2.04635 15.5139 2.29869 15.3764 2.55102 15.2389C5.21022 13.7857 5.54019 14.0214 5.55961 17.3402C5.55961 17.89 5.55961 18.4399 5.55961 18.9897C5.55961 19.3236 5.65666 19.6378 5.71489 19.952L0.396484 14.6498V8.22823L1.67756 9.50469C1.32818 9.72071 0.998201 10.1331 0.629407 10.4277C0.959381 11.0364 1.1923 11.4685 1.42523 11.9005C1.91048 11.4881 2.37633 11.0757 2.86158 10.683L4.27853 12.0969C3.59917 12.9217 2.82276 13.6875 2.1434 14.5123L2.16282 14.532ZM1.23112 54.0039L0.396484 53.1791V46.7576L2.99745 49.3498C3.24979 50.7441 3.15274 52.6293 2.62866 53.0613C2.20164 53.4344 1.69697 53.7094 1.21171 54.0039H1.23112ZM21.0684 48.0537L0.396484 27.4929V33.9145L13.1102 46.5612C13.0131 46.2666 12.9937 45.8935 12.9937 45.5597C12.9937 45.3044 13.1296 45.0687 13.2072 44.8134C13.4402 44.9116 13.7701 44.9509 13.8672 45.1473C14.2748 45.8542 14.7989 46.5808 14.9347 47.386C15.2065 48.9963 16.177 49.1338 17.3222 49.4283C18.8944 49.8407 20.1173 49.664 21.049 48.0537H21.0684ZM8.3935 36.4085C8.17999 36.1335 7.92765 35.8193 7.67532 35.5248C7.81119 35.4462 8.00529 35.2695 8.06352 35.3087C8.37409 35.5444 8.64583 35.8193 8.93699 36.0943C8.80111 36.1728 8.66524 36.2514 8.3935 36.4085ZM11.1692 42.7122C10.6839 41.8285 10.2181 40.9644 9.86868 40.336C10.0434 39.5309 10.1016 39.1774 10.1792 38.8239C10.4704 39.0792 10.9168 39.2952 11.0139 39.6291C11.2468 40.552 11.3439 41.5339 11.4603 42.4962C11.4603 42.5551 11.2662 42.6533 11.1692 42.7122ZM16.2352 64.7851C15.8082 65.3349 15.3424 65.8455 14.7989 66.4543C14.5077 66.0223 14.3136 65.7473 14.3136 65.7473C14.7989 65.2171 15.3035 64.7262 15.8082 64.2156C15.9635 64.412 16.2546 64.7458 16.2352 64.7654V64.7851ZM151.544 68.6734C151.66 68.3199 151.816 67.8682 152.01 67.2398C152.553 68.5359 152.844 68.8894 152.844 69.2821C152.844 69.4981 152.903 69.7731 152.883 70.0284L155.212 72.3456C155.465 72.0314 155.717 71.7172 155.95 71.3834C156.086 71.7172 156.241 72.0511 156.377 72.3849V67.0631L147.332 58.0689C147.157 59.8167 147.06 61.6234 145.837 62.998L146.109 63.273C146.264 62.8606 146.458 62.3696 146.672 61.8787C146.75 61.6823 147.254 61.4663 147.274 61.4859C147.565 61.8198 148.031 62.5071 147.992 62.5267C146.924 63.3908 147.526 63.9799 148.128 64.7851C148.225 64.9225 148.225 65.1386 148.205 65.3742L151.544 68.693V68.6734ZM155.387 66.631C155.698 67.5736 155.95 67.9664 155.911 68.3199C155.872 68.6537 155.542 68.9483 155.348 69.2429C155.174 68.909 154.863 68.5752 154.824 68.202C154.785 67.8682 155.038 67.4951 155.368 66.631H155.387ZM29.5506 56.4979L36.3636 63.273C36.286 63.5479 36.3442 63.9603 36.4607 64.5691C36.713 66.0419 36.286 67.6718 35.5678 68.8894L24.8922 58.2653C25.0669 58.0689 25.3192 57.9511 25.7074 57.9315C26.5032 57.8922 27.2796 57.6566 28.0755 57.4995C28.619 57.3816 29.1624 56.9692 29.5701 56.4979H29.5506ZM0.396484 66.0419L24.4458 89.9607H19.0691C18.7391 89.5091 18.448 89.1163 18.1957 88.7432C19.2826 88.0755 18.6421 87.5845 17.9822 87.1721C17.691 86.9954 17.1669 86.8579 16.9146 86.9758C16.6817 87.0936 16.4487 87.8006 16.5652 87.8791C17.0893 88.2915 17.264 88.7825 17.3416 89.293L5.46255 77.4711C6.25837 76.9998 6.99596 76.4696 7.73355 75.9001C7.88883 75.7822 7.90824 75.468 7.98588 75.252C7.86942 75.0556 7.81119 74.7022 7.6365 74.6629C6.74363 74.4272 5.05494 75.3502 4.31735 76.3321L0.415895 72.4438V66.0222L0.396484 66.0419ZM28.6772 76.9605C29.0654 76.6463 29.4342 76.3321 29.8224 76.0179L28.6966 74.8985C28.5607 75.0164 28.4249 75.0949 28.3084 75.0753C27.8425 75.036 27.3961 74.4665 26.9497 74.0738C26.8914 74.0148 26.9497 73.5632 27.0467 73.4846C27.0855 73.4453 27.1438 73.4257 27.1826 73.3864L20.4084 66.6507C20.2143 67.3969 20.0785 68.1431 19.9038 68.8894C19.4767 69.125 19.0691 69.4196 18.6227 69.5571C18.4286 69.616 18.0016 69.3018 17.9433 69.0857C17.4775 67.0041 17.4969 66.9649 15.5559 67.2987C15.3035 67.338 15.0512 67.4362 14.7989 67.5147L27.5126 80.1615C27.4738 79.0421 27.9396 77.5496 28.6384 76.9409L28.6772 76.9605ZM24.2128 75.2324C23.9411 74.7807 23.6888 74.329 23.4364 73.8774C23.3976 73.7988 23.3976 73.6417 23.417 73.5435C23.5335 72.4438 23.6499 71.3245 23.7858 70.2247C24.2128 71.3245 24.6204 72.4045 25.0863 73.6024C24.7951 74.1523 24.5234 74.7022 24.2322 75.252L24.2128 75.2324ZM78.8914 89.9607C78.8526 89.3127 78.9691 88.7432 79.8814 88.8217C80.2113 88.8414 80.6772 89.4501 80.8519 89.9607H82.56L82.23 89.6269C82.1912 89.7251 82.1718 89.8429 82.133 89.9411C81.7836 89.6858 81.4342 89.4501 81.0848 89.1948C80.8907 88.8021 80.4443 88.154 80.5219 88.0755C80.5995 88.0166 37.8194 45.4615 37.8194 45.4615C36.8877 46.6005 35.956 47.7395 34.4808 47.2289C34.2285 47.2289 34.015 47.2289 33.8209 47.2289C33.9179 47.5431 34.015 47.8377 34.0926 48.1519L36.1695 50.2138C35.8978 49.7425 35.6649 49.2123 35.5678 48.6624C35.5096 48.309 35.7231 47.8573 35.8007 47.4645C36.0337 47.6609 36.4025 47.8377 36.4607 48.0929C36.8877 50.2335 37.6641 50.587 38.9258 48.9963C39.0034 48.8981 39.4499 49.0356 39.4887 49.1927C39.7216 49.9389 39.8769 50.7244 40.0516 51.5099C40.2457 52.4918 40.2457 52.4918 38.9646 52.374C38.7123 52.3347 38.5376 52.374 38.4017 52.4329L40.3039 54.3181C40.5174 54.0825 40.828 53.8861 41.0803 53.6897C41.2938 53.9254 41.7209 54.2003 41.682 54.3967C41.6238 54.652 41.4297 54.868 41.1774 55.1822L42.5749 56.5568C42.8467 56.1444 43.3901 55.8892 43.6619 55.4768C43.9919 55.9677 44.5353 56.4194 44.613 56.9692C44.6906 57.5387 44.8265 58.2261 44.8847 58.8545L76.1158 89.9214H78.9303L78.8914 89.9607ZM41.8179 54.4752C41.682 54.1217 41.3521 53.6897 41.4297 53.4541C41.6238 52.7864 41.9926 52.2169 42.5167 51.1761C43.0408 52.0205 43.3707 52.4918 43.3319 52.5507C42.8467 53.2184 42.3226 53.8468 41.8179 54.4752ZM33.0445 47.1307C33.0445 47.1307 33.1804 47.1896 33.2774 47.2093C33.2774 47.2682 33.2774 47.3271 33.2774 47.3664L33.0445 47.1307ZM34.442 42.1034C34.0344 42.6336 33.5686 43.1246 33.258 43.6941C32.928 44.3029 32.6175 44.9705 32.5398 45.6382C32.4816 46.0899 32.4816 46.4041 32.5398 46.6398L26.2509 40.3753C26.3091 40.2378 26.348 40.1396 26.3674 40.0218C26.3868 39.8058 26.2315 39.5702 26.1539 39.3541C26.0374 39.5505 25.9209 39.7272 25.8045 39.9236L23.3588 37.4885C23.2229 36.6638 23.087 35.8979 22.9123 35.1713C22.8347 34.8178 22.5241 34.5429 22.3106 34.2483C22.1748 34.6411 21.8448 35.1124 21.9418 35.3873C22.0389 35.7015 22.0971 35.9961 22.1748 36.2906L5.77312 20.0109C6.02545 19.6771 6.37483 19.3825 6.47189 19.0094C6.62717 18.4006 6.64658 17.7329 6.60776 17.1045C6.54953 16.1423 6.47189 15.18 6.41365 14.1981L20.8549 28.573C20.816 28.789 20.7772 29.0247 20.7384 29.2799C20.9519 29.8102 21.2237 30.5564 21.5148 31.283C21.6313 30.7135 21.7866 30.144 21.8836 29.5942L34.4614 42.1034H34.442ZM22.4271 55.8302L20.3114 53.729C20.059 53.2184 19.8455 52.6882 19.632 52.158C19.5156 51.8241 19.8844 51.235 20.1173 50.803C20.4861 50.1353 20.9713 50.3317 21.2431 50.8619C21.5342 51.4117 23.4364 50.9797 22.0971 52.5704C22.0389 52.6293 22.4465 53.2773 22.7182 53.5719C23.8634 54.8484 23.8829 54.8287 22.5241 55.7517C22.4853 55.7713 22.4465 55.8106 22.4077 55.8302H22.4271ZM6.56894 54.9269C6.45248 56.4587 6.74363 57.6566 8.89816 57.4209C9.63575 57.3424 10.4316 57.8137 11.208 58.0493C10.781 58.4813 10.3928 58.9526 9.94632 59.365C9.13109 60.0916 9.9075 60.6611 10.0434 61.2895C10.4122 61.1521 10.7615 61.0343 11.1303 60.8968C11.538 60.7397 11.9262 60.5629 12.3338 60.3862C12.3532 61.3288 14.0419 61.8001 13.1296 62.8802C12.3532 63.8228 12.5667 64.6869 12.819 65.5706L1.38641 54.161C1.96871 54.0432 2.58984 53.8861 2.95863 54.161C4.4144 55.1822 4.47263 54.161 4.68614 52.8846C4.55027 52.158 4.43381 51.4117 4.29794 50.6459L8.49055 54.8091C8.35468 54.9073 8.06352 54.7894 7.48122 54.2199C6.95714 53.729 6.62717 54.2199 6.58835 54.9269H6.56894ZM153.116 89.5091L151.719 88.1148C152.204 88.1148 152.747 87.9969 152.941 88.213C153.174 88.4683 153.388 88.5861 153.543 88.6254C153.407 88.9199 153.291 89.2341 153.136 89.4894V89.5287L153.116 89.5091ZM84.7727 40.7877C84.501 40.3949 84.2487 40.12 84.2681 39.8844C84.4039 38.7846 84.6563 37.6849 84.9086 36.6048C84.928 36.5067 85.355 36.4281 85.3939 36.4674C85.685 36.978 86.2091 37.5867 86.1315 38.058C85.9762 38.9614 85.4909 39.8058 85.0057 41.0037L133.473 89.2145C133.357 89.0377 133.24 88.8217 133.221 88.645C133.104 88.0951 133.337 87.4471 133.531 86.1314C134.482 87.7417 134.987 88.213 134.968 88.645C134.968 89.077 134.444 89.784 134.152 89.784C134.114 89.784 134.055 89.7447 134.016 89.7251L134.23 89.9411H137.064C137.239 88.9199 137.413 87.8791 137.569 86.8579L123.787 73.1508C123.846 73.7006 123.923 74.3683 123.011 74.2701C122.72 74.2309 122.293 73.681 122.273 73.3275C122.254 72.9937 122.39 72.6402 122.603 71.9725L119.032 68.4181C119.304 68.7912 119.071 69.7338 118.76 70.2051C118.585 70.4604 117.595 70.5389 117.343 70.2837C116.974 69.9498 116.935 69.2429 116.761 68.693C116.722 68.5752 116.761 68.4377 116.761 67.6522C116.838 67.4558 116.994 67.0434 117.168 66.5525L104.435 53.8861C104.299 54.0432 104.144 54.1807 104.028 54.3378C103.931 53.9646 103.737 53.5719 103.775 53.2184L92.0904 41.5928C92.0322 42.2605 91.7604 42.9086 91.6051 43.5763C91.1587 43.1246 90.3435 42.6533 90.3435 42.2409C90.3435 41.691 90.6346 41.1412 90.9646 40.4735L79.3573 28.9265C79.1632 28.9854 78.9497 29.0247 78.6973 29.005C78.3285 28.5337 77.9209 28.082 77.6298 27.5518C77.591 27.4733 77.591 27.3358 77.6298 27.1983L50.2614 0.0392756H43.7978L84.7727 40.7877ZM76.4263 29.9673C76.7369 30.0262 77.0281 30.3797 77.5327 30.7724C77.1251 31.067 76.8534 31.4008 76.6787 31.3616C76.3681 31.283 76.1158 30.9688 75.8246 30.7331C76.0381 30.4582 76.2711 29.9476 76.4263 29.9673ZM151.097 87.4864L150.496 86.8972C150.981 86.2099 151.136 85.3262 151.117 84.3639C151.66 83.8534 152.126 83.1857 152.553 82.518L154.475 84.4229C154.242 84.4425 153.912 84.7763 153.737 85.0513C153.679 85.1495 153.97 85.7386 154.145 85.7779C154.785 85.9153 155.193 86.0528 155.484 86.1903C155.387 86.4259 155.271 86.6419 155.174 86.8776C155.018 86.6419 154.785 86.367 154.514 85.9546C154.417 86.5241 154.3 86.9169 154.242 87.2114C154.028 86.8972 153.815 86.6223 153.563 86.6223C152.864 86.583 152.126 86.9561 151.427 87.2114C151.292 87.2703 151.175 87.3882 151.078 87.506L151.097 87.4864ZM140.655 0.0392756H141.781C141.645 0.274929 141.509 0.510583 141.373 0.746236L140.655 0.0392756ZM149.137 85.4048C149.137 85.4048 149.118 85.4637 149.098 85.5029C149.079 85.4244 149.098 85.4244 149.137 85.4048ZM146.226 82.5376C147.041 81.6343 148.167 81.1237 149.079 80.2989C149.273 80.1222 149.37 79.7687 149.448 79.4152L150.845 80.8095C150.224 80.8291 149.622 81.0452 149.156 81.8503C148.71 82.6358 148.302 83.4999 147.72 84.1087L146.206 82.5965C146.206 82.5965 146.226 82.5376 146.245 82.518L146.226 82.5376ZM32.8892 84.5211C32.831 84.796 32.7922 85.0905 32.7727 85.3851L31.3946 84.0105C31.5887 83.4999 31.8411 83.0089 32.074 82.4984C32.3651 83.1857 33.0057 83.9712 32.8892 84.5211ZM37.3536 89.9607L33.685 86.3081C33.685 85.4048 33.8015 84.4818 34.1703 84.1872C35.5096 83.0679 35.0631 82.4984 34.2867 81.2612C34.0732 80.9077 33.9374 80.4757 33.8209 80.024L43.8172 89.9607H37.3536ZM38.4794 65.3742L63.1692 89.9411H56.7056L39.1587 72.4831C39.2558 72.2082 39.3528 71.9529 39.4305 71.7172C39.2558 71.1084 39.1199 70.6764 39.0034 70.2444C38.887 70.8139 38.7511 71.403 38.6346 71.9725L36.8295 70.1658C36.8295 70.1658 36.8295 70.0676 36.8295 70.048C36.383 67.8093 37.5088 66.6507 38.4599 65.3742H38.4794ZM95.9336 89.3323C96.0501 88.5272 96.0501 87.6827 96.186 85.719C96.5547 85.935 97.0594 86.0921 97.7582 86.2099C98.0882 86.2688 98.3405 87.2311 98.6511 87.7613C99.2334 88.8217 99.641 89.5483 99.9904 89.9607H95.8366C95.8754 89.7643 95.9336 89.5483 95.953 89.3323H95.9336ZM6.72422 0.0392756C7.65591 1.33537 8.37409 2.94567 9.46106 3.98647C9.46106 3.98647 9.42224 4.12394 9.36401 4.28104L15.0512 9.93672C15.2647 9.68143 15.4394 9.38686 15.5947 8.99411C16.0023 7.99258 16.507 8.28715 16.9728 9.07266C17.1669 9.4065 17.5939 9.60288 17.7686 9.95636C18.0986 10.6633 18.2151 11.3506 17.1863 11.5077C17.031 11.5274 16.8758 11.547 16.7205 11.5863L38.0523 32.7951C38.0523 32.7951 38.2076 32.6576 38.2852 32.5791C38.4988 32.4416 38.8676 32.4809 39.0811 32.6576C39.1975 32.7558 39.2752 32.8737 39.3722 33.0111C39.4693 33.0504 39.5857 33.0897 39.6828 33.1879C39.8381 32.9326 39.9545 32.7362 40.071 32.5398C40.2845 32.7362 40.6145 32.8737 40.6727 33.1093C40.7309 33.3253 40.498 33.6592 40.401 33.9341C40.0322 33.9734 39.741 34.0912 39.4499 34.209L83.9963 78.5315C83.9963 78.5315 84.1904 78.3744 84.2875 78.3155C84.3845 78.5119 84.598 78.7868 84.5398 78.9243C84.5398 78.9636 84.501 78.9832 84.4816 79.0225L85.0445 79.5723C85.0833 79.4349 85.1415 79.2974 85.1998 79.1992C86.3062 76.9998 86.015 79.6705 86.3838 80.0633C86.869 80.5935 87.3155 81.5557 87.7619 81.9878C87.8201 81.9485 87.8784 81.8896 87.956 81.8699C88.0919 81.8307 88.3054 82.0074 88.5189 82.2431C90.5958 82.3413 91.6634 83.225 90.9258 85.444L95.0407 89.5287C94.9243 89.0181 94.8272 88.5075 94.769 87.9969C94.7302 87.6238 95.2931 87.1722 96.2442 85.7779C95.3707 85.2869 95.3125 84.521 95.5648 83.6374L84.6175 72.758C83.7828 73.249 82.9094 73.6614 82.0553 74.1327C82.2688 73.0526 82.5017 71.9529 82.7153 70.8728L73.1072 61.3092C73.0684 61.6627 73.0101 62.0358 72.9713 62.3893C72.8937 62.8998 72.2532 63.2337 71.8844 63.6461C71.6514 63.0962 71.2438 62.5464 71.2244 61.9769C71.205 61.1128 71.1856 60.2291 71.1662 59.365L67.2647 55.4768C66.8183 55.8695 66.3718 56.2819 65.809 56.7925C65.479 56.2819 65.1878 56.0266 65.1684 55.7517C65.0714 54.7698 65.906 54.9662 66.4883 54.9662C66.6048 54.9662 66.7212 55.0055 66.8183 55.0251L60.5876 48.8195C60.6847 49.4676 60.937 50.096 61.5193 50.6655C61.0729 50.9993 60.4905 51.7063 60.1994 51.6081C59.2871 51.3135 58.4525 50.7637 57.6372 50.2531C57.482 50.1549 57.5208 49.8211 57.4237 49.448C57.6761 49.3105 57.9866 49.173 58.2584 48.9767C58.4719 48.8195 58.8213 48.4268 58.8213 48.4268C57.9478 47.6413 57.8896 46.9932 58.2001 46.4041L56.0456 44.2439C56.0456 44.6171 55.9097 44.9116 55.7739 45.3633C55.4633 45.0491 55.1527 44.8134 55.1721 44.7545C55.308 44.4403 55.5021 44.1654 55.6962 43.8905L26.3674 14.7873C26.3674 14.7873 26.3868 14.8854 26.4062 14.9444C26.0568 15.1407 25.688 15.4157 25.2998 15.5139C25.1251 15.5531 24.9116 15.1996 24.6981 15.0425C25.0087 14.7283 25.3386 14.4141 25.6492 14.0999L24.5622 13.0199C24.4846 13.1573 24.3681 13.3341 24.2322 13.5697C24.1352 13.2162 24.0576 12.9806 23.9993 12.7646C23.6693 12.7646 23.417 12.6075 23.2811 12.1165C23.2617 12.0183 23.2811 11.9005 23.3394 11.7827L11.538 0.0392756H6.72422ZM53.3282 43.5173C53.8134 43.4977 54.3375 44.0672 54.8616 44.3814C54.4151 44.6171 53.9493 44.8527 53.4446 45.108C52.8817 44.892 52.3771 44.7153 51.8918 44.5189C52.3771 44.1654 52.8429 43.537 53.3476 43.5173H53.3282ZM26.5809 16.535C26.5809 16.535 26.7556 16.6136 26.775 16.6921C26.9691 17.3402 27.1632 17.9882 27.3185 18.6559C27.3185 18.6952 26.8914 18.9308 26.872 18.8916C26.5032 18.3024 26.1733 17.7133 25.7074 16.8885C26.0762 16.7314 26.3285 16.6136 26.5809 16.535Z" fill="#0267FF"/>
</svg>
