<svg width="157" height="90" viewBox="0 0 157 90" fill="none" xmlns="http://www.w3.org/2000/svg">
<path d="M156.584 54.2199V47.7984L154.565 45.7953C154.449 46.1684 154.235 46.5416 153.808 46.9343C153.381 47.3467 153.847 50.9012 154.294 51.0779C156.487 51.942 156.642 52.9042 156.235 53.8861L156.565 54.2199H156.584ZM155.73 49.7622C155.614 49.4872 155.4 49.2319 155.381 48.957C155.342 48.525 155.419 48.0733 155.478 47.1307C155.749 47.8966 155.944 48.1715 155.924 48.4464C155.924 48.8785 155.788 49.3105 155.73 49.7622ZM101.362 89.9607C101.459 89.8429 101.576 89.7054 101.692 89.5287L102.119 89.9607H101.362ZM144.2 3.35806C144.569 2.37617 144.841 1.23718 146.083 1.41392C146.355 1.4532 146.627 1.51211 146.898 1.57102C146.763 1.78704 146.588 1.98342 146.471 2.21907C146.083 2.96531 145.714 3.71154 145.326 4.47742L152.916 12.0183C153.013 11.3703 153.11 10.8008 153.246 10.2313C153.401 9.60288 153.711 9.03338 153.944 8.44425C154.235 9.22976 154.74 10.0349 154.74 10.8008C154.74 11.5667 154.352 12.3522 154.022 13.0984L156.604 15.671V9.2494L154.177 6.83395C153.517 6.57866 152.469 6.99105 151.615 7.08924C152.197 6.73576 152.78 6.38228 153.343 6.00916L147.345 0.0589134H144.181C144.045 0.432031 143.909 0.785512 143.696 1.08008C143.424 1.4532 142.512 1.08008 141.755 0.942614L144.2 3.3777V3.35806ZM149.092 3.51516C149.131 3.77046 149.266 4.08466 149.189 4.30068C148.995 4.96836 148.704 5.59677 148.471 6.24482C148.277 6.04844 148.102 5.8717 147.733 5.51822C148.238 4.79162 148.665 4.16321 149.092 3.5348V3.51516ZM87.9884 0.0392756H89.2112L90.2399 1.06044C89.58 0.824787 88.9395 0.589134 88.3377 0.216016C88.2213 0.137465 88.1048 0.0785512 87.9884 0.0196378V0.0392756ZM63.3956 0.0392756H69.8592L76.381 6.53938C75.8376 7.87475 75.2941 9.21012 74.7506 10.5455C75.0806 10.7615 75.5464 11.115 75.5658 11.0954C76.1481 9.87781 76.6722 8.62099 77.1963 7.34453L105.399 35.4069C105.399 35.6819 105.458 35.9568 105.458 36.2121C105.399 37.9206 105.399 38.0188 106.04 38.117C107.088 38.2544 106.991 37.6064 107.01 37.0172L128.07 57.9708C127.779 58.3242 127.449 58.6777 127.294 59.0901C126.867 60.1702 126.459 61.2699 126.052 62.3696L111.494 47.8966C111.494 47.8966 111.572 47.9358 111.591 47.9358C111.863 48.1911 111.96 48.2893 112.038 48.3679C112.969 47.3271 113.92 46.3059 114.813 45.2455C114.891 45.1669 114.697 44.676 114.561 44.6367C114.231 44.5385 113.862 44.6367 113.513 44.6367C113.571 46.1292 111.979 45.9721 111.3 46.7379C111.145 46.9147 110.912 47.0129 110.679 47.0914L80.166 16.7314C81.3307 16.2405 80.6125 15.2978 80.4572 14.4927L78.7103 13.8446C78.4773 14.0803 78.225 14.3159 77.9727 14.5712L71.1985 7.83548C71.315 7.73729 71.4314 7.6391 71.6061 7.54091C70.888 6.71612 70.2668 5.8717 69.5098 5.28257C69.4516 5.24329 69.2769 5.43967 69.0634 5.7146L63.3762 0.0589134L63.3956 0.0392756ZM33.7174 4.5756C33.8921 4.73271 34.222 4.96836 34.2026 5.06655C34.0279 5.75387 33.9309 6.5983 33.0186 6.50011C33.0186 6.4412 33.0186 6.36264 33.0186 6.32337C33.2515 5.73423 33.4844 5.16474 33.7174 4.5756ZM152.624 30.9492C152.838 30.6742 153.071 30.3797 153.323 30.0851C153.401 30.4386 153.595 30.7921 153.537 31.1259C153.498 31.3223 153.42 31.499 153.304 31.6758L156.584 34.9356V28.5141L149.926 21.8765C149.422 22.3674 148.936 22.8388 148.451 23.2708C148.432 23.2708 148.16 23.0155 148.102 22.8191C147.908 22.2496 148.218 21.2874 148.665 20.6197L146.394 18.3613C146.297 19.0487 146.219 19.7753 146.103 20.4626C146.103 20.5411 146.025 20.6197 146.006 20.6786C145.481 20.2269 144.919 19.7753 144.317 19.3629C144.065 19.1861 143.793 19.0683 143.54 18.9112C143.599 18.4595 143.637 18.0275 143.657 17.5758C143.657 16.9867 143.735 16.2994 143.715 15.6906L135.699 7.71765C135.699 7.71765 135.64 7.77657 135.621 7.7962C135.485 7.87475 135.078 7.52127 134.456 7.16779C134.592 7.0696 134.728 6.97142 134.845 6.87323L127.954 0.0196378H121.49L140.493 18.9308C140.454 18.6755 140.707 18.4202 140.862 18.106C141.328 18.6166 141.949 19.0094 141.929 19.3236C141.91 19.5396 141.716 19.7163 141.483 19.9127L152.624 30.9884C152.624 30.9884 152.624 30.9492 152.605 30.9295L152.624 30.9492ZM151.673 29.2996C151.188 28.8872 150.645 28.5337 150.218 28.0231C149.985 27.7482 150.004 27.1591 149.829 26.7663C149.499 26.0201 149.131 25.3131 148.762 24.6062C148.975 24.5276 149.266 24.3116 149.422 24.4294C150.392 25.1756 151.324 26.0004 152.294 26.8252C152.023 27.8857 151.848 28.6123 151.654 29.3192L151.673 29.2996ZM36.1242 7.56055C35.9301 7.34453 35.5613 6.97142 35.5807 6.93214C35.8913 6.4412 35.9495 5.61641 36.5513 5.45931L37.3083 6.20554C36.9589 6.69649 36.5124 7.10888 36.1242 7.56055ZM31.097 0.0392756L32.2422 1.17827C32.0869 1.17827 31.8734 1.41392 31.7569 1.59066C31.7181 1.64957 31.9122 2.06197 32.0287 2.08161C34.4355 2.63146 32.9021 2.96531 32.0093 3.47589C31.6987 3.65263 31.5822 4.20249 31.3493 4.5756C31.0582 5.06655 30.7088 5.40039 30.3206 5.67532L27.1373 2.51364C27.0208 1.96378 26.9044 1.41392 26.7879 0.844425C26.7297 0.569496 26.6909 0.294567 26.652 0H31.097V0.0392756ZM34.0085 9.34759L31.7569 7.10888C31.9122 7.10888 32.0675 7.12852 32.2034 7.10888C32.4751 7.10888 32.7274 6.77504 32.9992 6.57866C33.698 7.46236 34.125 8.34606 33.9891 9.32795L34.0085 9.34759ZM92.5886 65.3349C92.5886 65.3349 92.5886 65.4135 92.608 65.4724C92.6468 65.4528 92.6662 65.4135 92.6856 65.3938C92.7633 66.2383 92.8215 67.1023 92.8991 67.9468L90.2205 65.276C90.9775 65.2171 91.9675 65.6099 92.5692 65.3349H92.5886ZM138.649 73.249C138.649 73.249 139.173 73.5632 139.445 73.7399C139.134 74.0934 138.843 74.4469 138.533 74.8003L140.28 76.5481C140.551 76.2339 140.823 75.9197 141.095 75.6251C141.58 76.3517 142.512 77.1176 142.453 77.7853C142.434 78.0799 142.356 78.3155 142.24 78.5119L144.841 81.1041C146.258 80.6917 147.092 78.8654 148.529 78.5119C148.587 78.5119 148.645 78.5119 148.704 78.5119L146.413 76.2339C146.044 76.5874 146.083 77.3729 145.676 77.6675C145.365 77.8835 145.113 78.1584 144.822 78.4137C144.705 78.0799 144.414 77.6871 144.492 77.4122C144.86 76.0179 143.502 76.2732 142.958 75.7626C142.686 75.4877 142.415 75.2127 142.143 74.9378C142.473 74.8003 142.783 74.604 143.113 74.5451C143.599 74.4469 144.123 74.5451 144.666 74.5254L142.822 72.6991C142.822 72.6991 142.725 72.8562 142.686 72.9544C142.337 72.5616 141.968 72.3063 141.968 72.0511C141.968 71.9921 141.968 71.9332 142.007 71.8743L137.29 67.1809C136.339 66.6114 135.427 65.8259 134.495 65.1386C134.612 65.0207 134.728 64.8833 134.845 64.7654L128.614 58.5599C128.692 58.7759 128.769 58.9919 128.847 59.1883C128.633 60.9164 128.129 62.4285 127.488 63.8425L137.698 74.0148C138.009 73.7399 138.3 73.5043 138.61 73.2686L138.649 73.249ZM137.581 69.3214C137.814 69.7927 138.144 70.264 138.222 70.755C138.28 71.187 138.009 71.6583 137.873 72.1296C137.562 71.6976 137.271 71.2852 136.999 70.8924C137.252 70.2051 137.426 69.7731 137.581 69.3214ZM121.49 89.9607H115.104C115.434 89.3323 115.667 89.0181 115.609 88.861C115.143 87.6827 114.619 86.5241 114.115 85.3655C113.765 85.7582 113.086 86.3474 113.163 86.5437C113.571 87.5256 114.115 88.4682 114.813 89.7251L105.496 80.456C105.496 80.456 105.593 80.3775 105.652 80.3382C105.05 79.4349 104.526 77.9424 103.847 77.7657C103.419 77.6478 102.973 77.5693 102.527 77.4907L94.976 69.9891C95.4031 68.2217 95.6166 66.1597 96.3154 64.9029L121.549 90L121.49 89.9607ZM92.705 65.3938C93.6367 64.6672 93.9279 63.6854 94.0249 62.6249L84.8827 53.513C84.7468 53.6897 84.5916 53.8665 84.4751 54.0236C84.184 53.4344 83.8152 52.9042 83.6405 52.2758L81.9906 50.6262C81.6024 50.6655 81.3889 50.3709 81.4083 50.0567L76.3228 44.9902C75.9152 45.3633 75.5658 45.6579 75.2941 45.599C74.2653 45.3829 73.683 45.7757 73.0619 46.5219C72.9066 46.6987 72.3437 46.7576 72.2661 46.6201C72.0914 46.3845 71.9943 45.8346 72.1302 45.6186C72.1884 45.54 72.2661 45.4418 72.3243 45.3633C71.9943 45.0098 71.7032 44.6956 71.4508 44.4207C71.9361 44.0672 72.3825 43.4977 72.926 43.4192C73.8965 43.2621 73.7218 44.0476 73.7024 44.5778C74.343 44.5385 75.0223 44.6171 75.6046 44.2439L71.6644 40.3164C70.7715 41.1412 69.2187 40.8073 68.8693 39.5701C68.8111 39.3541 69.0052 38.9614 69.1799 38.7257C69.2963 38.549 69.471 38.4312 69.6263 38.2937L38.6282 7.54091C38.5311 7.69801 38.4341 7.85512 38.3176 8.05149C37.8323 8.81737 38.0847 9.17085 38.5699 9.64215C39.0358 10.0938 39.6763 10.5062 39.851 11.0757C40.0257 11.6452 39.6957 12.3914 39.5793 13.0788C39.3463 12.6664 39.2105 12.038 38.8805 11.8612C38.1235 11.4488 37.2112 11.3703 36.4542 10.9382C35.9884 10.683 35.6002 10.5651 35.2702 10.624L72.3631 47.5235C72.7902 47.6216 73.1007 47.8573 73.5472 48.1322C73.4307 48.2304 73.3531 48.3286 73.256 48.4072L88.5513 63.6264C89.58 62.7035 90.5311 61.6234 91.521 60.6219C91.8704 62.1929 92.2198 63.7835 92.5692 65.3546C92.608 65.3546 92.6468 65.3349 92.6662 65.3153C92.6662 65.3546 92.6662 65.3742 92.6662 65.4135L92.705 65.3938ZM41.035 16.1815C40.6662 15.5139 40.3168 14.8658 39.948 14.1981C40.2004 14.041 40.6274 13.6875 40.6662 13.7268C41.035 14.1981 41.3262 14.7283 41.6756 15.2782C41.365 15.7299 41.2097 15.9459 41.035 16.1815ZM77.7009 51.667C76.8857 50.9993 76.1093 50.2531 75.2941 49.5265C75.6629 48.7214 75.9152 48.1715 76.1481 47.6216C76.5557 47.9948 77.0216 48.309 77.3516 48.7606C77.5263 48.9963 77.4486 49.4676 77.5651 49.7818C77.7786 50.3906 78.0503 50.9797 78.3221 51.5885C78.1086 51.6278 77.8174 51.7849 77.7009 51.667ZM145.384 60.2487C146.2 59.2079 146.413 58.2261 146.044 57.1263C146.044 57.1656 146.044 57.2049 146.044 57.2442C145.617 57.1263 145.016 57.1656 144.802 56.8907C144.453 56.4783 144.336 55.8499 144.103 55.2215C144.22 55.2018 144.375 55.1233 144.53 55.0644L124.383 35.0338C124.285 35.3088 124.072 35.5837 123.936 35.8586C123.82 35.5248 123.723 35.1909 123.548 34.6411C123.606 34.5625 123.684 34.4643 123.761 34.3858L93.1515 3.9472C92.8991 5.02727 92.705 5.95025 92.4915 6.85359C91.948 6.10735 91.4628 4.96836 90.8223 4.73271C89.7159 4.32031 88.396 4.81126 87.3672 4.22213C86.7073 3.84901 85.9697 2.16016 86.0473 1.21754C86.1056 0.648047 86.2608 0.255291 86.5132 0.0392756H82.767L144.162 61.1128C144.569 61.0932 144.957 60.8182 145.404 60.2487H145.384ZM99.6733 16.3583C99.5374 16.1815 99.4016 16.0048 99.091 15.5924C99.3822 15.3568 99.6733 15.0622 100.023 14.8854C100.159 14.8069 100.469 15.0033 100.683 15.0622C100.353 15.4942 100.003 15.9262 99.6733 16.3779V16.3583ZM120.442 36.9583C119.938 36.5067 119.278 36.1532 119.297 35.8586C119.316 35.4855 119.918 35.1516 120.268 34.7982C120.442 35.2695 120.695 35.7211 120.792 36.2121C120.83 36.4085 120.578 36.6834 120.442 36.978V36.9583ZM142.783 55.084C142.298 54.9269 141.988 54.8484 141.696 54.7502C142.026 54.3378 142.337 53.8861 142.725 53.5326C142.764 53.4933 143.346 53.945 143.307 54.0628C143.21 54.436 142.958 54.7698 142.783 55.084ZM70.7715 39.4916C70.6162 39.4916 70.4803 39.472 70.3639 39.4523C70.4027 39.3738 70.4609 39.2952 70.4997 39.2167L70.7715 39.4916ZM25.6815 0.0392756C25.7786 0.490945 25.895 0.942614 26.0115 1.39428L24.6528 0.0392756H25.6815ZM102.119 0.0392756H108.583L125.974 17.3402C126.168 18.6755 126.382 19.9913 126.615 21.3266C126.615 21.4248 126.77 21.523 126.867 21.6605C126.984 21.5623 127.236 21.4445 127.236 21.3266C127.197 20.3644 127.158 19.4218 127.1 18.4595L143.967 35.2498C143.676 35.5837 143.443 35.8782 143.443 35.8782C143.948 36.6638 144.472 37.4296 145.016 38.1562C145.016 38.1759 145.579 37.6064 145.559 37.5671C145.307 37.0565 145.035 36.5263 144.744 36.0157L151.363 42.614C150.664 44.0672 149.965 45.54 149.363 47.0325L143.89 41.5928C143.89 41.5928 143.793 41.0037 143.657 40.9644C143.521 40.9252 143.366 40.9252 143.23 40.9252L136.456 34.1894C136.592 33.8948 136.669 33.5413 136.611 33.345C136.572 33.1682 136.397 32.9915 136.223 32.8344C136.397 32.4416 136.902 32.0882 136.902 31.715C136.902 31.067 137.504 29.9673 136.359 29.8691C135.815 29.8102 135.058 30.5171 134.631 31.0473C134.418 31.3223 134.515 31.8329 134.553 32.3042L102.119 0.0392756ZM0.603516 85.3066L5.28138 89.9607H0.603516V85.3066ZM2.36985 14.532C2.15633 14.8069 2.11751 15.2782 2.00105 15.6513C2.25339 15.5139 2.50572 15.3764 2.75805 15.2389C5.41725 13.7857 5.74723 14.0214 5.76664 17.3402C5.76664 17.89 5.76664 18.4399 5.76664 18.9897C5.76664 19.3236 5.86369 19.6378 5.92192 19.952L0.603516 14.6498V8.22823L1.88459 9.50469C1.53521 9.72071 1.20523 10.1331 0.836438 10.4277C1.16641 11.0364 1.39933 11.4685 1.63226 11.9005C2.11751 11.4881 2.58336 11.0757 3.06861 10.683L4.48556 12.0969C3.8062 12.9217 3.02979 13.6875 2.35044 14.5123L2.36985 14.532ZM1.43816 54.0039L0.603516 53.1791V46.7576L3.20449 49.3498C3.45682 50.7441 3.35977 52.6293 2.83569 53.0613C2.40867 53.4344 1.904 53.7094 1.41875 54.0039H1.43816ZM21.2754 48.0537L0.603516 27.4929V33.9145L13.3172 46.5612C13.2202 46.2666 13.2008 45.8935 13.2008 45.5597C13.2008 45.3044 13.3366 45.0687 13.4143 44.8134C13.6472 44.9116 13.9772 44.9509 14.0742 45.1473C14.4818 45.8542 15.0059 46.5808 15.1418 47.386C15.4135 48.9963 16.384 49.1338 17.5292 49.4283C19.1015 49.8407 20.3243 49.664 21.256 48.0537H21.2754ZM8.60053 36.4085C8.38702 36.1335 8.13468 35.8193 7.88235 35.5248C8.01822 35.4462 8.21233 35.2695 8.27056 35.3087C8.58112 35.5444 8.85286 35.8193 9.14402 36.0943C9.00814 36.1728 8.87227 36.2514 8.60053 36.4085ZM11.3762 42.7122C10.8909 41.8285 10.4251 40.9644 10.0757 40.336C10.2504 39.5309 10.3086 39.1774 10.3863 38.8239C10.6774 39.0792 11.1239 39.2952 11.2209 39.6291C11.4538 40.552 11.5509 41.5339 11.6673 42.4962C11.6673 42.5551 11.4732 42.6533 11.3762 42.7122ZM16.4423 64.7851C16.0152 65.3349 15.5494 65.8455 15.0059 66.4543C14.7148 66.0223 14.5206 65.7473 14.5206 65.7473C15.0059 65.2171 15.5106 64.7262 16.0152 64.2156C16.1705 64.412 16.4617 64.7458 16.4423 64.7654V64.7851ZM151.751 68.6734C151.867 68.3199 152.023 67.8682 152.217 67.2398C152.76 68.5359 153.051 68.8894 153.051 69.2821C153.051 69.4981 153.11 69.7731 153.09 70.0284L155.419 72.3456C155.672 72.0314 155.924 71.7172 156.157 71.3834C156.293 71.7172 156.448 72.0511 156.584 72.3849V67.0631L147.539 58.0689C147.364 59.8167 147.267 61.6234 146.044 62.998L146.316 63.273C146.471 62.8606 146.665 62.3696 146.879 61.8787C146.957 61.6823 147.461 61.4663 147.481 61.4859C147.772 61.8198 148.238 62.5071 148.199 62.5267C147.131 63.3908 147.733 63.9799 148.335 64.7851C148.432 64.9225 148.432 65.1386 148.412 65.3742L151.751 68.693V68.6734ZM155.594 66.631C155.905 67.5736 156.157 67.9664 156.118 68.3199C156.079 68.6537 155.749 68.9483 155.555 69.2429C155.381 68.909 155.07 68.5752 155.031 68.202C154.992 67.8682 155.245 67.4951 155.575 66.631H155.594ZM29.7577 56.4979L36.5707 63.273C36.493 63.5479 36.5513 63.9603 36.6677 64.5691C36.9201 66.0419 36.493 67.6718 35.7748 68.8894L25.0992 58.2653C25.2739 58.0689 25.5262 57.9511 25.9145 57.9315C26.7103 57.8922 27.4867 57.6566 28.2825 57.4995C28.826 57.3816 29.3695 56.9692 29.7771 56.4979H29.7577ZM0.603516 66.0419L24.6528 89.9607H19.2762C18.9462 89.5091 18.655 89.1163 18.4027 88.7432C19.4897 88.0755 18.8491 87.5845 18.1892 87.1721C17.898 86.9954 17.374 86.8579 17.1216 86.9758C16.8887 87.0936 16.6558 87.8006 16.7722 87.8791C17.2963 88.2915 17.471 88.7825 17.5486 89.293L5.66958 77.4711C6.4654 76.9998 7.20299 76.4696 7.94058 75.9001C8.09586 75.7822 8.11527 75.468 8.19291 75.252C8.07645 75.0556 8.01822 74.7022 7.84353 74.6629C6.95066 74.4272 5.26197 75.3502 4.52438 76.3321L0.622926 72.4438V66.0222L0.603516 66.0419ZM28.8842 76.9605C29.2724 76.6463 29.6412 76.3321 30.0294 76.0179L28.9036 74.8985C28.7678 75.0164 28.6319 75.0949 28.5154 75.0753C28.0496 75.036 27.6031 74.4665 27.1567 74.0738C27.0985 74.0148 27.1567 73.5632 27.2538 73.4846C27.2926 73.4453 27.3508 73.4257 27.3896 73.3864L20.6155 66.6507C20.4214 67.3969 20.2855 68.1431 20.1108 68.8894C19.6838 69.125 19.2762 69.4196 18.8297 69.5571C18.6356 69.616 18.2086 69.3018 18.1504 69.0857C17.6845 67.0041 17.7039 66.9649 15.7629 67.2987C15.5106 67.338 15.2582 67.4362 15.0059 67.5147L27.7196 80.1615C27.6808 79.0421 28.1466 77.5496 28.8454 76.9409L28.8842 76.9605ZM24.4199 75.2324C24.1481 74.7807 23.8958 74.329 23.6435 73.8774C23.6046 73.7988 23.6046 73.6417 23.624 73.5435C23.7405 72.4438 23.857 71.3245 23.9928 70.2247C24.4199 71.3245 24.8275 72.4045 25.2933 73.6024C25.0022 74.1523 24.7304 74.7022 24.4393 75.252L24.4199 75.2324ZM79.0985 89.9607C79.0597 89.3127 79.1761 88.7432 80.0884 88.8217C80.4184 88.8414 80.8842 89.4501 81.0589 89.9607H82.767L82.437 89.6269C82.3982 89.7251 82.3788 89.8429 82.34 89.9411C81.9906 89.6858 81.6412 89.4501 81.2918 89.1948C81.0977 88.8021 80.6513 88.154 80.7289 88.0755C80.8066 88.0166 38.0264 45.4615 38.0264 45.4615C37.0947 46.6005 36.1631 47.7395 34.6879 47.2289C34.4355 47.2289 34.222 47.2289 34.0279 47.2289C34.125 47.5431 34.222 47.8377 34.2997 48.1519L36.3766 50.2138C36.1048 49.7425 35.8719 49.2123 35.7748 48.6624C35.7166 48.309 35.9301 47.8573 36.0078 47.4645C36.2407 47.6609 36.6095 47.8377 36.6677 48.0929C37.0947 50.2335 37.8712 50.587 39.1328 48.9963C39.2105 48.8981 39.6569 49.0356 39.6957 49.1927C39.9286 49.9389 40.0839 50.7244 40.2586 51.5099C40.4527 52.4918 40.4527 52.4918 39.1716 52.374C38.9193 52.3347 38.7446 52.374 38.6087 52.4329L40.5109 54.3181C40.7245 54.0825 41.035 53.8861 41.2873 53.6897C41.5009 53.9254 41.9279 54.2003 41.8891 54.3967C41.8308 54.652 41.6367 54.868 41.3844 55.1822L42.7819 56.5568C43.0537 56.1444 43.5972 55.8892 43.8689 55.4768C44.1989 55.9677 44.7424 56.4194 44.82 56.9692C44.8977 57.5387 45.0335 58.2261 45.0918 58.8545L76.3228 89.9214H79.1373L79.0985 89.9607ZM42.0249 54.4752C41.8891 54.1217 41.5591 53.6897 41.6367 53.4541C41.8308 52.7864 42.1996 52.2169 42.7237 51.1761C43.2478 52.0205 43.5778 52.4918 43.5389 52.5507C43.0537 53.2184 42.5296 53.8468 42.0249 54.4752ZM33.2515 47.1307C33.2515 47.1307 33.3874 47.1896 33.4844 47.2093C33.4844 47.2682 33.4844 47.3271 33.4844 47.3664L33.2515 47.1307ZM34.6491 42.1034C34.2414 42.6336 33.7756 43.1246 33.465 43.6941C33.1351 44.3029 32.8245 44.9705 32.7469 45.6382C32.6886 46.0899 32.6886 46.4041 32.7469 46.6398L26.4579 40.3753C26.5162 40.2378 26.555 40.1396 26.5744 40.0218C26.5938 39.8058 26.4385 39.5702 26.3609 39.3541C26.2444 39.5505 26.128 39.7272 26.0115 39.9236L23.5658 37.4885C23.4299 36.6638 23.2941 35.8979 23.1194 35.1713C23.0417 34.8178 22.7312 34.5429 22.5177 34.2483C22.3818 34.6411 22.0518 35.1124 22.1489 35.3873C22.2459 35.7015 22.3041 35.9961 22.3818 36.2906L5.98015 20.0109C6.23248 19.6771 6.58187 19.3825 6.67892 19.0094C6.8342 18.4006 6.85361 17.7329 6.81479 17.1045C6.75656 16.1423 6.67892 15.18 6.62069 14.1981L21.0619 28.573C21.0231 28.789 20.9843 29.0247 20.9454 29.2799C21.1589 29.8102 21.4307 30.5564 21.7218 31.283C21.8383 30.7135 21.9936 30.144 22.0906 29.5942L34.6685 42.1034H34.6491ZM22.6341 55.8302L20.5184 53.729C20.2661 53.2184 20.0526 52.6882 19.8391 52.158C19.7226 51.8241 20.0914 51.235 20.3243 50.803C20.6931 50.1353 21.1784 50.3317 21.4501 50.8619C21.7413 51.4117 23.6435 50.9797 22.3042 52.5704C22.2459 52.6293 22.6535 53.2773 22.9253 53.5719C24.0705 54.8484 24.0899 54.8287 22.7312 55.7517C22.6924 55.7713 22.6535 55.8106 22.6147 55.8302H22.6341ZM6.77597 54.9269C6.65951 56.4587 6.95066 57.6566 9.1052 57.4209C9.84278 57.3424 10.6386 57.8137 11.415 58.0493C10.988 58.4813 10.5998 58.9526 10.1533 59.365C9.33812 60.0916 10.1145 60.6611 10.2504 61.2895C10.6192 61.1521 10.9686 61.0343 11.3374 60.8968C11.745 60.7397 12.1332 60.5629 12.5408 60.3862C12.5602 61.3288 14.2489 61.8001 13.3366 62.8802C12.5602 63.8228 12.7737 64.6869 13.0261 65.5706L1.59344 54.161C2.17574 54.0432 2.79687 53.8861 3.16567 54.161C4.62143 55.1822 4.67966 54.161 4.89318 52.8846C4.7573 52.158 4.64084 51.4117 4.50497 50.6459L8.69758 54.8091C8.56171 54.9073 8.27056 54.7894 7.68825 54.2199C7.16417 53.729 6.8342 54.2199 6.79538 54.9269H6.77597ZM153.323 89.5091L151.926 88.1148C152.411 88.1148 152.954 87.9969 153.148 88.213C153.381 88.4683 153.595 88.5861 153.75 88.6254C153.614 88.9199 153.498 89.2341 153.343 89.4894V89.5287L153.323 89.5091ZM84.9798 40.7877C84.708 40.3949 84.4557 40.12 84.4751 39.8844C84.611 38.7846 84.8633 37.6849 85.1156 36.6048C85.1351 36.5067 85.5621 36.4281 85.6009 36.4674C85.8921 36.978 86.4161 37.5867 86.3385 38.058C86.1832 38.9614 85.698 39.8058 85.2127 41.0037L133.68 89.2145C133.564 89.0377 133.447 88.8217 133.428 88.645C133.311 88.0951 133.544 87.4471 133.738 86.1314C134.689 87.7417 135.194 88.213 135.175 88.645C135.175 89.077 134.651 89.784 134.359 89.784C134.321 89.784 134.262 89.7447 134.224 89.7251L134.437 89.9411H137.271C137.446 88.9199 137.62 87.8791 137.776 86.8579L123.994 73.1508C124.053 73.7006 124.13 74.3683 123.218 74.2701C122.927 74.2309 122.5 73.681 122.48 73.3275C122.461 72.9937 122.597 72.6402 122.81 71.9725L119.239 68.4181C119.511 68.7912 119.278 69.7338 118.967 70.2051C118.792 70.4604 117.802 70.5389 117.55 70.2837C117.181 69.9498 117.143 69.2429 116.968 68.693C116.929 68.5752 116.968 68.4377 116.968 67.6522C117.045 67.4558 117.201 67.0434 117.375 66.5525L104.642 53.8861C104.506 54.0432 104.351 54.1807 104.235 54.3378C104.138 53.9646 103.944 53.5719 103.982 53.2184L92.2974 41.5928C92.2392 42.2605 91.9675 42.9086 91.8122 43.5763C91.3657 43.1246 90.5505 42.6533 90.5505 42.2409C90.5505 41.691 90.8417 41.1412 91.1716 40.4735L79.5643 28.9265C79.3702 28.9854 79.1567 29.0247 78.9044 29.005C78.5356 28.5337 78.128 28.082 77.8368 27.5518C77.798 27.4733 77.798 27.3358 77.8368 27.1983L50.4684 0.0392756H44.0048L84.9798 40.7877ZM76.6334 29.9673C76.9439 30.0262 77.2351 30.3797 77.7398 30.7724C77.3321 31.067 77.0604 31.4008 76.8857 31.3616C76.5751 31.283 76.3228 30.9688 76.0317 30.7331C76.2452 30.4582 76.4781 29.9476 76.6334 29.9673ZM151.305 87.4864L150.703 86.8972C151.188 86.2099 151.343 85.3262 151.324 84.3639C151.867 83.8534 152.333 83.1857 152.76 82.518L154.682 84.4229C154.449 84.4425 154.119 84.7763 153.944 85.0513C153.886 85.1495 154.177 85.7386 154.352 85.7779C154.992 85.9153 155.4 86.0528 155.691 86.1903C155.594 86.4259 155.478 86.6419 155.381 86.8776C155.225 86.6419 154.992 86.367 154.721 85.9546C154.624 86.5241 154.507 86.9169 154.449 87.2114C154.235 86.8972 154.022 86.6223 153.77 86.6223C153.071 86.583 152.333 86.9561 151.634 87.2114C151.499 87.2703 151.382 87.3882 151.285 87.506L151.305 87.4864ZM140.862 0.0392756H141.988C141.852 0.274929 141.716 0.510583 141.58 0.746236L140.862 0.0392756ZM149.344 85.4048C149.344 85.4048 149.325 85.4637 149.305 85.5029C149.286 85.4244 149.305 85.4244 149.344 85.4048ZM146.433 82.5376C147.248 81.6343 148.374 81.1237 149.286 80.2989C149.48 80.1222 149.577 79.7687 149.655 79.4152L151.052 80.8095C150.431 80.8291 149.829 81.0452 149.363 81.8503C148.917 82.6358 148.509 83.4999 147.927 84.1087L146.413 82.5965C146.413 82.5965 146.433 82.5376 146.452 82.518L146.433 82.5376ZM33.0962 84.5211C33.038 84.796 32.9992 85.0905 32.9798 85.3851L31.6017 84.0105C31.7958 83.4999 32.0481 83.0089 32.281 82.4984C32.5722 83.1857 33.2127 83.9712 33.0962 84.5211ZM37.5606 89.9607L33.8921 86.3081C33.8921 85.4048 34.0085 84.4818 34.3773 84.1872C35.7166 83.0679 35.2702 82.4984 34.4938 81.2612C34.2803 80.9077 34.1444 80.4757 34.0279 80.024L44.0242 89.9607H37.5606ZM38.6864 65.3742L63.3762 89.9411H56.9126L39.3657 72.4831C39.4628 72.2082 39.5598 71.9529 39.6375 71.7172C39.4628 71.1084 39.3269 70.6764 39.2105 70.2444C39.094 70.8139 38.9581 71.403 38.8417 71.9725L37.0365 70.1658C37.0365 70.1658 37.0365 70.0676 37.0365 70.048C36.5901 67.8093 37.7159 66.6507 38.667 65.3742H38.6864ZM96.1407 89.3323C96.2571 88.5272 96.2571 87.6827 96.393 85.719C96.7618 85.935 97.2664 86.0921 97.9652 86.2099C98.2952 86.2688 98.5475 87.2311 98.8581 87.7613C99.4404 88.8217 99.848 89.5483 100.197 89.9607H96.0436C96.0824 89.7643 96.1407 89.5483 96.1601 89.3323H96.1407ZM6.93125 0.0392756C7.86294 1.33537 8.58112 2.94567 9.66809 3.98647C9.66809 3.98647 9.62927 4.12394 9.57104 4.28104L15.2582 9.93672C15.4718 9.68143 15.6464 9.38686 15.8017 8.99411C16.2093 7.99258 16.714 8.28715 17.1798 9.07266C17.374 9.4065 17.801 9.60288 17.9757 9.95636C18.3056 10.6633 18.4221 11.3506 17.3934 11.5077C17.2381 11.5274 17.0828 11.547 16.9275 11.5863L38.2594 32.7951C38.2594 32.7951 38.4146 32.6576 38.4923 32.5791C38.7058 32.4416 39.0746 32.4809 39.2881 32.6576C39.4046 32.7558 39.4822 32.8737 39.5793 33.0111C39.6763 33.0504 39.7928 33.0897 39.8898 33.1879C40.0451 32.9326 40.1616 32.7362 40.278 32.5398C40.4915 32.7362 40.8215 32.8737 40.8797 33.1093C40.938 33.3253 40.705 33.6592 40.608 33.9341C40.2392 33.9734 39.948 34.0912 39.6569 34.209L84.2034 78.5315C84.2034 78.5315 84.3975 78.3744 84.4945 78.3155C84.5916 78.5119 84.8051 78.7868 84.7468 78.9243C84.7468 78.9636 84.708 78.9832 84.6886 79.0225L85.2515 79.5723C85.2903 79.4349 85.3486 79.2974 85.4068 79.1992C86.5132 76.9998 86.222 79.6705 86.5908 80.0633C87.0761 80.5935 87.5225 81.5557 87.9689 81.9878C88.0272 81.9485 88.0854 81.8896 88.1631 81.8699C88.2989 81.8307 88.5124 82.0074 88.726 82.2431C90.8028 82.3413 91.8704 83.225 91.1328 85.444L95.2478 89.5287C95.1313 89.0181 95.0343 88.5075 94.976 87.9969C94.9372 87.6238 95.5001 87.1722 96.4512 85.7779C95.5778 85.2869 95.5195 84.521 95.7719 83.6374L84.8245 72.758C83.9899 73.249 83.1164 73.6614 82.2623 74.1327C82.4759 73.0526 82.7088 71.9529 82.9223 70.8728L73.3142 61.3092C73.2754 61.6627 73.2172 62.0358 73.1784 62.3893C73.1007 62.8998 72.4602 63.2337 72.0914 63.6461C71.8585 63.0962 71.4509 62.5464 71.4314 61.9769C71.412 61.1128 71.3926 60.2291 71.3732 59.365L67.4717 55.4768C67.0253 55.8695 66.5789 56.2819 66.016 56.7925C65.686 56.2819 65.3949 56.0266 65.3754 55.7517C65.2784 54.7698 66.113 54.9662 66.6953 54.9662C66.8118 54.9662 66.9283 55.0055 67.0253 55.0251L60.7946 48.8195C60.8917 49.4676 61.144 50.096 61.7263 50.6655C61.2799 50.9993 60.6976 51.7063 60.4064 51.6081C59.4941 51.3135 58.6595 50.7637 57.8443 50.2531C57.689 50.1549 57.7278 49.8211 57.6308 49.448C57.8831 49.3105 58.1937 49.173 58.4654 48.9767C58.6789 48.8195 59.0283 48.4268 59.0283 48.4268C58.1548 47.6413 58.0966 46.9932 58.4072 46.4041L56.2526 44.2439C56.2526 44.6171 56.1168 44.9116 55.9809 45.3633C55.6703 45.0491 55.3598 44.8134 55.3792 44.7545C55.515 44.4403 55.7092 44.1654 55.9033 43.8905L26.5744 14.7873C26.5744 14.7873 26.5938 14.8854 26.6132 14.9444C26.2638 15.1407 25.895 15.4157 25.5068 15.5139C25.3321 15.5531 25.1186 15.1996 24.9051 15.0425C25.2157 14.7283 25.5457 14.4141 25.8562 14.0999L24.7692 13.0199C24.6916 13.1573 24.5751 13.3341 24.4393 13.5697C24.3422 13.2162 24.2646 12.9806 24.2064 12.7646C23.8764 12.7646 23.624 12.6075 23.4882 12.1165C23.4688 12.0183 23.4882 11.9005 23.5464 11.7827L11.745 0.0392756H6.93125ZM53.5352 43.5173C54.0205 43.4977 54.5445 44.0672 55.0686 44.3814C54.6222 44.6171 54.1563 44.8527 53.6517 45.108C53.0888 44.892 52.5841 44.7153 52.0989 44.5189C52.5841 44.1654 53.05 43.537 53.5546 43.5173H53.5352ZM26.7879 16.535C26.7879 16.535 26.9626 16.6136 26.982 16.6921C27.1761 17.3402 27.3702 17.9882 27.5255 18.6559C27.5255 18.6952 27.0985 18.9308 27.0791 18.8916C26.7103 18.3024 26.3803 17.7133 25.9145 16.8885C26.2832 16.7314 26.5356 16.6136 26.7879 16.535Z" fill="white"/>
</svg>
