<svg width="1440" height="225" viewBox="0 0 1440 225" fill="none" xmlns="http://www.w3.org/2000/svg">
<path d="M1403.94 341.306C1412.88 316.421 1423.52 291.999 1431.66 266.861C1435.22 255.852 1438.36 244.706 1442.22 233.792C1444.11 228.413 1446.17 223.079 1448.57 217.9C1449.12 216.72 1449.7 215.561 1450.28 214.395C1450.43 214.137 1450.6 213.837 1450.8 213.489C1452.45 211.001 1454.04 208.536 1455.85 206.162C1463.59 195.981 1461.67 179.38 1451.21 171.723C1451.06 171.138 1450.65 170.617 1449.93 170.332C1444.21 168.083 1438.9 164.987 1433.27 162.55C1430.54 161.365 1427.76 160.711 1424.94 160.181C1422.56 159.204 1420.13 158.306 1417.6 157.63C1415.38 157.037 1412.8 156.651 1410.35 156.132C1407.62 154.556 1405.17 152.524 1402.64 150.383C1398.32 146.734 1393.88 144.2 1388.29 143.09C1385.68 142.571 1383.03 142.308 1380.43 141.727C1377.72 141.119 1375.08 140.164 1372.51 139.123C1367.01 136.889 1361.8 134.015 1356.63 131.108C1351.74 128.351 1346.81 125.72 1341.84 123.111C1338.14 121.162 1334.96 118.188 1331.84 115.433C1324.79 109.204 1316.41 101.607 1306.28 103.606C1304.18 102.251 1301.97 101.249 1299.7 100.483C1295.42 98.4793 1291.21 96.7201 1286.22 95.7534C1280.82 94.7064 1275.34 94.7786 1269.86 94.6368C1267.13 94.5664 1262.32 92.7639 1259.59 91.1131C1254.5 88.0303 1249.83 84.2331 1245.33 80.3623C1229.54 66.783 1216.06 48.0913 1196.74 36.7884C1180.06 27.0401 1156.3 14.3258 1137.04 24.5741C1129.84 26.98 1124.55 32.9197 1118.09 36.9527C1118.05 36.986 1118.01 37.0147 1117.97 37.0508C1115.83 37.7579 1113.46 37.1412 1111.15 37.6576C1107.82 38.3975 1105.31 40.3601 1102.66 42.3694C1100.07 44.3289 1097.3 46.2501 1094.39 47.6922C1091.07 49.3312 1088.3 49.2261 1085 47.5788C1082 46.0847 1079.08 44.647 1075.66 44.5245C1072.54 44.4176 1069.56 45.1798 1066.63 46.1731C1063.71 47.1618 1060.87 48.4004 1057.83 48.9687C1055.21 49.4592 1052.55 49.3567 1049.9 49.2923C1044.63 49.1618 1038.79 48.9622 1034.53 52.2474C1030.47 52.1103 1026.24 51.1785 1022.22 52.0553C1020.24 52.485 1018.53 53.4495 1016.83 54.4949C1015.39 55.3901 1013.84 56.535 1012.11 56.7892C1009.89 57.1152 1007.87 55.7306 1005.81 55.11C1003.68 54.4657 1001.57 54.4517 999.438 55.1896C995.955 56.4062 993.501 59.2068 990.808 61.5845C980.384 59.0308 970.626 54.3985 960.421 51.1618C959.086 50.7377 957.747 50.3461 956.399 49.9768C953.807 49.0136 951.205 48.0728 948.574 47.1886C944.011 45.6611 939.441 44.1307 934.926 42.4769C934.139 43.5812 933.332 44.6697 932.477 45.7308C931.316 47.1692 930.097 48.5597 928.841 49.911C923.483 55.6643 918.12 61.4753 912.443 66.9282C909.413 69.8328 906.219 72.5642 902.92 75.1705C891.146 84.4777 878.1 92.0571 865.297 99.823C848.381 110.08 830.562 118.801 812.553 126.948C797.369 133.823 781.968 140.172 766.658 146.752C752.312 152.925 738.566 160.399 725.126 168.364C711.568 177.017 698.522 186.537 686.808 197.561C682.607 202.488 678.713 207.659 675.202 213.095C673.363 217.203 671.755 221.399 670.369 225.679C669.323 233.75 667.001 241.333 663.409 248.433C670.712 251.43 678.017 254.421 685.328 257.396C735.513 277.838 785.624 298.473 835.987 318.472C936.907 358.56 1037.25 400.276 1136.6 444.134C1192.48 468.797 1247.9 494.555 1304.97 516.396C1311.94 519.062 1320.07 518.139 1326.57 514.48C1335.44 513.397 1343.44 507.919 1346.91 498.82C1366.74 446.64 1385.09 393.835 1403.96 341.297L1403.94 341.306Z" fill="white"/>
<path d="M11.0619 350.839C2.19989 322.166 -8.61723 293.929 -16.563 265.01C-20.0379 252.344 -23.0246 239.546 -26.8391 226.973C-28.7165 220.777 -30.7797 214.623 -33.2367 208.628C-33.7928 207.262 -34.3888 205.919 -34.9877 204.567C-35.1439 204.267 -35.3258 203.918 -35.536 203.512C-37.2753 200.608 -38.9576 197.732 -40.8855 194.946C-49.1459 183.007 -46.1118 164.282 -33.8613 156.134C-33.6602 155.478 -33.1739 154.908 -32.3375 154.622C-25.7399 152.365 -19.5623 149.125 -13.0555 146.65C-9.90061 145.446 -6.7071 144.846 -3.48545 144.389C-0.733286 143.404 2.05864 142.509 4.96412 141.872C7.51566 141.313 10.4545 141.007 13.2655 140.544C16.4356 138.897 19.3159 136.718 22.2993 134.42C27.3886 130.503 32.5464 127.856 38.9414 126.883C41.9264 126.429 44.9506 126.266 47.9214 125.74C51.0264 125.189 54.0665 124.241 57.0356 123.192C63.3879 120.94 69.4479 117.948 75.4568 114.916C81.1372 112.039 86.8657 109.309 92.6312 106.604C96.9319 104.583 100.688 101.374 104.363 98.4091C112.673 91.7064 122.565 83.5209 133.955 86.306C136.408 84.8768 138.958 83.8531 141.579 83.1009C146.524 81.0476 151.389 79.2681 157.096 78.4271C163.274 77.516 169.484 77.8781 175.708 77.9975C178.806 78.0572 184.358 76.2596 187.529 74.527C193.461 71.2917 198.947 67.2247 204.251 63.0658C222.846 48.4754 239.086 27.9701 261.577 16.1419C280.987 5.94099 308.582 -7.26078 329.897 5.34441C337.932 8.44017 343.63 15.4458 350.743 20.3488C350.794 20.3889 350.834 20.4233 350.876 20.4662C353.268 21.3775 355.993 20.7997 358.582 21.5031C362.317 22.5122 365.062 24.8658 367.969 27.2799C370.799 29.6338 373.846 31.9542 377.077 33.7383C380.75 35.7662 383.902 35.7889 387.72 34.0893C391.201 32.5487 394.587 31.0678 398.475 31.1039C402.013 31.142 405.351 32.1585 408.623 33.4346C411.883 34.705 415.046 36.2549 418.465 37.0548C421.41 37.7449 424.428 37.7644 427.432 37.8267C433.42 37.9484 440.046 38.0204 444.713 41.9634C449.328 42.0158 454.171 41.1754 458.682 42.3749C460.9 42.9632 462.791 44.1443 464.665 45.4167C466.26 46.5056 467.96 47.8831 469.899 48.2594C472.406 48.7428 474.771 47.2762 477.129 46.6774C479.583 46.0561 481.979 46.1482 484.354 47.0937C488.241 48.6512 490.881 51.9523 493.813 54.786C505.762 52.4232 517.064 47.6696 528.801 44.5213C530.337 44.1086 531.875 43.7331 533.422 43.3833C536.411 42.4236 539.408 41.4899 542.437 40.6217C547.689 39.1229 552.95 37.6213 558.154 35.9769C558.99 37.2693 559.849 38.5448 560.765 39.7917C562.007 41.482 563.319 43.121 564.673 44.7174C570.455 51.515 576.239 58.3783 582.398 64.8515C585.685 68.2999 589.166 71.5604 592.774 74.6842C605.649 85.8395 620.054 95.1007 634.173 104.561C652.831 117.056 672.59 127.856 692.593 138.014C709.459 146.586 726.597 154.573 743.62 162.816C759.572 170.549 774.777 179.727 789.609 189.446C804.539 199.95 818.845 211.412 831.565 224.511C836.076 230.311 840.228 236.374 843.931 242.718C845.806 247.47 847.415 252.309 848.768 257.234C849.54 266.439 851.786 275.156 855.496 283.39C847.062 286.416 838.626 289.433 830.184 292.433C772.234 313.046 714.358 333.882 656.23 353.984C539.748 394.281 423.838 436.452 308.939 481.103C244.324 506.211 180.165 532.585 114.34 554.433C106.3 557.1 97.1239 555.637 89.9423 551.156C79.9332 549.474 71.1417 542.853 67.682 532.36C47.8618 472.179 29.7517 411.366 11.0391 350.828L11.0619 350.839Z" fill="white"/>
</svg>
