<svg width="128" height="150" viewBox="0 0 128 150" fill="none" xmlns="http://www.w3.org/2000/svg">
<path d="M-213.961 93.8378C-223.957 102.054 -235.713 108.865 -255.189 108.865C-304.219 108.865 -304.3 65.6216 -351 65.6216V61.6757C-301.97 61.6757 -301.889 104.919 -255.189 104.919C-238.313 104.919 -227.532 99.2703 -218.322 92.0541C-216.859 92.6487 -215.424 93.2432 -213.961 93.8378ZM125.752 85.1622C125.995 84.8919 126.158 84.6216 126.266 84.3514C83.3316 83.3243 80.7311 44.8919 38.4465 41.4324C39.1779 42.0541 39.9905 42.7838 40.9928 43.6216C40.0989 43.7838 39.3675 43.9459 38.6903 44.1081C40.2343 44.6757 41.7784 45.2162 43.3224 45.7838C43.2411 45.8649 43.1869 45.9459 43.1057 46.027C58.3834 48.6216 67.9184 56.5946 77.1826 64.9459C78.7808 65.4054 80.406 65.8919 81.8688 66.1892C81.3271 66.6757 80.7853 67.1892 80.2706 67.7027C90.9434 77.2973 102.131 86.5946 122.149 88.1351C123.558 87.2703 124.776 86.2973 125.725 85.1892L125.752 85.1622ZM42.4826 62.4054C43.2682 62.7568 43.9725 63.1351 44.5413 63.6216C44.9206 63.9459 43.7558 65.3514 42.9431 66.5135C49.6068 67.6216 55.187 69.7297 60.0899 72.4865C61.1193 71.3784 62.0674 70.3784 62.9884 69.4324C57.2457 66.1351 50.6362 63.5946 42.4826 62.4324V62.4054ZM11.873 69.027C14.2838 67.4054 15.557 66.4324 15.7737 66.5676C16.2342 66.8378 16.6947 67.1351 17.1552 67.4054C21.5977 66.2973 26.5548 65.6487 32.2162 65.6487C34.8167 65.6487 37.2546 65.8108 39.5842 66.0541C37.8776 65.4324 36.1982 64.8108 34.4916 64.1892C35.3585 63.5135 36.2253 62.8378 37.4172 61.8919C35.7377 61.7838 34.004 61.7027 32.1891 61.7027C24.0627 61.7027 17.2906 62.9189 11.4125 64.8919C11.3042 65.0811 11.1958 65.2432 11.0875 65.4324C11.0062 65.5946 10.2748 65.6757 9.21838 65.6757C-14.565 74.8378 -23.2332 97.2162 -49.2108 103.351C-48.9128 103.703 -48.5877 104.081 -48.2627 104.378C-49.9421 105.081 -51.6216 106.351 -53.274 106.405C-60.5607 106.595 -67.9016 106.757 -75.08 106.216C-78.791 105.946 -82.2312 104.135 -85.7798 103C-84.8317 102.649 -83.8836 102.324 -82.8813 101.946C-111.568 92.1622 -118.231 61.7027 -159.378 61.7027C-188.823 61.7027 -200.607 77.2973 -215.451 89.7568C-214.042 90.3513 -212.661 90.973 -211.279 91.6216C-206.376 87.3784 -201.771 82.9189 -196.733 78.9189L-196.652 78.6757C-196.652 78.6757 -196.435 78.6216 -196.327 78.5946C-187.117 71.3513 -176.308 65.6757 -159.378 65.6757C-154.719 65.6757 -150.548 66.1081 -146.728 66.8919C-146.241 66.2703 -145.753 65.6757 -145.32 65.0811C-142.15 65.5135 -140.254 65.7838 -138.385 66.027C-139.225 66.8108 -140.037 67.6216 -140.85 68.4054C-126.71 73 -117.879 82.5676 -107.884 91.2703C-107.613 90.6757 -107.125 89.7568 -106.665 88.6757C-104.823 91.1622 -102.276 93.0811 -102.574 94.4865C-102.656 94.8649 -102.71 95.1892 -102.737 95.5406C-100.434 97.3243 -98.0507 99.027 -95.4774 100.568C-95.3148 100.297 -95.1252 100.027 -94.9356 99.7297C-93.9604 100.703 -93.2832 101.378 -92.6331 102.081C-85.0755 106.216 -75.8655 108.946 -63.5946 108.946C-22.9353 108.946 -15.9465 79.2432 11.873 69.0811V69.027ZM4.74884 28.7838C4.01746 28.4324 3.12354 28.1622 2.14838 27.9189C-10.3935 34.8919 -18.7366 45.4324 -29.8427 53.3243C-28.9759 54.1892 -28.0278 55.2703 -27.1068 56.4324C-15.188 47.8649 -6.54694 36.5405 7.1055 29.9459C6.31995 29.5676 5.53439 29.1622 4.74884 28.7838ZM-324.995 25.8378C-326.512 25.1622 -328.083 24.5405 -329.736 23.973C-329.79 24.0541 -329.871 24.1351 -329.925 24.2162C-328.3 24.6757 -326.621 25.4865 -324.995 25.8649V25.8378ZM-310.07 35.3784C-310.476 35.0541 -310.882 34.7297 -311.289 34.4054C-310.964 34.7838 -310.612 35.1622 -310.259 35.5946C-310.205 35.5135 -310.151 35.4595 -310.097 35.4054L-310.07 35.3784ZM-350.973 41.1351V45.0811C-304.273 45.0811 -304.192 88.3243 -255.162 88.3243C-206.133 88.3243 -206.051 45.0811 -159.351 45.0811C-129.636 45.0811 -118.773 62.5946 -102.195 75.3514C-101.003 73.8649 -101.193 72.2432 -101.572 70.5946C-117.256 57.9459 -128.796 41.1081 -159.351 41.1081C-165.636 41.1081 -171.08 41.8378 -175.956 43.0541C-177.609 44.1351 -178.448 44.6487 -179.18 44.6216C-179.505 44.6216 -179.884 44.5135 -180.263 44.3514C-209.681 54.3784 -216.236 84.3514 -255.135 84.3514C-264.562 84.3514 -272.092 82.5676 -278.512 79.7568C-281.031 79.4595 -283.523 79.1892 -286.043 78.8919C-284.986 78.4595 -283.957 78.027 -282.927 77.5946C-304.977 65.4595 -314.214 41.1351 -350.973 41.1351ZM-350.973 0.27027C-349.564 1.05405 -348.237 1.97297 -346.801 2.72973C-345.501 3.40541 -344.038 3.89189 -342.63 4.45946C-342.711 4.45946 -342.765 4.45946 -342.846 4.45946C-305.302 9 -301.402 44.8649 -259.361 47.1081C-256.11 45.5946 -253.347 44.2973 -250.584 43.1081C-252.074 43.2162 -253.591 43.2703 -255.162 43.2703C-301.862 43.2973 -301.943 0.0540541 -350.973 0.0540541V0.27027ZM-159.378 106.73C-128.119 106.73 -117.744 126.108 -99.5677 138.946C-97.1297 139 -94.6647 139.216 -92.308 138.703C-105.906 130.838 -114.737 118.405 -128.742 110.405C-128.904 110.351 -129.04 110.297 -129.148 110.162C-137.004 105.757 -146.484 102.757 -159.351 102.757C-206.81 102.757 -208.408 143.27 -250.801 145.865C-251.776 146.324 -252.724 146.784 -253.726 147.216C-254.322 147.459 -255.677 146.649 -256.95 145.946C-278.864 145.405 -290.295 135.108 -301.835 124.676C-301.998 124.865 -302.133 125.054 -302.268 125.27C-302.891 124.622 -303.867 124.054 -304.002 123.324C-304.029 123.162 -304.002 122.973 -303.975 122.757C-315.406 112.514 -327.65 102.757 -350.946 102.757V106.703C-304.246 106.703 -304.165 149.946 -255.135 149.946C-206.105 149.946 -206.051 106.703 -159.324 106.703L-159.378 106.73ZM104.433 145.027C103.377 143.432 102.7 141.676 101.724 140.054C78.6182 128.189 69.7875 102.784 32.1891 102.784C-16.8405 102.784 -16.8946 146.027 -63.5946 146.027C-72.2628 146.027 -79.3057 144.541 -85.3735 142.108C-85.9423 143.351 -86.6195 144.514 -87.3509 145.703C-80.8227 148.351 -73.1296 150 -63.5946 150C-14.565 150 -14.5109 106.757 32.1891 106.757C70.4918 106.757 77.4535 135.865 105.761 146.297C105.246 145.919 104.758 145.541 104.433 145.054V145.027ZM-159.541 86.1892C-159.622 84.973 -159.785 83.4595 -159.08 82.7027C-158.918 82.5405 -158.809 82.3784 -158.674 82.2432C-158.918 82.2432 -159.135 82.2432 -159.351 82.2432C-165.527 82.2432 -170.918 82.9189 -175.712 84.1351C-175.008 84.5135 -174.168 84.9459 -173.112 85.4324C-177.907 86.3243 -179.992 87.0541 -182.024 86.973C-182.376 86.973 -182.728 86.7838 -183.053 86.5405C-195.974 91.7297 -204.399 100.811 -213.771 108.919C-211.415 109.378 -208.76 108.162 -205.997 107.514C-195.704 98.2162 -185.545 89.027 -167.911 86.7568C-168.859 86.3243 -169.618 85.1892 -170.457 84.4054C-169.157 83.8378 -167.857 82.8108 -166.557 82.8108C-165.419 82.8108 -164.308 83.973 -161.627 85.4865C-162.954 85.8378 -163.956 86.1622 -164.796 86.4324C-163.116 86.2973 -161.356 86.2162 -159.541 86.2162V86.1892ZM2.39215 94.1351C1.87747 93.5676 1.38989 92.7297 1.47116 92.5676C2.09418 91.5135 3.04227 90.5135 4.09872 90.027C4.3967 89.8919 5.12805 90.7838 6.29285 91.9459C13.2545 88.4324 21.4893 86.1622 32.1891 86.1622C78.8891 86.1622 78.9433 129.405 127.973 129.405V125.459C82.221 125.459 81.1917 83.973 35.0876 82.2973C34.7896 82.3784 34.4916 82.4324 34.1937 82.4595C32.46 82.5946 30.0763 83.2162 28.8031 82.2973C-16.8675 84.2432 -18.0052 125.459 -63.6217 125.459C-66.9535 125.459 -70.0145 125.216 -72.9129 124.811C-72.9942 124.811 -73.0484 124.811 -73.1296 124.784C-97.8882 121.189 -107.775 103.784 -124.733 92.3514C-125.166 92.6487 -125.599 92.9459 -126.006 93.2432C-126.791 93.8108 -128.525 93.3514 -129.825 93.3514C-129.094 92.4865 -128.579 91.2162 -127.631 90.7838C-127.523 90.7297 -127.441 90.7027 -127.36 90.6487C-134.186 86.4865 -142.286 83.4324 -152.796 82.4865C-152.769 82.7838 -152.742 83.0811 -152.742 83.4595C-153.961 84.3784 -155.098 85.3784 -156.372 86.2162C-153.284 86.3513 -150.385 86.6487 -147.703 87.1622C-147.649 87.0811 -147.595 87.027 -147.514 86.946C-147.432 87.0541 -147.351 87.1351 -147.27 87.2432C-112.272 94 -108.019 129.378 -63.6488 129.378C-28.0278 129.378 -18.2491 106.568 2.33795 94.0811L2.39215 94.1351ZM-219.622 115.459C-220.083 115.297 -220.625 115.027 -221.166 114.73C-229.78 120.892 -239.993 125.459 -255.162 125.459C-275.695 125.459 -287.207 117.108 -297.826 107.73C-298.205 107.486 -298.503 107.27 -298.639 107C-311.858 95.2432 -324.02 82.1892 -350.946 82.1892V86.1351C-329.248 86.1351 -317.627 95.4595 -306.467 105.459C-306.305 105.568 -306.169 105.703 -306.007 105.811C-294.819 115.919 -283.984 126.541 -263.749 128.919C-264.237 128.405 -264.724 127.865 -265.212 127.351C-264.399 126.73 -263.316 125.432 -262.855 125.595C-261.338 126.135 -260.038 127.189 -258.115 128.405C-258.521 128.703 -258.9 129 -259.279 129.297C-257.925 129.378 -256.571 129.405 -255.135 129.405C-237.365 129.405 -226.042 123.73 -216.589 116.486C-217.618 116.135 -218.62 115.784 -219.595 115.432L-219.622 115.459ZM-301.049 44.2162C-303.054 43.6216 -304.625 43.7838 -305.979 44.3514C-293.302 55.7297 -281.058 67.8108 -255.162 67.8108C-206.133 67.8108 -206.051 24.5676 -159.351 24.5676C-138.493 24.5676 -126.927 33.2162 -116.173 42.7568C-115.821 42.6216 -115.495 42.5676 -115.17 42.5676C-112.949 42.6487 -110.809 43.5676 -108.642 44.1351C-109.509 45 -110.403 46.3243 -111.243 47.1622C-103.414 54.1892 -95.3148 61.0811 -83.6669 64.8378C-82.8001 64.3243 -82.0146 63.973 -81.2019 63.8649C-80.0371 63.6757 -78.466 65.4865 -77.0845 66.4054C-77.1387 66.4324 -77.1928 66.4595 -77.247 66.4865C-73.1296 67.2973 -68.633 67.7838 -63.5675 67.7838C-51.2424 67.7838 -42.0324 65.0541 -34.3665 60.973C-34.9895 59.7568 -36.4252 58.9459 -38.1317 58.2973C-44.985 61.6757 -53.0844 63.8378 -63.5675 63.8378C-74.0506 63.8378 -81.8791 61.7297 -88.6512 58.4595C-89.8972 58.7297 -91.1703 59.027 -92.4164 59.3243C-91.685 58.7568 -90.9807 58.1892 -90.2764 57.6216C-113.058 45.6487 -122.024 20.5946 -159.351 20.5946C-164.363 20.5946 -168.832 21.0541 -172.922 21.8649C-172.922 21.9459 -172.868 22.027 -172.868 22.1351C-172.083 27.8649 -177.013 24.3784 -179.234 25.4595C-179.857 25.7568 -180.832 25.8919 -181.401 25.5676C-181.862 25.3243 -182.268 25.027 -182.701 24.7297C-201.663 32.2162 -210.981 48.0811 -227.451 57.1351C-227.532 57.2973 -227.559 57.4324 -227.641 57.5946C-228.778 59.6216 -233.871 61.8649 -236.715 61.6216C-237.094 61.5946 -237.392 61.5135 -237.744 61.4595C-242.783 62.973 -248.471 63.8649 -255.162 63.8649C-277.943 63.8649 -289.618 53.5676 -301.32 43.027C-301.239 43.4324 -301.131 43.8108 -301.049 44.2162ZM128 146.027C123.368 146.027 119.223 145.595 115.431 144.811C114.537 146.432 112.587 147.514 110.636 147.811C115.702 149.162 121.39 149.973 128 149.973V146.027ZM89.1555 28.8378C89.1555 28.8378 89.0201 28.8649 88.9388 28.8649C86.853 28.9459 84.7673 28.0541 81.0562 27.1892C82.3835 26.2162 83.4399 25.3243 84.2797 24.6216C76.7762 17.9189 69.5437 10.8649 59.7649 6.02703C58.8981 6.45946 58.2209 6.72973 57.7874 6.51351C56.6768 6 55.8642 5 55.0786 3.94595C48.74 1.51351 41.3179 0 32.2162 0C21.1643 0 12.6044 2.21622 5.42606 5.62162C5.83237 6.10811 6.07614 6.40541 6.02194 6.32432C6.02194 7.72973 6.02194 8.89189 6.02194 9.89189C13.0378 6.2973 21.3539 3.94595 32.2433 3.94595C70.5189 3.94595 77.4806 33 105.734 43.4865C105.625 42.4865 105.3 41.3243 104.65 40C105.517 40 106.465 39.8919 107.44 39.7838C100.289 37.1351 94.4919 33.1892 89.1826 28.8108L89.1555 28.8378ZM-42.9534 41.6216C-42.6554 42.2973 -42.6284 43.1351 -42.6825 44.027C-39.8383 43.0541 -37.1836 41.9189 -34.7186 40.6216C-37.4003 40.8378 -40.1092 41.0541 -42.7909 41.2703C-42.7096 41.3784 -42.6284 41.4324 -42.5471 41.5405C-42.6825 41.5676 -42.818 41.5946 -42.9263 41.6216H-42.9534ZM-350.973 24.5405C-345.203 24.5405 -340.138 25.2162 -335.614 26.3784C-338.594 24.4865 -341.411 22.4054 -344.688 20.8919C-346.693 20.7297 -348.779 20.6216 -350.973 20.6216V24.5676V24.5405ZM-246.954 44.027C-248.119 45.0541 -249.311 46.1081 -250.503 47.1351C-244.95 46.8108 -240.074 45.8649 -235.686 44.5135C-235.577 44.2162 -235.442 43.8919 -235.306 43.5946C-234.683 42.1081 -233.464 40.7568 -232.327 39.0811C-229.997 39.6216 -227.966 40.0811 -226.069 40.5135C-203.18 28.3514 -194.376 4.02703 -159.378 4.02703C-122.376 4.02703 -114.656 31.1622 -88.6512 42.4324C-88.1365 42.2703 -87.6218 42.1351 -87.1071 42.0541C-82.8001 41.3784 -78.1138 42.4054 -73.6172 42.6487C-73.4818 42.6487 -73.3734 42.6487 -73.238 42.6487C-110.565 37.1622 -113.951 0.027027 -159.405 0.027027C-204.859 0.027027 -208.408 39.1351 -248.715 42.9459C-248.173 43.2432 -247.496 43.7027 -246.954 43.973V44.027ZM-6.68237 13.2432C-15.3235 19.9189 -22.4477 27.8649 -31.5222 33.9189C-29.8156 34.2703 -28.1362 34.6757 -26.6193 35.1622C-26.5109 35.1892 -26.4025 35.2432 -26.2942 35.2973C-19.4138 30.2432 -13.5898 24.2703 -7.16995 18.9459C-7.11578 17.0541 -6.95325 15.1622 -6.68237 13.2703V13.2432ZM-63.5946 47.2703C-60.6149 47.2703 -57.8519 47.1081 -55.1972 46.8108C-55.8745 46.1622 -56.5517 45.5135 -57.2289 44.8378C-52.4613 43.7568 -47.6938 42.7027 -42.9263 41.6216C-42.9805 41.5135 -43.0076 41.4054 -43.0618 41.2973C-42.9805 41.2973 -42.8722 41.2973 -42.7909 41.2973C-43.1159 40.8649 -43.4681 40.5135 -43.8202 40.1622C-49.4275 42.1351 -55.8474 43.3243 -63.5675 43.3243C-63.9467 43.3243 -64.2718 43.3243 -64.651 43.2973C-65.4366 44.5676 -66.168 45.8919 -66.8993 47.1892C-65.8158 47.2432 -64.7323 47.2703 -63.5946 47.2703ZM71.6837 75.2973C71.3586 75.4865 71.0606 75.7027 70.7356 75.8919C69.7604 76.4595 68.3247 76.5676 66.4828 76.5405C82.3564 88 92.7312 104.811 118.329 108.216C118.14 108.108 117.923 107.973 117.734 107.865C119.521 107.27 121.363 106.216 123.124 106.189C124.749 106.189 126.375 106.243 127.973 106.27V104.892C98.7448 104.892 87.774 87.9459 71.6566 75.2703L71.6837 75.2973ZM-324.02 30.8919C-322.774 31.5405 -321.582 32.2432 -320.417 32.973C-321.555 32.2703 -322.72 31.2432 -324.02 30.8919ZM126.537 47.2162C126.808 46.9189 127.079 46.6216 127.377 46.2703C127.594 46.3514 127.783 46.4054 128 46.4865V43.2703C123.151 43.2703 118.844 42.7838 114.889 41.9459C115.485 43.2162 115.756 44.7568 115.837 46.2162C119.115 46.7838 122.691 47.1081 126.537 47.1892V47.2162ZM120.903 63.4595C117.815 63.1351 114.943 62.6216 112.289 61.9189C106.329 60.973 100.451 59.6757 94.5732 58.4595C101.941 63.1892 110.664 66.7297 122.474 67.5676C123.666 65.6487 123.232 64.2973 120.93 63.4595H120.903ZM28.0717 20.7027C27.1236 21.2432 26.0401 21.8649 24.7941 22.5405C23.1688 23.4324 20.2704 24.2432 20.1078 25.2432C20.1078 25.3784 20.0536 25.5135 20.0266 25.6487C23.7106 24.9459 27.7467 24.5405 32.1891 24.5405C40.6406 24.5405 47.5482 25.973 53.5075 28.2973C53.8868 28.1351 54.2118 28.0541 54.5098 28.0541C55.7017 28.1081 57.4895 29.2973 57.8687 30.2432C67.783 35.1892 75.0697 42.5946 82.9794 49.5405C83.4128 49.5135 83.8463 49.4595 84.2797 49.5135C85.9049 49.6757 87.3677 51.1351 89.9682 52.6757C89.2639 53.0541 88.6138 53.4595 88.045 53.8108C88.2888 54 88.5054 54.1892 88.7492 54.3784C88.7763 54.3514 88.8305 54.3243 88.8576 54.2973C89.4264 53.8649 90.0765 53.5135 90.8079 53.1892C90.5641 52.7297 90.3745 52.3514 90.4016 52C90.4016 51.4865 90.2932 50.8919 90.212 50.2973C74.4196 37.6216 62.9342 20.6216 32.1891 20.6216C30.7805 20.6216 29.399 20.6757 28.0446 20.7297L28.0717 20.7027ZM-99.7573 77.1622C-92.6873 82.1892 -84.4525 86.1892 -73.3463 87.7027C-70.4479 86.5135 -67.7932 85.4054 -65.1928 84.3514C-78.5472 84.0541 -88.001 80.1622 -95.9649 74.8108C-97.3464 75.2162 -98.5654 76.0541 -99.7573 77.1892V77.1622ZM-67.0619 88.2432C-65.9242 88.2973 -64.7865 88.3513 -63.5946 88.3513C-43.3868 88.3513 -31.4951 81 -21.2287 72.3514C-22.9623 72 -24.696 71.6487 -26.4296 71.2703C-34.7728 77.8649 -44.362 83.1622 -58.6104 84.1892C-61.4005 85.5676 -64.2176 86.9189 -67.0619 88.2432ZM32.2162 41.1351C31.6745 41.1351 31.1598 41.1622 30.618 41.1892C31.5661 41.5135 32.4871 41.8649 33.4352 42.2162C33.381 42.1892 33.3539 42.1351 33.2997 42.0811C33.5435 41.8378 33.8415 41.5135 34.1124 41.1892C33.4623 41.1892 32.8392 41.1351 32.1891 41.1351H32.2162ZM30.1304 41.1892C4.50504 41.8649 -7.38666 54.6487 -20.3348 66.1351C-19.6576 67.3784 -19.0075 68.6216 -18.3574 69.8649C-9.98712 62.5135 -2.32117 54.6487 8.54117 49.8108C9.67886 45.9459 12.5502 44.3514 18.0762 46.3784C18.6992 46.2703 19.3494 46.2162 19.9724 46.1892C23.1959 45.5676 26.7173 45.1892 30.5367 45.1081C30.8889 44.2973 30.8076 43.0541 30.1304 41.1622V41.1892Z" fill="#0267FF"/>
</svg>
