<svg width="48" height="48" viewBox="0 0 48 48" fill="none" xmlns="http://www.w3.org/2000/svg">
<path d="M32.38 4H15.62C8.34 4 4 8.34 4 15.62V32.36C4 39.66 8.34 44 15.62 44H32.36C39.64 44 43.98 39.66 43.98 32.38V15.62C44 8.34 39.66 4 32.38 4ZM16.94 17.96L22.94 11.96C23.08 11.82 23.24 11.72 23.42 11.64C23.78 11.48 24.2 11.48 24.56 11.64C24.74 11.72 24.9 11.82 25.04 11.96L31.04 17.96C31.62 18.54 31.62 19.5 31.04 20.08C30.74 20.38 30.36 20.52 29.98 20.52C29.6 20.52 29.22 20.38 28.92 20.08L25.48 16.64V29.02C25.48 29.84 24.8 30.52 23.98 30.52C23.16 30.52 22.48 29.84 22.48 29.02V16.64L19.04 20.08C18.46 20.66 17.5 20.66 16.92 20.08C16.34 19.5 16.36 18.56 16.94 17.96ZM36.48 34.44C32.46 35.78 28.24 36.46 24 36.46C19.76 36.46 15.54 35.78 11.52 34.44C10.74 34.18 10.32 33.32 10.58 32.54C10.84 31.76 11.7 31.32 12.48 31.6C19.92 34.08 28.1 34.08 35.54 31.6C36.32 31.34 37.18 31.76 37.44 32.54C37.68 33.34 37.26 34.18 36.48 34.44Z" fill="black"/>
</svg>
