<svg width="32" height="32" viewBox="0 0 32 32" fill="none" xmlns="http://www.w3.org/2000/svg">
<path d="M19.7238 27.0572C19.2031 27.5779 19.2031 28.4221 19.7238 28.9428C20.2445 29.4635 21.0887 29.4635 21.6094 28.9428L26 24.5523C27.0414 23.5109 27.0414 21.8224 26 20.781L21.6094 16.3905C21.0887 15.8698 20.2445 15.8698 19.7238 16.3905C19.2031 16.9112 19.2031 17.7554 19.7238 18.2761L22.781 21.3333H6.66662C5.93024 21.3333 5.33329 21.9303 5.33329 22.6666C5.33329 23.403 5.93024 24 6.66662 24H22.781L19.7238 27.0572Z" fill="black"/>
<path d="M25.3334 8C26.0698 8 26.6667 8.59695 26.6667 9.33333C26.6667 10.0697 26.0698 10.6667 25.3334 10.6667H9.21903L12.2762 13.7239C12.7969 14.2446 12.7969 15.0888 12.2762 15.6095C11.7555 16.1302 10.9113 16.1302 10.3906 15.6095L6.00008 11.219C4.95868 10.1776 4.95868 8.48911 6.00008 7.44771L10.3906 3.05719C10.9113 2.53649 11.7555 2.53649 12.2762 3.05719C12.7969 3.57789 12.7969 4.42211 12.2762 4.94281L9.21903 8H25.3334Z" fill="black"/>
</svg>
