<svg width="32" height="32" viewBox="0 0 32 32" fill="none" xmlns="http://www.w3.org/2000/svg">
<path d="M16 2.66666C18.2091 2.66666 20 4.45753 20 6.66666V14.6667H13.3333C12.597 14.6667 12 15.2636 12 16C12 16.7364 12.597 17.3333 13.3333 17.3333H20V25.3333C20 27.5425 18.2091 29.3333 16 29.3333H8C5.79086 29.3333 4 27.5425 4 25.3333L4 6.66666C4 4.45753 5.79086 2.66666 8 2.66666L16 2.66666Z" fill="white"/>
<path d="M20 17.3333L24.1144 17.3333L21.7239 19.7239C21.2032 20.2446 21.2032 21.0888 21.7239 21.6095C22.2446 22.1302 23.0888 22.1302 23.6095 21.6095L27.3333 17.8856C28.3747 16.8442 28.3747 15.1558 27.3333 14.1144L23.6095 10.3905C23.0888 9.86982 22.2446 9.86982 21.7239 10.3905C21.2032 10.9112 21.2032 11.7554 21.7239 12.2761L24.1144 14.6667L20 14.6667V17.3333Z" fill="white"/>
</svg>
