<svg width="48" height="48" viewBox="0 0 48 48" fill="none" xmlns="http://www.w3.org/2000/svg">
<path d="M34 8H14C8 8 4 11 4 18V25.12C4 25.86 4.76 26.32 5.42 26.02C7.38 25.12 9.64 24.78 12.02 25.2C17.28 26.14 21.14 31.02 21 36.36C20.98 37.2 20.86 38.02 20.64 38.82C20.48 39.44 20.98 40.02 21.62 40.02H34C40 40.02 44 37.02 44 30.02V18C44 11 40 8 34 8ZM24 29C21.24 29 19 26.76 19 24C19 21.24 21.24 19 24 19C26.76 19 29 21.24 29 24C29 26.76 26.76 29 24 29ZM38.5 28C38.5 28.82 37.82 29.5 37 29.5C36.18 29.5 35.5 28.82 35.5 28V20C35.5 19.18 36.18 18.5 37 18.5C37.82 18.5 38.5 19.18 38.5 20V28Z" fill="black"/>
<path d="M10 28C7.5 28 5.24 29.18 3.78 30.98C2.66 32.36 2 34.1 2 36C2 40.42 5.6 44 10 44C13.48 44 16.46 41.78 17.54 38.66C17.84 37.84 18 36.94 18 36C18 31.6 14.42 28 10 28ZM14.72 39.48C14.68 39.6 14.6 39.72 14.52 39.8L13.08 41.22C12.9 41.42 12.66 41.5 12.4 41.5C12.14 41.5 11.88 41.42 11.7 41.22C11.38 40.92 11.34 40.44 11.54 40.08H7.52C6.24 40.08 5.2 39.04 5.2 37.74V37.54C5.2 36.98 5.64 36.56 6.18 36.56C6.72 36.56 7.16 36.98 7.16 37.54V37.74C7.16 37.96 7.32 38.14 7.54 38.14H11.56C11.36 37.76 11.4 37.3 11.72 36.98C12.1 36.6 12.72 36.6 13.08 36.98L14.52 38.42C14.6 38.5 14.68 38.62 14.74 38.74C14.82 38.96 14.82 39.24 14.72 39.48ZM14.8 34.46C14.8 35.02 14.36 35.44 13.82 35.44C13.28 35.44 12.84 35.02 12.84 34.46V34.26C12.84 34.04 12.68 33.86 12.46 33.86H8.46C8.66 34.24 8.62 34.7 8.3 35.02C8.12 35.2 7.88 35.3 7.6 35.3C7.36 35.3 7.1 35.2 6.92 35.02L5.48 33.58C5.4 33.5 5.32 33.38 5.26 33.26C5.18 33.02 5.18 32.76 5.26 32.52C5.32 32.42 5.38 32.28 5.48 32.2L6.92 30.78C7.3 30.38 7.92 30.38 8.28 30.78C8.6 31.08 8.64 31.56 8.44 31.92H12.46C13.74 31.92 14.78 32.96 14.78 34.26V34.46H14.8Z" fill="black"/>
</svg>
