<svg width="48" height="48" viewBox="0 0 48 48" fill="none" xmlns="http://www.w3.org/2000/svg">
<g clip-path="url(#clip0_796_2121)">
<path d="M24 48C37.3001 48 48 37.3001 48 24C48 10.6999 37.3001 0 24 0C10.6999 0 0 10.6999 0 24C0 37.3001 10.6999 48 24 48Z" fill="#2775CA"/>
<path d="M30.6001 27.8C30.6001 24.3 28.5001 23.1 24.3001 22.6001C21.3001 22.2 20.7001 21.4001 20.7001 20C20.7001 18.5998 21.7002 17.7 23.7001 17.7C25.5001 17.7 26.5002 18.3 27.0001 19.8C27.1002 20.1 27.4002 20.3 27.7002 20.3H29.3C29.7001 20.3 30.0001 20 30.0001 19.6001V19.5C29.6 17.3 27.8 15.6 25.5001 15.4001V13.0001C25.5001 12.6 25.2001 12.3 24.7002 12.2H23.2002C22.8001 12.2 22.5001 12.5 22.4 13.0001V15.3C19.4 15.7001 17.5002 17.7 17.5002 20.2001C17.5002 23.5001 19.5001 24.8 23.7001 25.3001C26.5002 25.8 27.4002 26.4 27.4002 28.0001C27.4002 29.6002 26 30.7001 24.1002 30.7001C21.5 30.7001 20.6 29.6 20.3 28.1C20.2002 27.7001 19.9002 27.5 19.6002 27.5H17.9C17.5002 27.5 17.2002 27.8 17.2002 28.2V28.3001C17.6 30.8 19.2001 32.6 22.5001 33.1001V35.5001C22.5001 35.9 22.8001 36.2 23.3 36.3H24.8C25.2001 36.3 25.5001 36 25.6002 35.5001V33.1001C28.6002 32.6 30.6001 30.5 30.6001 27.8Z" fill="white"/>
<path d="M18.9 38.3C11.1 35.5001 7.09992 26.8001 10.0001 19.1C11.5001 14.9 14.8001 11.7 18.9 10.2C19.3001 10.0001 19.5 9.70012 19.5 9.19996V7.80004C19.5 7.39996 19.3001 7.09996 18.9 7.00012C18.7999 7.00012 18.6 7.00012 18.4999 7.09996C9 10.1 3.79992 20.2001 6.79992 29.7C8.59992 35.3 12.9 39.6 18.4999 41.4C18.9 41.6 19.3001 41.4 19.3999 41C19.5 40.9001 19.5 40.8 19.5 40.6001V39.2C19.5 38.9 19.2 38.5001 18.9 38.3ZM29.5001 7.09996C29.1 6.90004 28.6999 7.09996 28.6001 7.50004C28.5 7.60012 28.5 7.69996 28.5 7.90012V9.30004C28.5 9.70012 28.8 10.1 29.1 10.3001C36.9 13.1 40.9001 21.8 37.9999 29.5001C36.4999 33.7001 33.1999 36.9 29.1 38.4C28.6999 38.6 28.5 38.9 28.5 39.4001V40.8C28.5 41.2001 28.6999 41.5001 29.1 41.6C29.2001 41.6 29.4 41.6 29.5001 41.5001C39 38.5001 44.2001 28.4 41.2001 18.9C39.4001 13.2 34.9999 8.89996 29.5001 7.09996Z" fill="white"/>
</g>
<rect x="0.5" y="0.5" width="47" height="47" rx="23.5" stroke="black"/>
<defs>
<clipPath id="clip0_796_2121">
<rect width="48" height="48" rx="24" fill="white"/>
</clipPath>
</defs>
</svg>
